<mxfile host="Electron" agent="Mozilla/5.0 (Macintosh; Intel Mac OS X 10_15_7) AppleWebKit/537.36 (KHTML, like Gecko) draw.io/28.0.6 Chrome/138.0.7204.100 Electron/37.2.3 Safari/537.36" version="28.0.6" pages="4">
  <diagram name="step-by-step" id="Rd7AsvJDtnxFJLOsBlVG">
    <mxGraphModel dx="828" dy="1011" grid="1" gridSize="10" guides="1" tooltips="1" connect="1" arrows="0" fold="1" page="1" pageScale="1" pageWidth="850" pageHeight="1100" math="0" shadow="0">
      <root>
        <mxCell id="akwmaDAdcuWCsk3jGBrk-0" />
        <mxCell id="akwmaDAdcuWCsk3jGBrk-1" parent="akwmaDAdcuWCsk3jGBrk-0" />
        <mxCell id="q0XRxBFANma4I5ZSVUxv-0" value="Client Application" style="rounded=1;whiteSpace=wrap;html=1;fontStyle=1;fillColor=#fad7ac;strokeColor=#b46504;" parent="akwmaDAdcuWCsk3jGBrk-1" vertex="1">
          <mxGeometry x="1348.56" y="80" width="231.44" height="60" as="geometry" />
        </mxCell>
        <mxCell id="q0XRxBFANma4I5ZSVUxv-1" value="" style="rounded=0;whiteSpace=wrap;html=1;fillColor=#dae8fc;strokeColor=#6c8ebf;" parent="akwmaDAdcuWCsk3jGBrk-1" vertex="1">
          <mxGeometry x="1110" y="330" width="1110" height="660" as="geometry" />
        </mxCell>
        <mxCell id="q0XRxBFANma4I5ZSVUxv-108" style="edgeStyle=orthogonalEdgeStyle;rounded=1;orthogonalLoop=1;jettySize=auto;html=1;exitX=1;exitY=0.5;exitDx=0;exitDy=0;entryX=0.5;entryY=1;entryDx=0;entryDy=0;curved=0;dashed=1;dashPattern=8 8;startArrow=classic;startFill=1;" parent="akwmaDAdcuWCsk3jGBrk-1" source="q0XRxBFANma4I5ZSVUxv-2" target="q0XRxBFANma4I5ZSVUxv-101" edge="1">
          <mxGeometry relative="1" as="geometry" />
        </mxCell>
        <mxCell id="q0XRxBFANma4I5ZSVUxv-110" value="&lt;font style=&quot;font-size: 12px; background-color: light-dark(rgb(219, 232, 252), rgb(237, 237, 237));&quot;&gt;Fetch model server metrics&amp;nbsp;&lt;/font&gt;" style="edgeLabel;html=1;align=center;verticalAlign=middle;resizable=0;points=[];" parent="q0XRxBFANma4I5ZSVUxv-108" vertex="1" connectable="0">
          <mxGeometry x="0.0601" y="-2" relative="1" as="geometry">
            <mxPoint x="-71" y="-2" as="offset" />
          </mxGeometry>
        </mxCell>
        <mxCell id="q0XRxBFANma4I5ZSVUxv-2" value="" style="rounded=1;whiteSpace=wrap;html=1;fillColor=#A9C4EB;strokeColor=#6c8ebf;arcSize=8;dashed=1;dashPattern=8 8;" parent="akwmaDAdcuWCsk3jGBrk-1" vertex="1">
          <mxGeometry x="1198.64" y="690" width="501.36" height="140" as="geometry" />
        </mxCell>
        <mxCell id="q0XRxBFANma4I5ZSVUxv-102" style="edgeStyle=orthogonalEdgeStyle;rounded=1;orthogonalLoop=1;jettySize=auto;html=1;exitX=1;exitY=0.25;exitDx=0;exitDy=0;entryX=0;entryY=0.5;entryDx=0;entryDy=0;curved=0;startArrow=classic;startFill=1;" parent="akwmaDAdcuWCsk3jGBrk-1" source="q0XRxBFANma4I5ZSVUxv-4" target="q0XRxBFANma4I5ZSVUxv-97" edge="1">
          <mxGeometry relative="1" as="geometry">
            <Array as="points">
              <mxPoint x="1950" y="458" />
              <mxPoint x="1950" y="392" />
            </Array>
          </mxGeometry>
        </mxCell>
        <mxCell id="q0XRxBFANma4I5ZSVUxv-103" style="edgeStyle=orthogonalEdgeStyle;rounded=1;orthogonalLoop=1;jettySize=auto;html=1;exitX=1;exitY=0.75;exitDx=0;exitDy=0;entryX=0;entryY=0.5;entryDx=0;entryDy=0;curved=0;startArrow=classic;startFill=1;" parent="akwmaDAdcuWCsk3jGBrk-1" source="q0XRxBFANma4I5ZSVUxv-4" target="q0XRxBFANma4I5ZSVUxv-101" edge="1">
          <mxGeometry relative="1" as="geometry">
            <Array as="points">
              <mxPoint x="1950" y="524" />
              <mxPoint x="1950" y="587" />
            </Array>
          </mxGeometry>
        </mxCell>
        <mxCell id="q0XRxBFANma4I5ZSVUxv-4" value="" style="rounded=0;whiteSpace=wrap;html=1;fillColor=#B266FF;strokeColor=#B266FF;" parent="akwmaDAdcuWCsk3jGBrk-1" vertex="1">
          <mxGeometry x="1198.64" y="425.4000000000001" width="501.36" height="132" as="geometry" />
        </mxCell>
        <mxCell id="q0XRxBFANma4I5ZSVUxv-84" style="edgeStyle=orthogonalEdgeStyle;rounded=1;orthogonalLoop=1;jettySize=auto;html=1;exitX=0.5;exitY=1;exitDx=0;exitDy=0;curved=0;" parent="akwmaDAdcuWCsk3jGBrk-1" source="q0XRxBFANma4I5ZSVUxv-7" target="q0XRxBFANma4I5ZSVUxv-31" edge="1">
          <mxGeometry relative="1" as="geometry" />
        </mxCell>
        <mxCell id="q0XRxBFANma4I5ZSVUxv-85" style="edgeStyle=orthogonalEdgeStyle;rounded=1;orthogonalLoop=1;jettySize=auto;html=1;exitX=0.5;exitY=1;exitDx=0;exitDy=0;entryX=0.25;entryY=0;entryDx=0;entryDy=0;curved=0;" parent="akwmaDAdcuWCsk3jGBrk-1" source="q0XRxBFANma4I5ZSVUxv-7" target="q0XRxBFANma4I5ZSVUxv-31" edge="1">
          <mxGeometry relative="1" as="geometry">
            <Array as="points">
              <mxPoint x="1443" y="670" />
              <mxPoint x="1363" y="670" />
            </Array>
          </mxGeometry>
        </mxCell>
        <mxCell id="q0XRxBFANma4I5ZSVUxv-86" style="edgeStyle=orthogonalEdgeStyle;rounded=1;orthogonalLoop=1;jettySize=auto;html=1;exitX=0.5;exitY=1;exitDx=0;exitDy=0;entryX=0.75;entryY=0;entryDx=0;entryDy=0;curved=0;" parent="akwmaDAdcuWCsk3jGBrk-1" source="q0XRxBFANma4I5ZSVUxv-7" target="q0XRxBFANma4I5ZSVUxv-31" edge="1">
          <mxGeometry relative="1" as="geometry">
            <Array as="points">
              <mxPoint x="1443" y="670" />
              <mxPoint x="1523" y="670" />
            </Array>
          </mxGeometry>
        </mxCell>
        <mxCell id="q0XRxBFANma4I5ZSVUxv-7" value="&lt;font style=&quot;font-size: 16px; color: light-dark(rgb(0, 0, 0), rgb(25, 0, 50));&quot;&gt;LLM Inference Gateway&lt;/font&gt;" style="rounded=1;whiteSpace=wrap;html=1;opacity=50;fontStyle=1" parent="akwmaDAdcuWCsk3jGBrk-1" vertex="1">
          <mxGeometry x="1284.0999999999997" y="461.4000000000001" width="317.27" height="60" as="geometry" />
        </mxCell>
        <mxCell id="q0XRxBFANma4I5ZSVUxv-10" style="edgeStyle=orthogonalEdgeStyle;rounded=0;orthogonalLoop=1;jettySize=auto;html=1;exitX=0.5;exitY=1;exitDx=0;exitDy=0;endArrow=none;endFill=0;entryX=0.5;entryY=0;entryDx=0;entryDy=0;" parent="akwmaDAdcuWCsk3jGBrk-1" source="q0XRxBFANma4I5ZSVUxv-33" target="q0XRxBFANma4I5ZSVUxv-40" edge="1">
          <mxGeometry relative="1" as="geometry">
            <mxPoint x="1443" y="260" as="targetPoint" />
          </mxGeometry>
        </mxCell>
        <mxCell id="q0XRxBFANma4I5ZSVUxv-11" style="edgeStyle=orthogonalEdgeStyle;rounded=0;orthogonalLoop=1;jettySize=auto;html=1;exitX=0.5;exitY=1;exitDx=0;exitDy=0;entryX=0.5;entryY=0;entryDx=0;entryDy=0;" parent="akwmaDAdcuWCsk3jGBrk-1" source="q0XRxBFANma4I5ZSVUxv-12" target="q0XRxBFANma4I5ZSVUxv-7" edge="1">
          <mxGeometry relative="1" as="geometry" />
        </mxCell>
        <mxCell id="q0XRxBFANma4I5ZSVUxv-12" value="Loadbalancer" style="rounded=1;whiteSpace=wrap;html=1;fontStyle=1;fillColor=#647687;fontColor=#ffffff;strokeColor=#314354;" parent="akwmaDAdcuWCsk3jGBrk-1" vertex="1">
          <mxGeometry x="1382.73" y="316" width="120" height="30" as="geometry" />
        </mxCell>
        <mxCell id="q0XRxBFANma4I5ZSVUxv-19" value="Inference Pool" style="text;html=1;align=left;verticalAlign=middle;whiteSpace=wrap;rounded=0;fontStyle=1;spacingLeft=5;fontColor=#FFFFFF;fontSize=12;" parent="akwmaDAdcuWCsk3jGBrk-1" vertex="1">
          <mxGeometry x="1217.65" y="690" width="114" height="30" as="geometry" />
        </mxCell>
        <mxCell id="q0XRxBFANma4I5ZSVUxv-20" value="Envoy AI Gateway" style="text;html=1;align=left;verticalAlign=middle;whiteSpace=wrap;rounded=0;fontStyle=1;spacingLeft=5;fontColor=#FFFFFF;" parent="akwmaDAdcuWCsk3jGBrk-1" vertex="1">
          <mxGeometry x="1217.65" y="425.4000000000001" width="126.36" height="30" as="geometry" />
        </mxCell>
        <mxCell id="q0XRxBFANma4I5ZSVUxv-26" value="" style="shape=image;verticalLabelPosition=bottom;labelBackgroundColor=default;verticalAlign=top;aspect=fixed;imageAspect=0;image=data:image/png,iVBORw0KGgoAAAANSUhEUgAAAfQAAAH0CAYAAADL1t+KAAAACXBIWXMAAA7EAAAOxAGVKw4bAAAEvGlUWHRYTUw6Y29tLmFkb2JlLnhtcAAAAAAAPD94cGFja2V0IGJlZ2luPSfvu78nIGlkPSdXNU0wTXBDZWhpSHpyZVN6TlRjemtjOWQnPz4KPHg6eG1wbWV0YSB4bWxuczp4PSdhZG9iZTpuczptZXRhLyc+CjxyZGY6UkRGIHhtbG5zOnJkZj0naHR0cDovL3d3dy53My5vcmcvMTk5OS8wMi8yMi1yZGYtc3ludGF4LW5zIyc+CgogPHJkZjpEZXNjcmlwdGlvbiByZGY6YWJvdXQ9JycKICB4bWxuczpBdHRyaWI9J2h0dHA6Ly9ucy5hdHRyaWJ1dGlvbi5jb20vYWRzLzEuMC8nPgogIDxBdHRyaWI6QWRzPgogICA8cmRmOlNlcT4KICAgIDxyZGY6bGkgcmRmOnBhcnNlVHlwZT0nUmVzb3VyY2UnPgogICAgIDxBdHRyaWI6Q3JlYXRlZD4yMDI1LTA3LTA5PC9BdHRyaWI6Q3JlYXRlZD4KICAgICA8QXR0cmliOkV4dElkPjI5ODExZTlmLWJiOTctNGRmYS04OGJkLWFjNmM0MjdiZGI4NTwvQXR0cmliOkV4dElkPgogICAgIDxBdHRyaWI6RmJJZD41MjUyNjU5MTQxNzk1ODA8L0F0dHJpYjpGYklkPgogICAgIDxBdHRyaWI6VG91Y2hUeXBlPjI8L0F0dHJpYjpUb3VjaFR5cGU+CiAgICA8L3JkZjpsaT4KICAgPC9yZGY6U2VxPgogIDwvQXR0cmliOkFkcz4KIDwvcmRmOkRlc2NyaXB0aW9uPgoKIDxyZGY6RGVzY3JpcHRpb24gcmRmOmFib3V0PScnCiAgeG1sbnM6ZGM9J2h0dHA6Ly9wdXJsLm9yZy9kYy9lbGVtZW50cy8xLjEvJz4KICA8ZGM6dGl0bGU+CiAgIDxyZGY6QWx0PgogICAgPHJkZjpsaSB4bWw6bGFuZz0neC1kZWZhdWx0Jz5BSSAtIDE8L3JkZjpsaT4KICAgPC9yZGY6QWx0PgogIDwvZGM6dGl0bGU+CiA8L3JkZjpEZXNjcmlwdGlvbj4KCiA8cmRmOkRlc2NyaXB0aW9uIHJkZjphYm91dD0nJwogIHhtbG5zOnBkZj0naHR0cDovL25zLmFkb2JlLmNvbS9wZGYvMS4zLyc+CiAgPHBkZjpBdXRob3I+RXJpY2EgU3VuZGJlcmc8L3BkZjpBdXRob3I+CiA8L3JkZjpEZXNjcmlwdGlvbj4KCiA8cmRmOkRlc2NyaXB0aW9uIHJkZjphYm91dD0nJwogIHhtbG5zOnhtcD0naHR0cDovL25zLmFkb2JlLmNvbS94YXAvMS4wLyc+CiAgPHhtcDpDcmVhdG9yVG9vbD5DYW52YSAoUmVuZGVyZXIpIGRvYz1EQUdzcjgwSUpNOCB1c2VyPVVBRGp6WUhPdXIwIGJyYW5kPUVyaWNhIFN1bmRiZXJn4oCZcyB0ZWFtIHRlbXBsYXRlPTwveG1wOkNyZWF0b3JUb29sPgogPC9yZGY6RGVzY3JpcHRpb24+CjwvcmRmOlJERj4KPC94OnhtcG1ldGE+Cjw/eHBhY2tldCBlbmQ9J3InPz4jvt56AABm4UlEQVR4nOzdeXgW5b3G8W8SEkK2NyQQRXEfjnihRUUFh11ate6iUFC7WNuqVTvuimIXi6C1LlO1ao/Hc9qDgoAgCooLalBGUFGohWIZrQKChhDyZk8gyflj9FxtqUDI8szMe3+uy/+8wi0mc+eZ9/k9TxoiIiISeWmmA4iIiEj7qdBFRERiQIUuIiISAyp0ERGRGFChi4iIxIAKXUREJAZU6CIiIjGgQhcREYkBFbpIjDi2nw0cA5QABf/wD0DVl/8kgS2uZ71lJKSIdAoVukiEObbfCzgJGAacCBzXxi/xNuABbwKvup61rWMTikhXUaGLRIxj+8cBpwGnAyd08Jf3gIXAQtezVnXw1xaRTqRCF4kIx/ZPA+4CjuyiP3IlcLXrWaVd9OeJSDuo0EVCzrH9I4EHgZGGIiwCbnA96y+G/nwR2QMqdJGQcmy/BLgb+J7pLF/6H+Am17PKTAcRkZ2lmw4gIjtzbP9GwCc8ZQ7wA8D/MpuIhIxW6CIh4tj+mcC9gGU6y26sA651PWuB6SAiElChi4SAY/v9gIeBMaaztNFi4HLXs9aZDiKS6lToIgY5tp8P/Aq4xnSWdroX+KXrWdWmg4ikKhW6iCGO7f8ImAr0Np2lg5QBt7qe9ZjpICKpSIUu0sUc2x8MPAoMNJ2lk6wCLnU9a7npICKpRIUu0kUc2+8D3ANMNJ2lizwJXO961mbTQURSgcbWRLqAY/uTCcbQUqXMAS4A1jm2f6vpICKpQCt0kU7k2P5YglX5wYajmPZ34DrXs+aZDiISVyp0kU7g2H5/4BHMHdcaVqXAZa5nrTUdRCRuVOgiHcix/QQwBbjSdJaQexCY7HpW0nQQkbjQZ+giHcSx/Z8CH6Ey3xNXAh85tn+56SAicaEVukg7ObY/lGAMbYDpLBG1mmDMbanpICJRpkIX2UuO7fcF7gPON50lJmYTnA+/0XQQkShSoYu0kWP72cAk4EYg23CcuKkHfgPc6XpWg+kwIlGiQhdpA8f2JxAUzgGms8TcBuAG17OeMh1EJCpU6CJ7wLH9AQSfkw81nSXFLCX4fH216SAiYadCF9kFx/aLgGnAT0xnSXGPAre4nlVhOohIWGlsTeRrOLbvEIyhqczNu5RgzO1npoOIhJVW6CL/wrH9McDDQD/TWeTfWktw2lyp6SAiYaJCF/mSY/uHEoyhnWU6i+yR+YDjetanpoOIhIEKXVKeY/u5wGTgZtNZZK9MA6a4nlVnOoiISSp0SWmO7X8XuAvoYzqLtMsm4CbXs6abDiJiigpdUpJj+4MIdk4PMp1FOtRygjG3VaaDiHQ1FbqkFMf2SwhW5D8wHEU61+MEK/Zy00FEuorG1iRlOLZ/A+CjMk8FPyQYc7vedBCRrqIVusSeY/unE+xe1xhaaloHXO561mLTQUQ6kwpdYsux/X4E8+RjTGeRUHgeuMr1rI9NBxHpDCp0iR3H9vOBXwDXmc4iofRb4HbXs6pNBxHpSCp0iRXH9i8BpgIlprNIqH0BTHI9679NBxHpKCp0iQXH9gcTjKENNJ1FImUVwZjbctNBRNpLhS6R5th+H+Bu4ELTWSTSpgM3up612XQQkb2lsTWJLMf2byHYwawyl/a6CPibY/uTTAcR2VtaoUvkOLZ/LnAPcIjpLBJLHwPXup4133QQkbZQoUtkOLbfH3gEGGk6i6SEUoJrWteaDiKyJ1ToEnqO7SeAXwNXmc4iKel3wM9dz0qaDiKyKyp0CTXH9i8DpgDFprNISisHJrue9ajpICJfR4UuoeTY/lCCMbQBprOI/IPVBGNuS00HEflXKnQJFcf2+wL3AuNMZxHZhaeA613P2mg6iMhXVOgSCo7tZwM3AzcCPQzHEdkTdQRX8f7G9awG02FEVOhinGP74wkOhznQdBaRvfApcIPrWbNNB5HUpkIXYxzbH0DwOflQ01lEOsBSgs/XV5sOIqlJhS5dzrH9IuAO4DLTWUQ6wcMEO+IrTAeR1KKjX6VLObb/M8BHZS7xdTngO7Z/pekgklq0Qpcu4dj+SIJT3vqbziLShdYSnDZXajqIxJ8KXTqVY/sHAfcD55jOImLQXILz4T81HUTiS4UuncKx/RzgVuAW01lEQqKB4FKhqa5n1ZkOI/GjQpcO59j+RQTzufuZziISQp8R3L3+pOkgEi8qdOkwju0PJBhDG2w6i0gELCcYc1tlOojEgwpd2s2x/V4EK/Ifms4iEkGPAZNczyo3HUSiTWNr0i6O7V8HfITKXGRv/YhgzO0a00Ek2rRCl73i2P4YggM0+pnOIhIj64DLXc9abDqIRI8KXdrEsf1DgQeA00xnEYmxBYDjetbHpoNIdKjQZY84tp8L/BK43nAUkVTyG+B217NqTQeR8FOhy245tn8xMA3Yx3QWkRT0OXCz61l/NB1Ewk2FLl/Lsf1BBGNog0xnERFWEIy5rTAdRMJJhS47cWy/D8EY2ndNZxGRnfyJ4P71MtNBJFw0tib/xLH9ScDfUJmLhNX3CMbcbjIdRMJFK3QBwLH9swnOmT7MdBYR2WM+waUvz5kOIuap0FOcY/v9Ca41HWk6i4jstcUE8+vrTAcRc1ToKcqx/QTwK8AxnUVEOsx9wC9cz6o2HUS6ngo9BTm2fykwBehlOouIdLgtwK2uZ/2n6SDStVToKcSx/aEEY2gDTGcRkU63imDMbbnpINI1VOgpwLH9vsBvge+YziIiXW4GcJ3rWZtNB5HOpUKPMcf2s4EbgZuAHMNxRMScOmCa61lTTAeRzqNCjynH9s8nWJUfZDqLiITGJwSr9bmmg0jHU6HHjGP7Awg+Jx9qOouIhFYpcJnrWWtNB5GOo0KPCcf2iwh2rl9uOouIRMZDBDvik6aDSPvp6NcYcGz/SoITo1TmItIWVwAfO7b/U9NBpP20Qo8wx/ZHEpzy1t90FhGJvNUEY25LTQeRvaNCjyDH9g8C7gXGms4iIrEzB7jG9ayNpoNI26jQI8Sx/RzgFuA6INtwHBGJrwbgNwSjbg2mw8ieUaFHhGP7FxD8gO1vOouIpIwNwI2uZ800HUR2T4Ueco7tDyQYQxtsOouIpKylBJ+vrzYdRL6eCj2kHNvvBUwDfmQ6i4jIl/5AMOZWbjqI7ExjayHk2P61BGNoKnMRCZOfAOsc29e1yyGkFXqIOLY/BngY6Gc6i4jIbqwDLnc9a7HpIBJQoYeAY/uHAi5whuksIiJt9CzBmNvHpoOkOhW6QY7t5wI/J7gRTUQkyu4EprieVWs6SKpSoRvi2P73CX4A9jWdRUSkg2wGbnI9639NB0lFKvQu5tj+IIIxtEGms4iIdJIVBGNuK0wHSSUq9C7i2H4JcDfwPdNZRES6yH8DN7ueVWY6SCpQoXcBx/ZvAiYDeaaziERVUZ9uFBR3o66qmbL1203HkT1XDfza9ay7TQeJOxV6J3Js/0yCS1Qs01lEoqR7TjonfDufY8bkUbx/NxK9uu3073zxSROfrmnkr2/V8Zc3a9ne1GogqbTBOoLd8AtNB4krFXoncGy/H8E8+RjTWUSipHi/TEZNSDD49AKysvf88dTU0MK7L9aw+H8r2bpZq/eQW0wwv77OdJC4UaF3IMf284HbgatNZxGJkiOG5DBsbIIBQ3Pa/bWWLahi/gNbqa9p6YBk0onuAX7lela16SBxoULvII7t/xi4A+htOotIFGR2T2Pw6QUMPz/BPgdldujXrk028+xDW1m+UF0RcmXAJNezHjcdJA5U6O3k2P5ggjG0gaaziERB0b7dGDEuwZAzCsjO69zrJP7+QQMzppZpE134rSIYc1tuOkiUqdD3kmP7fQheGU00nUUkCvoN6sHI8QkG2LmkdeG1UM07Wnn1yUpefHwbO7Zr41zIPQHc4HrWZtNBokiFvhcc278NuBlo/wd+IjGWmZXGcafmM2Jcgj6HZhnNUrF5BzOmlbFuRb3RHLJbtcBU17Ommg4SNSr0NnBs/zzgt8DBhqOIhFqiVzdGjE9w4pkF5BSE65bm91+tYd795VRtbTYdRXbtY+A617OeMR0kKlToe8Cx/f7AI8BI01lEwuywo3swYlyCo0bkkh6uHv8nDbUtLHy0gjfnJmnVW/iwKwUucz1rrekgYadC3wXH9hMEO9evMJ1FJKy6ZaYx6OQ8RoxLsH+/7qbjtMnGDxt5cmoZm/wm01Fk9x4AbnM9K2k6SFip0L+GY/tXEMyUF5nOIhJGBcUZDD8vwYlnF5BXmGE6zl5raYE35iR5/g8VNNZrdj3kyglK/RHTQcJIhf4vHNsfCTwEDDCdRSSMDj4ymxHjEhw9Opf0jPg8QpJbdvD0feX8uVTXeUfAaoIxt6Wmg4RJfH4a28mx/YMIxtDOM51FJGwyuqVxzJg8Ro5PcED/aL1Wb6u1y+uYeecWKst2mI4iuzeLYOPcRtNBwiDlC92x/RyCEbQbgGzDcURCJa9nBsPGJhh6TgH5RdF9rd5WTQ2tvPh4Ba/NqKRFb+HDrh64C7jL9awG02FMSulCd2x/AsEd5X1NZxEJk/37dWf0xATHnJRHRmbqPiY+/6SJJ+8oY/2aRtNRZPfWExxKM8t0EFNS8ifVsf2BBMe1DjadRSQs0jPSOHp0LiPGJTj4SL2s+kprKyxfUMX8B3XhS0QsJfh8fbXpIF0tpQrdsf1ewFTgx6aziIRFTkE6Q89NMOzcAhK9d753XAI1lc3Mf2Ar7yzShS8R8Qhwq+tZFaaDdJWUKXTH9q8GfgEUms4iEgZ9Dsti1HcKGXRyHt1S+LV6W320sp4ZU7dQ/pkufImAbcAvXM96wHSQrhD7n2LH9scADwP9TGcRMS09HY4akcvI8YUcOlCv1fdW8/ZWXpleyct/1IUvEbGW4LS5UtNBOlNsC/3L1+sPABNMZxExrUdeOvY5BQwbm6DnPnqt3lEqNu/giSllfLRSF75ExAzgyri+ho9loTu2PxH4HdDLdBYRk0oOzGT0xEKOOyWfzO6x/HEPhRUv1TDPLaemUhe+RMAWglKP3W74WP2EO7afT3Cf7pmms4iYkpYGRw4Ldqv3G9TDdJyUUV/TwoKHt+LNr9KFL9EwD/i+61mx2eUYm0J3bL8vsAgd2SopKjs3nSFnFjD8/AKK+2SajpOyNn7YyPTby/j8E134EgGrgW+6nvW56SAdIRaF7tj+AOAVYF/TWUS6Wu8DMhk5PsEJp+WTlR3iO0tTSEtzK6WzkrzwWAVNDVquh9xGglL/0HSQ9op8oTu2PwR4GcgznUWkq6SlwRFDchgxPsHhx+eQFvmf5HiqLNvB0/eW88EbuvAl5KqA0a5nvWc6SHtE+jHg2P7BwHtAT8NRRLpEVnY6Q87IZ/j5CXofoNfqUbF2eR0zpm4hWa4LX0Lsc+CYKL9+j2yhO7ZfALyL5sslBRTvF7xWH3x6Pt1z9Fo9ipoaWnjhsW2UPqULX0Lsz8AQ17MiOYcY5YHUZ1GZS8z1H5zD0HMLOGp4rukoofLOC9UcfkIOBcXRuQEuKzuds68sZsgZ+cyYuoVPVqf0xWBh9Q2CK1kjOSkVyRW6Y/u/JDjGVSR2MrunccJp+Yw4P8E+B2eZjhMaVVubWTovyZtzq6hNNpOVncZpPylixLhC0iP20qK1Fbz5VTz3+6001Gq5HkLXu551j+kQbRW5Qv/yprSVpnOIdLTCkm6MHJ9gyJkF9MiLWEN1ovVrGimdXcnKV2tp3rHzjvH9rCwuuKWEvod3N5CufaormnnmgXJWvFRjOorsrJ/rWb7pEG0RxUJfAxxhOodIR+l3bA9GjEtw5LBc0tTjADTvaGXVa7WUzkry6Zrdv5pOS4OhYxOccWkR2bnR+0v8aGU9T0wpo2KzNs2FyNuuZ0Xqiu1IFbpj+5OBX5vOIdJemVlpDDoln5HjEvQ5TK/Vv1JT2Yz3TBVvzk1StbXtx6gWFGdw7tW9OOak6E2x7tjeyst/3MYr0ytp1oUvYXGF61m/Nx1iT0Wm0B3bLwQ2ATrLUiIr0asbI8YlOPGsAnIKoreS7Cwb/9bIktlJVrxc0yFl1m9QDy6cXEJhSfT2/ZZ/tp0ZU7fowpdwKAcOjMqu9ygV+lRgkukcInvj0IHZjByX4KiReZHbwNVZWlrgg9IaSmcn+XhVx+/4zsxK45Qf9mT0xEIyukXmUff/3llUzTO/20ptUhe+GBaZDXKR+C7/cnW+AZ0GJxGSkZnGoG/lMWJcgr7/Eb0NW52lrqqFt56tYsnsZJcctFJyYCYTbynhkKOid/97XXULz/1+K8ue04UvBkVmlR6VQr8duM10DpE9UVCcwbCxCexzCsgrjM6cdGfb/HETS2YneXdRNdubur6dhpxRwFlXFEfyo471axp58g5d+GKQ43rW70yH2J2oFPrnwD6mc4jsysEDshkxLsHA0bmRfMXbGVpbYLUX7FZft8L8Aic3kcE5VxVz/LfzTUdps5bmVl6bmWTRYxVGfiFKcStdzzrGdIjdCf1Tx7H94cAS0zlE/p2MbmkcfVIuI8cXcuAReq3+lYaaFpYtrGLJrCQVn4dvFOuQo7K58LYSeu0fvfPwK8t2MPPOLaxdXmc6Sqr5D9ez1pkOsStRKPQHgStM5xD5R7mJDIafV4B9TiJSx492trL121kyJ8nbC6tpagj3CWgZmWl886JCvvX9nnTLDP2jcCd/Lq1lzj1b9mq8T/bKz13PCvXYdOi/ix3br0C3qUlI7N+vO6MmJDh2TB4ZESyBztDaGtwmtmR2kr8ui96qsahPNy6cXMJhR0dvIraxroXn/7OCJXOStIb796c4+IvrWUeZDrEroX4iObZ/DMH1qCLGpGekMXBULiPGJSK5U7qzNNa38Pbz1bw+M8nWTdtNx2m3QSfnce7PepHXM3pvXDb5TTw5tYyNHzaajhJ3+7qe9YXpEF8n7KcuHGc6gKSunIJ0hp6TYNjYAhK9w/6j0nXKP9vOG08nWfZcNY118VkWrniphtVL6zjrp8WceHYBaaFe7vyz/awsrnusL0vnJXnu4Qoa6+Pz/yVkBgHPmw7xdcL+lBpkOoCknn0PzmL0xEKOPTmPzKwIPdU72d/erad0VpI1Xm1sZ6IbaluYdfcWli2s4oJbS9g3QrfdpaXDsPMSfGNUHvPuL+f9V3XhSycIdaGH+mnl2P67qNSlC6Slw1HDcxk5PhHJz1I7S1NDK+++WM3rMyspWx/91+ptkZ4OoyYUcuolRWRlh/pR+W+tW1HPjGm68KWDzXc96xzTIb5OqL9LHduP6TpAwqJHXjr22QUMHZugaN+wv7DqOtu+2MGbTyfx5ldRX5Par28LS7ox4ebe9B+cYzpKm21vbOWl/9nG4icqaWnW47QDfOJ61iGmQ3yd0Ba6Y/vdgNRaEkiXKTkwk1ETCjnulPxIrr46y0cr61kyO8kHS2ppSe0e38k3RuZy3jW9Irmfomz9dmZMLePvH3T8mfmpxvWs0D4wQhvMsf1swPzRUhIrA4bmMGpCIf2O1Wv1f/TOompen1HJZ76OFt2V7jnpnHlZEcPOS5iOslfefbGaea4ufGmnbq5nhfIvMMyFngdUm84h8dBvUA/Ov7YX+0Rok1Nnq65oZsmcJEvnJamr0nK8Lfazspg4qYQD+kfvdMCGmhaeeWAryxZUmY4SVT1czwrlq44wF3ohsM10Dom+Uy8p4tQf6myir3y6piG4e/wl7YJur5HfSXD6T4rIyo7ehS8fr2pg5p1lKbfZsQMUuJ4VysVmmAu9J1BhOodE28k/6MlpPy4yHSMUVrxUw+tPVbJhrQ4f6UgFxRmcd00vBo6O5u3OL/9pGwsf1aO2DYpczwrlYlOFLrF11IhcLpm2r+kYRlVXNOPNr+KNp5PUbAvlx36x0W9QDy6cXEJhSfQ2zVVs3sGMaWWhuBEvAlTobaVCl/bIL8pg8qwD6d4jeq9CO8KGDxtZMjvJe6/U0Lxd40pdJTMrjVMvKWLUhEQkr9B9/9Ua5t1frgtfdi20hR69XyVF9sDplxalZJm/90oNbzyd5O9/DuWendjb3tTKcw9v5Z0XqvnOzb0jd/b/MSflccTgHF74rwpKn0qajiNtFNpfIbVCl72VlZ3GHc8fQmb30H57d6jaZDNvPVvNG08nSW7RqWBhMuSMAs66spic/Oj9crnhw0ZmTtvCZ+u05+JfaIUu0lUOPCI7Jcp8k9/EktlJ3n2xmh16rR5KyxZU8cEbtZzrFHPcKfmm47TJAYd357rH+/LGnCTP/0EXvkSBCl1ip8+h8Z41X/lqDUvnVbHuPW1gioLaZDPTby9j+YJqJkzqTfF+maYj7bH0dBg5PsGx38xjzr3lrHpNo45hpkKX2Inj6ry+poVlz1VROitJZZleq0fRuvfqmXrBBr71vZ5887uFdMuMzvdpflEGF0/Zh7XL85l55xZ9D4aUCl1iJ05Xe5Zv3M5rMyt5+/lqtjfG6D8sRTVvb2XRf1Ww4qVqxt/YO3JHEPcfnMMv5x3EwkcrePlPofwYOaWp0CV2on6rVGsr/PWtOpbMTrL27TrTcaQTbNmwnYeu2sTxp+Zz9lXF5BVmmI7UJqdfWsTx385n+q+/YP0abZoLCxW6xE5UN4g11rWwfGE1pbOSbN2k4zhTwTuLqvnLm7WcdUUxQ84sIC06b+EpOTCTa/7Ql+ULqpj/4NaUv2Y3DFToEjvNEevC8o3bWTInyfKF1TTW6aGYauprWnjqri289VwVF922DyUHRmfTXFoaDDmzgCOH5zL/wWD+XsxRoUvsNO+Ixgr9w3fqKZ1VyV/fqovV5/6yd9avaeTOizYwemKCUy4uIis7Osv1vMIMLpxcwpAz8pkxdQvln0Xst+qYUKFL7OxoCm87NjW08M6iGl6fWcmWDXroyT9raW5l8fRKVrxUw4WTS+g3KFqb5g47ugeTnjiAV6ZX8vIft0X246+oUqFL7OwI4Qq9YvMO3pybxJtfRUOtXqvLrlWW7eChn21i4Og8xl5dTKJXdB7VGZlpnHJxT44/NZ8nppTx0Uqdl9BVovNdIrKHwnQZif9+PUtmJ/ngjVpa1ePSRqteq2HtsjpOv6yI4WMTpEXoBNmiPt246qH9eO/lGubeX05NpS586WwqdIkd0yv07U2trHipmtdnJPn8kyajWST6GutbmHtfOcu+3DS3nxWtkxCP/VYeR5yYw4KHt+LNr9J+kU6kQpfYMbXLvbJsB2/OrcKbn6SuSstx6Vib/CbuvngDI85PcNqPi+ieE53leo+8dMbd0JsTzypg+u1l+kW3k6jQJXZMbIqbe185S+bouknpXK0tUDoryfuLazjv2t4MHJVrOlKb9D28Ozc/cQCvzajkhccqaGrQcr0j/R8AAAD//+ydd2BUVd7+n6lp0zKTTEJCEhBZEQUpQqihg5QAAoEExIqsygb7KgHslHVXFsXs8vKzLxB6V0AUJBSD1AUX4UUEE0IgpM1k0mYyM78/svEFTLmTuffcc+eez3/vu3LnZOae85xvl84Vj8HgiFuETnHnj7HEHwY57MVufDr3Gpa/UCDJvuqD0kzIyIpHp/7SupDQDhN0RsAhRlKcmvm6GCJw7kglFkzJxd7VZZJreWyyqvHE4mg8taSVpLL4aYYJOiPgEKP2VSWhyVmMwMLl9GJbZjHeffiKJPuqd0gMxdy1cRiYapJUFj+NsK+PEXCIYaEzQWeIzbXLTvx95hWs++sNyfVV1wYrMT7dgqeXxEgq2Y822DfHCDhEsdBVTNAZ4uP1Aoe32LEgNRfHdkuvr/ofeoTgT8tixF6GZGGCzgg4xBB0tQ8WujlajeSnLRj2SLiAK2LIGUepGyvfKkRm+lXJTe6L6xCER96KEnsZkoQJOiPgcIuQ9MvV5d5lsA6vbUzAkIdMGD3TjFdXxqFtp2CBV8eQKxdOVGHR1Dzs/rSUqg6KzdF1iA69xhjEXobkYILOCDjEGEGq4pikGxx265aLbqvF7H/GYsorkQjRse3I4J9alxc7PyrB4ul5+PmkdMorJzxvgcGiEnsZkoKdIAwGD3B1uXsaaEurUAC9xxowd208ejyg53tpDAYA4EaeCx/+6SpWvV2IChv9fdW1wUqMnGEWexmSggk6IyAhXZPLVdCb6jOvM6kwbb4V6ZkxiIjV8LU0BuMWju4qxzuTc5Gzg/6+6j1H6VnWuw+wb4oRkJBOjOMaQ+cS36+fKT1yhtmnZDsGgytVDg/WLLqBZc/k40YevUlzKrUCnQewbnJcYYLOCEhqCZ9RXIWXa2JS/UzpjKx4tO8e4s/SGIxG+eV0NRZNy8OO5SVw1dBprnfoGSr2EiQDE3RGQEI6o5e7he7busyt1Jj1QQwefjMKOhNLEGLwj8ftxTf/KsWC1FxcOE5f0lxse2mNixUTJugMSaALV2HkDO4jI30VTn/hmuXe0lBAt6E6zFsbj34TjS369wxGc5QV1iJz9lV8Nv867MX0JM2ZrKzPO1eYoDOoJrZ9EKa/HoU3tyRgxGPh0ARxTD4jbKFzdrn7cdEI1ikx6YUIvPRJa8TcyawWhjCc2uvAgim5OLjRBi8FHWRvL/VkNA67+jCoQ6lSoMvgMCSlGNHmnlubrvAdq+YL7mVr/n9W67uC8NKnccheX4avVrCZ0gz+qanyYMOSIuR8WY6pGVbRL5BqjUKUDpBSgwk6gxpCDUr0m2BE3wcNjY5TVKm5lofxubLm4RpDb6pszReUSmDgFBO6DNJh09IinN5fwctzGYybuXK+Bn99LA8DUkwY+WQ4gkLEsZZVTNA5wQSdITqt2mkxKNWEbsN0zVq6ao7l2cST4jheNPhel8mqxuMLo3HuSCXWLL6BskIR+t4yAhqvB/hubRlOfuvApBcj0CmJfBmZWqOA9AbDkocJOkMUlEqgU1KdW71dF+5lWZwtYUpd7kIl63VIDEVGVjx2f1KCfVll8FAQ+2QEFraiWnw85xoSR+uRlmEl+tlck07lDvuaGEQJ0SnRZ5wB/SYaER7l++snliXcHCrOngPh1qANViD5GQt6jNJj9YJC5J5lNg2Dfy6dqSb+mVz3vdxhgs4ggjVeg4GpJtw/Qg9tcMs3J+cWq7Ra6ARa0ka30eL5Fa2Rs92ObZnFqHIwc53BH0JeShuDq2dO7jBBZwiGQgF07BOGAZON+MP9/HQ742yhk65Dp+yiUT/wpVNSGLYuK8bRXeVEPpcR+PCV2OkLamahc4IJOoN3gkKV6JWsR/+JRt6HjFBbtkZpKKB+4EuvZD2yFt5AUT69fbsZ0kCMuerMQucGE3QGb1hiNBiYaqybkCRQeQvXWDXpXu58DmcRgvqBL9+sLMOez0tZCRCjxYhhoXPd93KHCTrDbzokhmLAZCM6JIZCIfBFmlaXO2cLXYTDsJ76gS89HtAja1EhlX27GfQjhoXOXO7cYILOaBGaIAUSRxvQf5IRUQnkrs+0JsVxznIXUdDrqR/4cmKPA5uWFsFRRk/fbgb9MJc7vTBBZ/iEyarGwClGJI4xIERHvmuUUFPN/MWXA8dd66WiDKfbMB069g7F9uXFOLzFDq/4dw2GBBCjxwHXi7zcYYLO4ET7biFImmzEvX3DoBBxVgKtdei+uARpEXSgbuBLykuR6J1swOqFhbj6s1PsJTEkgKvGy3lQEh/Qsl9ohwk6o1E0WgW6j9BjQIoRrdrRMd2LXpe7L4Iu4EJaCBv4wvAFt4uwoDMLnRNM0Bm/wxipRtIkI3ol6xFmVIm9nFvgPndc2HXcji8uQUepW5RwRXPUD3zpOliHDUuKcCabDXxhNAzpTHeuMxzkDhN0xm+07RyMASlGdB4QBqWKzhsxrXXovrgEl8y4gvHpEeg5Wi94VUBLMEaq8cQiNvCF0TjE9xel5xFtMEGXOSqNAt2G6pCUYkTcXUFiL6dZaE2KU2u5HzhVDg+yFhUiZ4cdaRlWWOPpND/YwBdGY5C20JnLnRtM0GWKLlyF/hON6DPOAL2ZLrd6U3Ceh07cQvf931w6U43FD+VhyDQThj8aTjQmyRU28IXREKT7uTNB5wYTdJkR2z4Ig6ea0GVQmCQ3Ca0u95aW1XjcXuz5ohTH95QjbY4V7bvz0/Oeb9jAF8bN0FxFImeYoMsApUqBLoPqZo+3uTdY7OX4BefWrxJzCZYU1CJz9lV0HazDg89FwGChz2vCBr4w6iG/v4h+nGRhgh7AaLQKJKUYMTDVJCm3elNwH4Ii8EJug6/GFyf3OnD2+0okP2NGvwlGXp7JN/UDXxLH6LFmERv4Ikek4gGTG/TVzjB44d5+YZi7Nh7Jz1gCRswB+saU3gxflQE1VR5seK8IS2ZcQcFFehu93Nk1BPPWxWPUk2axl8IgDPkcFSboXGCCHoCMnmnGjL9Ew2QNPAcM5yx3MQZI8OwWzP2pBu8+moctHxSjporemPXwR8Px2oYEtOtCZ/yfwT80N26SM0zQA4xeyQYMeyRc7GUIBleXuxgWuhBWhNcDfLe2DAtT86hu9GJupUZ6ZgwefiMKOlPgeIQYDUM8pMUsdE4wQQ8gDBYVJjwXIfYyBOPS6Wp8v93O6b8VY6qZkFaEragWH8+5hhUvF8BeTO90tG7DdJi3Nh79JtIZ/2fwA/nhR0Q/TrIEnk9Wxgx/NBza4MC7yR7dWY69WWU+xZPFsNBJJO6cPVyJdyb/ipEzzBiUZhL881pCsE6JSS9EoOcDeqz5Cxv4EoiwGDqdMEEPELTBCvQcpRd7GbzhKHPj8BY7Dm6ytcgiJe0SBMhl4jqrvdj6YTF++KocqXMikdCRzlLE+I5B+PPncdiXVYadH7GBL4EE8davLIbOCSboAUL83cHQBks/glJw0Ynv1pXh+G6HX1ZAoLncG6LgFyeWzsxHn3EGjHnaQuXAFwAYlGZC1yE6bFpahNP76c0DYHCHeGtlZqFzggl6gBAZJ+0g0+n9FTiw0YYLx6t4eZ4oLncRdpPXCxzaYsfp7AqM+5MF94+g00tjsqrx+MJo/OdQJdb/jQ18kTosy51OmKAHCEoJJhY7q73I2W7Hd2vKUHKN3wNeDhb6zZSXuLHyrUIc3VmOKa9aYY6mc2vf0zcU9/RNwLbMYuxdXSb2chgthHzjJrKfJ1Xo3PUMn3FLyOApKahF9gYbvt9mR02lMPXVtU55CXo9549WYWFqLoY9Eo6hD5moWFNDjJ1lQc/RbOCLVGFJcXTCBD1AEMMi9ZWLp6qwf50NZw5UwCtwnxQxvg9a4ny1Li92flSCozvLMW2+FW070Zk0xwa+SBfmcqcTJugBghid0bjgdnlx4huHz2Vn/iJKYxnKDp2ifBfefyofPUfqMS7dgjAjfXEZNvBFmrCkODphgh4giCFgTeEodePQFjsObLTBUUq+EYoYZWu0ugV/2FmOMwcqMD49Aj1H66GgcJn1A196JeuRtZANfKEdVrZGJ0zQAwRaYuj5PzuRva4Mx752iOo1ID3eEaA7cafK4UHWokLk7LAjLcMKazydi23XJQRzVsXhm5Vl2PN5KXUXVUYdUhtPLBeYoAcIYsbQvR7gP4crsH+tDRdO8FN25i9iXCakcOhcOlONxQ/lYcg0E4Y/Gg5NEH1rVmkUGPFYOHo8oMeqdwpx8RQd7xTj/yDfy53s50kV9jUFCGIIWE2lB0e+LBek7IwP3LVeom5wqcxs9ri92PNFKY7vKUfaHCvad6dzSlr9wJcTexzYtLQIjjJ6e9jLDZblTidM0AMEki6w4gIXstfbkLO9XLCyMz5ggt40JQW1yJx9FV0H6/DgcxEwWOhLmgPqBr507B2K7cuLcXiLHV7mhRcd8sNZpLW3xIIJeoBAou762mUndvyzBD8elEb7zlonoCVYsSVVK+LkXgd+OlKJsbMs6DPOIPZyGiRYp0TKS5HoNcaArEVs4IvYEE+Kk+jeIg2dzZ8ZPuMhcGM+/V2FZMQcYLWyvlBd4cG6d2/gvcevIJ9isYzrUDfwZWAqnZPm5ALpvSU175dYMEEPEEhkuau10tpUxGtl6Uwc94m88zX46yN52LKsGK4aen3b49MtePiNKLGXIVvIX5aJfpxkYYIeIJCIoUvtlszcgi3nuzVleGdyLtXT0boN02H660zUxYD03mKNZbjBBD1AILHBpOZSJl0rK7ULT3PYimrxScY1LH+hALYi+qoYAKD7cB0SR9M5YS6QId33Qmpnj1gwQQ8QSLiXVRJLoWTdrPjh3JFKLJiSi31ZdE5HS37GgqBQdpSRRJTWysxKbxa2CwIEEhtMahuKdPMLqX0/vuCs9mLrh8X4y/Q8/Hq2Wuzl3ILOpMKoGWaxlyErRGncFMD7iy+YoAcILCnu9zCXO/8U/OLE0pn5WP/XG1RNR+s1Vg+NxN5PKcNaK9MJE/QAgUSDF5VKWgcm8cQdGQg6AHi9wKEtdixIzcWx3XRMRwsKUaJDr1CxlyEbWGtlOmGCzuCM1FxerLRGWBylbqx8qxCZ6VdRfFX86Wi0zn0PRNg0Qzphgh5AeNzCCpjkXO4sKY4IF05UYdHUPOz+tFTUCXtRCVrRPltusKQ4OmGCTjmhBu4/Ua3At2aW5d40cq6VrXV5sfOjEiyenoefT4ozHY3WXvSBiBiCzmLozcMEnVI69AzFE4uj8eS7rTj/G6Hbv/oSI467K0jAlXCD1cqS50aeCx/+6SpWv1OIChvZ6WhS8yBJGTHGNbP91TwSs7kCG41WgR6j9EhKMSK6TZ37MO98Ded/L3TmqS8batayurGX2/5RjOoKcbKhifeblrGFfjs/7CzHmQMVGJ8egZ6j9VAQ+GrkkpRIA6xsjU6YoFOAMUKNpMlG9B5rQKj+VqeJLyIh9CbzaS21XvQZb0DnAWHY+mExju4inw1NvrEM0Y+jniqHB1mLCpGzw460DCus8cJ+QUp2mhHDRWC64+2wC1vzsC0gInfcF4wBk03olBQGZSPBD6UPIiq0Rar0IURZvxZduArT5lvRK1mPrIU3UJRPLj2WdK0scwk2zKUz1ViYlovXNyUgPEq4I4d5SMji8aDRc0sImIXePEzQCaPSKNB9qA5Jk41o/Yfm48y+JIJ4BA5ZqoN88Rbc+n+36xKCOavi8O2qMnz9WSkRdzhLiqMLoXslsAsVWdwuL5Q+nAn+wiz05mGCTghduAr9JxrRd7wBunDupq4vt1KhRdJXl/vtqDQKDH80HPeP0CNrUSEuHBc2G5p04g4TlKah6f1k+I/b5YWGoKCzkFbzMEEXmNj2QRiUZkTXwboWHfi+3EqFtkh9WX9Th7e5lRqzPojByb0ObF5aBHuxMK6FWsJxPmZBNI3QFyx2oSIL8T4P7MLWLEzQBUCpUuC+gWFISjH63b3KJxEVumyN5wS9roN1uDsxFF+tKMGBTTZ4efbICl2XfztMUJpG6O5i7PsnCxN0+mCCziMhOiX6PmhEvwkGmKz8fLW+vMRUWegcLxfBYUpMeD4CvZINWL2wEFd8KNNrDtIud2ahN43gSZusqwZR2P6iDyboPGCN12DwVBO6D9fzHlPyJSlO6EYqvgi6r5eLmDu1ePGj1ji02YYd/1PCS+068bI1tpuahIQAqDUKUbqYyRHiHjBmoTcLO4JaiEIB3NM3DAMmG9G+e4hgn6P0YcKZ0AemLxZQS9yrCiXQb6IRnQfqsOWDIpz4xuH7Q26CjU+lCxJCq2KCTgzW54E+mKD7SFCoEr2S9UiaZIQlhswbptIoOG0eEgcZVwvIHzE1WFR4+M0o9B5rQNaiQpQUtMz1QP7AYYLeFCR+D7VGAf6CNoymYC53+mCCzhFLjAYDU43oOUqPoBCywTq1mpugkzgwuVpAfKylffcQZGTFY8/npfhmZZnPzyTe+pUdOE1CxEJnJxoxWFIcfbDXvxk69AxF0mQj7u4VSqQfdUOoNAA4lGyTGEbC1QLiy92t1igwcoYZPUbWdZq7eIp77Trp4SxAXYhE6DG2UoXEDG126JOD9XmgDyboDaAJUqDnyLohKVFtxJ+xzNXyI7HBuFpAfHsLImI1SM+MwfGvHdj8fhEcZc3XrpOuQwfqkhidZIeMSQYSOQ3s0CcH84DRBxP0mzBZ1UhKMaJX8u+HpIgJV6uDVAydC0JZx92H6+AodWPzB0Uc1iDWRChmoTcEkRg6s9CJQb6KhP22zcEEHdyGpIgJV6uDiIXOdS0Cbnau2a5iZDszC7FxSGW5M8hAumzNlxJeuSJbQVdpFOg+TIekFG5DUsSEq9VBJCmOq7dAwMsFZy+BCILO3IKNQ+bCKfhHMP4LqyKhD1kKerdhOiQ/bRF0lCOfcI1bk7gx0yCmNFwqGoMJeuMwl3tgQXw8sQ89OeSKNBSNR2b+rRU69g4Vexk+wXUmOpmkOPHj+VzXQCKr+naYFdE4JC6cLM5KDmah0weFEWPhePDZCMmJOQCotRQJOkeXppAlY5y/DzFc7rK7InOHphwPhv+Q3l/M+9U8shH0u3uFYsBko9jLaBFcXU2kOnFxQciSMc4hCDGy3Nmh0yg05Xgw/Ie4y51dlptFNl/RqJlmsZfgM85qL47tLse1S05O/z2ROl+OB2alXbhibK797cWw0JmgNw6J95NlQpODdEiL7a3mkYWgx96pRdxddGey30xxgQvZ62zI2VGOmkruU8dIbDCuFvrhrXZUlXsw4fkI6M0qftfA0eUuRtkaS8pqHFKtiRlkYI1l6EMWgm5uRf+13esFzh2pRPZ6G84dqYS3BXuFthjlyb0OnP2+EqNmmtF/kpG3Gn8aMu0bgwlK4xBpfMQuVMRgvdzpQxaCboyk98+sqfLg2C4H9q0pQ9EV/0xsMjFK3/77mioPNr9fhB++tCN1jhVxHfz3lHDPtPf7o3yGHTqNQ6K3PteKEIb/sKQ4+qBX6XiExu5v1y87cWCjHT98VQ5nNXe3elPQFEO/nfyfnVgy4wr6PmjEmD+aEaxr+Y9CU2/722Ex3MahKWmT4T/kh7MQ/ThJIgtBFyPbuSG8HuA/hyuQvcGG/z3KfWoYV2g/ML1e4OAmG07tdWDCcxHoNkzXoufQ1Ar3drjG9+UImdavgn8E478wlzt9yELQxYil3kxluQc52+04uNGGkmvC+R2l0rjDUebGF29cx6EtdqRlRCIi1rdT2Bcr2O3yEo1rs0OncUhcsFgMnRyks9yZ96V5ZCHoYmQ7A0DBRSeyN9hwbFc5XARGeZKYw82nOF48VYVF0/IwbLoJQx8O57xhfRHN2lqygs4OncZhw1kCC+Iud3ZZaxZZCDqJZJx6PB7gTHYFDmyw4eeT/LvVm4LM+FR+n+d2ebHrk1Ic2+1AWkYk2nUJafbf+LKx3S4AzT+SN9ih0zgkLDr2/ZODudzpQx6CTuDFq7C58f02Ow5ssMNWRPAGcRNS7sRVlO/CsllX0W2YDuPTI2CwNF677osVRvzQYRZioxCx0NmhTwyWFEcfshB0IQ+SK+drkL3BhhN7HKK59ush04lL2APzxB4Hzh6uxJinzOg73ghFA8nwvngJyDe/IPpxkoJM0qbgH8H4L6yxDH0wQW8h1Q4P/uflAlw6Xc37s1sKEZcmgU1VXeHBhveK8MPOcqS9akWrdtpb/ndtMPeSN9IJkfF3BxP9PClBpKySHfrEYC53+qCwQpt/hHANOWu8VIk5QNf4VD7IPVuDdx/Nw+b3i3xqgXszpN2CnQeE4bUNCZxyAeSGlENCjN/DernThzwEXYAXj8bJP0TKgghvKq8H2L/OhgWpufj3Psdv/3+um1uMMIi5lRrpmTF4+I0o6Ez89rGXMoH4fsoZ0t4vDevx0CzyEHQBDhIaDw4ywy8E/4gGsRe78em868icfRVlhbWc643FaC5TT7dhOsxbG4++DxqgoO91IQ5LigssxGjYRWPXT5qQxdcjxGxuriM8SSKHA/PC8SosmJKLmipuLnjSbsHbCdYpkfJSJF78uDVi7tQ2/w8CGDJla8J/BqMONvyIPmQh6G4BGq5oguh7sUjU29PgmfClSU+Vg58++f7S+q4gvPRpHMbPtkAbLP53KAYsKS6wECOcxX7fppGHoAv04tFmpQdaUhwf2IvF6QnQEEolMHCKCXPXxKNTUpjYyyEO7bMGGL4hioVO2ZlLG7IQdKFukrTVvLID8/dc/dkp9hJ+hzFSjScWReOpJa1gssrLRyz0pVNqF04pQ7IDZz1SO39IIwtBF+rFo+3wINEvXikx/blwnGz7XV/okBiKNzYnYOj0cLGXQgyhBZ0d+OQQx+VO/CMlhSwEXagXj8Z4jkfgkLHUDsxrl5349Sxd/QJuZ8xTZmRkxSO+Y5DYSxEcoScCSu3CKWVEEXTKjCjakIWgC+WKplHcmEvz9+zLsom9hGaxxmvw/IrWSJ0TiRBd4G5LocNCbHwqOcSIodN45tJE4J4cNyGYhU7h4SH4gSnBDXVqrwPXLtMXS78dhQLoNcaAeevi0eMBvdjLEQTBL5wSfD+lCstypw9ZCDogzKxw2pLiAGahN8aqtwrhpaOCrVnCjCpMm2/Fs8tjYY2n8CXzA6FFQIoXTikjxLnaFMwD0zSyEXQhYnc03haFPjBp/Ju5kHe+BhuW3BB7GT7RtlMwMrLikfy0Reyl8IbQHiSpXjilColE3JthORJNIxtBF8JypfHwELobF41eCa4c2mzHpqVFYi/DZ4Y8ZMJrGxPQITFU7KX4Ta3ApU4sC5ospEvXmAemaeQj6AJYBjS+XMzl3jTZ6234fP51uGrEnV3vK+ZoNZ5a0gqPvRMFg0W6A1+YhR5YCNFWuynY79s0shF0IVzRNL5crM63eU7udWBBai7OHKgQeyk+c98gHTKy4tF/olHspbQIwWPoFO7JQIZ4DD0Azh8hkY2gy2XiGouhc6OssBYfv3oNy18oQFkhPe1huRAcpsTEFyLw58/jJDfwRXALPUDeT6lAepoh+32bRjaCLkxSHP/P9BfmcveNc0cqsWBKLr5dWSbqqNWWEHOnFi9/GocJz0cgKEQaW5ldOAML8i53oh8nOaRxCvCAEJYBjeLGkuJ8x+X0Yvs/i/HuI1dw6TTdXeVuR6EEkiYZMXdtPLoN04m9nGYR+tLE5mWTIThMicFTTTBFkVVYGs9cmpDNfUcuLnfBD8wAnnZ0/bITHzyTj8QxBox9xoJQg3TUwWBR4eE3otA72YCsRYUoKaAzjEBqgJAYTU/kQGScBgOnmNBjpA7aYPL7Q60N3POHD2Qj6IIkxVEo6CQOskA+ML1eIGe7HWeyKzA+3YIeI6XVsa199xDMWRWPrz8vxbcry4gnLTWH0L3cgbp9GajvpxgoFMDdvUORlGLEXT1CoRDx2GNJj00jG0GXTR06iZnoMjgwK2xurHqnEIe32jFtvhURsdKJNWiCFBg904weD+iRtbAQl87QE0Yg8X6qNQrUCP4pgY82WIleyXr0n2hEZBwd7z+NRhRNyEbQhRAgKl3uBIRWTokpl85UY9G0PAx9yIShD4dDIyGXnzVeg2eXx+KHneXYuqwYFTa32EsichGU0/spBJYYDQZMNqLnKD2Cw+gKO9FoRNGEbF59IZLFaMxyJ+HSpPEiIyRulxe7Py3F0V3lSJtjRfvuIWIvySd6jtTj3r5h2JZZjCNf2uEV0blCykJn+M5dPUIwYLIJd/cW163eFIGYlMsnshH0Wif/kzlUFCaIuQnETKV2Sx72SDj+vc+Bwlz/bjslBbXInH0V3YbpMD49QlId20INSqTOiUSfcQasfPu6399FSyHiQWKCzhlNkAI9R+qRlGJEVBv6exqw37Zp6PKnCIhbAG8jjRmX7MD8PXqzCi9/HocRj4XzsvYTexxYmJaLQ5vtkpngVk98xyC88q84JD9jESV8QCQpjsKLNm2YrGqMnWXBW9vaIOXlSEmIOSA9Y4I0srHQ5VOHTsClSeHf3RRulxcarQIjZ5jRY6QeWQtv4OKpKr+eWV3hwfq/3cD32+146DUroiVyIAJ17+2QaSZ0H6bDmsU3cO5IJbHPJpW0yWiYO7uGICnFiHv7h0myZp+FU5pGPoIukzr0WnZg/o6bf/uIWA3SM2NwdFc5tnzgf6LYlfM1eHd6HpImmzByRrhkOrYBdVbaU0ta4fT+CmxcUgRbkfC160SS4lic9RbUGgXuH1HnVpdaq+DbodGIognZCLowdei8P9JvhO4UB9D5dzdFQ27eHg/ocU/fMGz/RzFytvuXKObxAN+tKcPJbxyY8HwE7hsY1vKHiUDnAWG4u1codn5Ugr2rywT9LOZBIofBokL/SUb0fdCIUL10LppNoZRO2oooyEbQhRA6Gg8OIlnEFP7dTdGYiITqlZjySiR6JxuwekEhrl12+vU5tqJafDr3GjokhiItIxLGCOlsL02QAmNnWXD/CD1WLyzElfPCVHIzl7vwtO0UjKTJRtw3ICzgOjs6qwO7/4W/BMa1jQNCuKJpPDhcBIYl9JtgpK4+tSmaE5H4jkH48xetMXaWBdpg/3/T3wa+rBLW2hWCmDu1eOmT1kh5OVKQ35jE+ynXpLjEMXq89ElrPLs8Fl0H6wJOzAHAdoPOlsa0IJ1T2U8ESYqjUNBJtPrsNkyHeWvj0X04/cNAAG7hFqVKgcFTTZi7Nh4dEkP9/kxntRfb/1GMv0zPw69n6enUxpW+4w2Yu4b/gS8eAucxjftSKPRmFUbOMOPt7W2QNseK1ncFib0kQaGp6yGNyEfQhUiKo9D1TCKGDgC6cBWmvx6F9MwYmFvR7Vr25TJnjKhLFHtiUTQvLvOCX5xYOjMf6/56A1UOadW46c11A1/4/I2Pf12OvauF7TEvh+Yjse2D8NBrVryxKQEjHguH3hz4wWV7sRuXf2SC3hSyEXTZDGchPNO7XZcQzFkdz1uNtxC05DvplBSGjDVxGJhq8ru8x+sFDm+xY0FqLo7tLvfvYSLQrksIXtuQgAceD/f7WS6nF9syi/Huw1eQe1aYOD2t7yEfdB+uw7PLY/HyZ61x/wh9QP+tt7N/bZmoXQ6lgGwEXZCkOAotAVcNeSuwvsY7Y3Uc7uxKX1vUlv72QSFKjE+34M//iuPFlekodWPlW4XITL+KG3nidGrzhweeMGPumni07+b/b3ztshNLnryCDUuKUFPJ7zsbaKVNYUYVhj8ajje3JmD661Fo2ylY7CURx1ZUi+z1NrGXQT2yEXRBkuIoPDgcpeK5dS0xGvzpwxhMnWtFmJEeF6C/+RPRbbR48WP+EsUunKjC4ul52PVJqeSm1kXGaTBrWQymvx4Fncn/3/jgRhveTsnFiW8cPKyuDhr7Q7SE6DZapGVY8caWBIx60iypqgk+cdd68fGca0QSKqWObARdLklx1/0sveKDnqP0yMiKQ+JoOmaJ83GZUyj+L1GMj2RAt8uLXR+XYPG0PL+71olB9+E6zF0bjz7jDX4P8nCUufHF69eROfsqSgr8z5qj8aLNFYWyri9AemYMXl1Vt4ekNOGPb7we4LP51wULzwQashF0QWLoFB4cRfku2IvFH5MZZlQhLcOK9MwYWOPFjU3U8niz15vrkgGfWBTNy/OK8l1YNusq/vXmdVTapZU0F6JTYvLLkXh2eSwvrW8vHK/CW5N+xTf/8q/cT2qNj4C673LodBNe25CAxxdGo10X+kJXpKmu8OCTuddwJrtC7KVIBtkIulxavwKgKvGqXZcQvPJFHEY9aRbt+xJiAl3bzvzGMY9/7cA7k3/F4a12Xp9Lgjb3BuPVVXEYn85PHf+O5cVYmJbbYquMxuqTxrDGazD55Ugs2t0WY56yIDxKnm712zmyoxyLH8pjYu4jsnl75OJyB+rakPabYOTlcOUDlUaB4Y+G4/4Reqx6p5C4i1kqXQIryz1Y9+4N5OywY+pcaQ18AYCBqSZ0GazDxr8X+X0QF+a68PeZV5A42oCxsywINXC3PWjdl/UoFEDHPmEYkGLEH3owS7yeKocHOdvt2L/OhrJC1kCmJchG0IUY26im9NuzF7vx5YpiPDg7Quyl3IK5lRrpmTE4/rUDm98vgqOMTGhAape53LN1A18GpprwwBNmai5mXDBZ1XhiUTTOHalE1sIbfg188XqBnB12nDlQgbHPWJA4hltOBo2hMAAIClWiV7Ie/ScaERErwbiAQFy/7ET2Bht++KocrhqW+OYPlEoS/wjhcqfZEti/1oa7eoSiY2//u57xTffhOtzbLxTbl5fg4EbhS1Gk2PbX4wH2ri7DiW8cSH01kpfudSTpkBiKuWvjsOvjUny3pgweP9IDKmxuZC0qxLHd5UidEwlLTNNiSJugW2I0GJhqRM9ReklN4xMSrxf46ftK7F9XhvNHpZcUSiuyebuEsNJojaHX89m868j/Wfys94YIClVi0gsReP7/xSK6rbCuZSF+e1KzpMsKa7H8hQJ8knFNcm5IbbASY2fV1fHHd/S/jv/CiSq8nZKLXZ+UNvnfqSgxUzokhuKP77XCvHXx6D/RyMQcdYlu2etteGdyLla8XMDEnGcoefWFRy516DfjrPYgMz0fzy5vjagEOl18CR2D8efPW2PfGht2fVQiSK2pULXeGq2CWG3s6f0VOHekEqNnWtA/xUjsQsEH0W20eH5Fa+Rst2NbZrHfLXB3fVyCY7vKMW2+tcEmK2oRy7w0QQokjjYgKcUoenUHTdzIc+HABhtydpTDWS2tag4pIRtBl1oclS8q7R689/gVDEw1Ysg0E4JC6VMCpUqBIdNM6DZUh3Xv3sBPOZW8Pl+okZ0qDTlBB+oGvmz+oAhHvrJjaoa0BnEoFEDvsQZ0SgrD1mXFOLrLv0qMonwX3n8qHz0e0GP8bMstjYzEmDJmjlYjKcWIXmMMCNbRt8fEwOsFzv9Qiez1NvyUU8nathKACbof0Nj6tSGc1R58/VkpcrbbMenFSHQeECb2khokPEqNP77XCv/e58DGvxfxVk8v1MAasTw0V3924r0nrqDvBCPGzDRLSkB0JhWmzbeiz3gDVr1diKJ8/36co7vK8ePBCoxPj0DP0XooFCDaiKV99xAkpRhxb98wKKTzMwiKs9qDH74qx/51Nkm2OJYy9PTnvI1ecbNDALzC1/NCDSr0n2jk63G/8fVnTcfzaKKmyouT3zqQ+1MN7rgvBCGUCkF0Wy16jzXAWeXFrzx0iKqp9ODGFRfu6BzCaxwze52N9z7kvpD7Uw1ydpQjPFqNVndIq8QtPEqNvuMNUGsUuHSm2q+kuVqnFz8erMCF41VQqRU4vNUuaL6BRlvnVp82z4rBU02IStD63S0vECgucOHrz8rwrzcLcXp/heQaJfnAX47kfUDl2DdqX8Nn+/wcDqCEr+dFxGowb108X4/7jef6XuT9mSTQaBUY+aQZA6cYRXFRcuXK+RqsXliIqzwk9wWHKZH8jAV9xhp4sabemvQrL61K+aB99xCkzbFSP8q2IUoKapG1qBAXjtOdIGWMqHOr9x5r8KkuPtC5cLwK2ett+PFghVzc6ub3D99JpSVH7UnOt6CbrGq8sTmBr8f9xosDfxHEnU+K6DZaTJ1r5SULWSg8HuDAehu+XFEMZ7X/33Xru4IwNcOKmDv9s2oXpOZS5VJUaxQY8Vg4Bk81SSK/43ZOflvXn4CG1sU3c0fnYAyYbESnATpJJSMKiavGi2O7y7EvqwyFufTsAUIwQfcVvgVdb1bh7e1t+Hrcb7wy9BJqqqTtWlIogN7jDEh+2kKtGx6oK+HiowsZUDcEIynFiFEzzC1OFPzL9DwU/EJfWaA1XoO0jIYzwGmn2uHBjhUlOLTJJqq1p9Io0H2oDkmTjWj9B3ovu6QpvV6LgxttOLzV7ne1goRhgu4rfAt6qF6Jhbva8vW438gYeSlgYkU6kwoTnotAt2H+TxMTEj66kNVjsKgw8YVI3DfQ90TBvz1+BVfO0zsFqucoPcb9yULVKFuu8Blq8QVdeF2uTd/xBujCpfe9CcXFU3Vu9TPZFX7lOwQITNB9hW9B1wYr8e63/Av6a2MvU+ci9Jd2XUIwbR7d8VhntQc7PyrF/rX+dSGrp0NiKFJfjYTJyv1vXjozH5f/Q2VuzG+E6JS3ZIBLCY8HOLDBhq9WlAjuBUvoGIykFCO6DA6jvr8EKVxOL07sceC7tWUouEifJ0pEmKD7Ct+CrlIr8N7+O/h63G+8OeFXlF6nIzGKT9T/HagyZBrd8dhrl51Y+VYhL5ayRqvAiMfDMSjNxOlQXzbrqmRmmbftFIy0DKskm53YbtRi0/vF+Pc+B6/PVakV6DI4DEkpRiR0lF54QihsN2pxcLMdhzbbAsb7yDNM0H2Fb0EHgKWH2vH5OADAO1NyUXQlcJNCImI1jXbkogWvBzi0xYbt/+DHkuMag/7nc1cl1bpSqVJg8FQTRjwWDk0QtVu/US4cr8Kqdwr9LkkLM6rQb4IBfR80wmBhbvV6Lv9Yjez1NpzaVwGPACOHAwgm6L4ihKC/990dvFubi6fl4drlwHdHSSEeay92Y/PSIpzcy48l13OkHuPSG/+bV7xcgLOH+e1qRwKTVY1p86xo3116oztdNV7s/rQUe1eX+Sw6rdppMSitriMh7XMYSOF2eXFyrwP7smzIv0BvPghlUCvo1J7OfDeWAYAh00y8b+SCS07knQv8jZB/wYnvt9qhN6upzfoNClWiy2Ad2nUJwYXjVaiu8M9az/+57m8ONagQ1+H3f/OpfRUo/FV63pnqCg+O7izHtcsutO0cjGAK2wE3hkqtwB/uD0HXITpc+d+aZq11pRLoPFCHKa9EIvkpC2LbB1Hdd4EU9mI39mWV4Ys3CnFstwPlJYGVByQwrLGMrwhhoS/c2VaQhhB8Zl1LASnEY+ssuRLsXW3jxX0Y3zEIU+daEd3m/2rXP3/tOk5+y29clzRBIUqMfsqM/hOMkmtd6vUCP3xVjm2Zxaiw3SpIITol+ow3oP9Eo0+JjoFO3rka7F9nw8lvHYLNOJAB1FroshL0t7a1ESxm5qz28DL7WSooVQoMnW7CsEfCifbO9pXCXBdWvn0duTy0kFUqgYGpJjzwRDi0wUqservQ7yEjtBBzpxYPzY/yu9mOGFTY3NiWWYwjX5bDGq/BoDQT7h+hl2SegBB43F6c2leB7PU2XP6RSsNSajBB9xUhBP31TQkIjxL2tn7tshOrFxTyIiBSwNyqLh7brgu98VivFziyw46tH/o/uhOoawGa8nIEfjxYiZztdh5WSA9Jk4wY87QZ2mCJmeuoayFLc6klaSrLPTi02YaDG+2y8R4Sggm6rwgh6M+tiEWbe8hka3+/jZ/Zz1Kh2zAdHpwdAb2Z2rQMOErd2LKsGMd282NVB4UoJd8lsCEMFhUmPh+B+wbR3WCI0TD5F2qQvd6G4187UCvhttQUwwTdV4QQ9LQ5ViSO0fP5yCbhW0Bo57fhJ+MMVDcxuXiqClkLb/g9ujPQaUmzHYY4eDzAmewK7F9Xhl/+zdzqAkOtoFNrTgmR5W6MUOGevuRmgWtDlOg8IAztuobg0ulqVJYHnjV3M7UuL84ersS5nCq0uTcYekpbZ5qjNUhKMcLrBS6eCrzDT29WwVnlv2VWlO/Coc12KFUKJNwTBKWS4luaTKm0e5C9wYYvXruOnB32gGxyRSEsy91XhLDQg0KVeGtrQouHcfiD2+XFNyvLsOfzUlm4wW5PIKOVonwXVr1diEtnqNyfPtGqnRaD00zoOlQHe5Gb15Gk1ngNHpofRfVUPjlR8IsT2ettOLarHC5n4J8nlEGthS4rQQeA8bMtGDjFxPdjOSOV2c98YbKqkfpqJDokhoq9lCb5YWc5ti77ffkT7ShVCtw3IAxJk40NdrY7tdeBTUv5GUmqUACJow0YO8vC5oGLgNcD/HioLltdLucHpTBB9xWhBD1Ep8SrK+NgjBQ3LnjiGwc2/b0IjjJpCUhL6TwgDBOfjxD9e2+KCpsb2/5RjCM76M95CDUo0Xe8Ef0mGJr9TmsqPfhyRQkObLTBy0PUJ8yowrh0C3qOJJePImeqHR7k7LAje70NJdeYS50CmKD7ilCCDgDxdwfh2eWxok9VqnZ4sON/SnBos7izn0kRFKLEqJlm9J9khJJiA+/SmWpkLSxEYS59SXPRbbQYNNWEbsN0Ptf/X/3ZidUL+RlkA9Q1GJo234qIWHobDEmZ67+6cGCDDUe+tMNVI4MDQjowQfcVIQUdAO7pG4qpc61U9CbP/akGaxaTn/0sFlJoYuJ2ebF3dRl2fyp+zoNSCXRKqpsK5m+9v9cDHNpsw/Z/8jPIRqVRYMg0+hsMSQWvF/gppxLZ6204d0R6cwJkAhN0XxFa0IE6t+WkFyPRbSgd9bYHN9qwfXkJaioDOxseABRKoP8EI0b/0SxKkiJXxMx5CNEp0WecAf0mGnlviGQvdmPz+0W8ta41t1IjbY40B77QQE2lB0e+Ksf+tTYUX6XPM8S4BWoF/f8DAAD//+3deZQV5Z3G8W83W0MDDXRDgrtSPXI0itGJxELFLeOO+4I6WR0T45iKuyLqTFzQ6GjKZKImGWfMqIhEMQbjRIMsSjloQFtlgkOJKES02fr2Ag29zR9FZxAF+nbfe39VdZ/POf0n8NzTnH663np/71vUhd5p1EH9uXDyiFicMpVZ3crTP1lDzZwm6ygFMbiyF2ddOZwxRxVunLA7Fr0YbS4rxJ6HQh5funThRqZOqWXdqty8mz34uIGc/oMqXUvaRWtWtjDvNxkWPNdQFL/Ip4QKPVuFLHSA3n1K+No3hnLcRUNyfsVqdyxZsIEn7lzd47ufkyIJh5hsbGxn5gNrCX5bn/M9DyWl8KVx0W716oML+5TbsrmDP/56PX98tI62HLxeKCsv5dRLtxwwFN/FFzMdHfDu69Gy+p9f3VAU+2dSRoWerUIXeqeqXftw4U0jPncEqNByfWNY3PXpW8IJFw/j6PMrYn3F5Yf/s4nHb6/l4+U93/NQVl7KYRMGc/hZg6kcabu5bM1fWph6x2reezM3rxd227cfF0waEeu9EoW0ubmd159vZM60Olav0LJ6gqnQs2VV6J0OPXEQp11eGYtNc7UftjD1jnQcftIVX9yrLxfcOCLWh5i0t3UwZ1qG53+5rlsHewzfvQ9HnTeEr5w4MHYH7/zpDw3M8HMzk19SCuPPHcKJFw+lX/94fc5CWbuqhVeequfVZ+tpbtKyegqo0LNlXegQbUo67fJKxp5sfzZ5Rwe89lwDz/x0TVFc+FJSAodNGMwpl1YyYFB8i6CutpUn7lzdpR3JJSWwnzuAI88Zwr5fiffmsQ0N0euFV5/NzeuFiqrenH1VFQccGe+9Erm0dNFG5k3P8M4rTTmZ/5fYUKFnKw6F3mnvA8qYOGkEI/awn7fd+u7nYjBwSC/O8Ko45O/iMYmwPTVzmnjq3tWfeyJbvwGlfPWUQRxxdkXiZrZz+XoBor0SEycNp6IqvnsleqJlUwcLX2jgpcfrYnmOgeSECj1bcSp0iI7YPOaCIRz/raF533ncFXE+/CQf4jSJsD3bnshWuUsfjjq/gkNPGpTo5eb2tg7mPpnh+V+tY3Nzzx/X+5aVcMJ3hnHUefHeK5GNutpWXn4qQ/BMfVGsoBU5FXq24lbonYaM6M2Fk+Mxb9vW2sHsqXX84eH1RXNBwwnfGcYJ3x5qHWOHVizZRMP6NvY7LN7n12errraVGfevpWZ2bmbXk7BXYmeWvdXM3CczvD23kXb1eLFQoWcrroXe6aBjBnLmD+Mxb1tX28pjtxXPhS9xmkQoRrkcqSwpgcNOG8wp34v3XomttbZ0sOjFRmY/Uceq94rjdEf5lNgWun0bbUc+7kPPpY/f30zwTD1l5aXsMbrMdNNcWXkph544iJH79GVZTTObcnAXdpxtaGhnwcwG1q1qZdRB/WPxCqSY9BtQSnNTO8vfyc3UxYolm1gws4GK4b3ZZVR8R9wya1p56bE6fn1LLYtebKRxfXFcrCSfofvQsxX3J/St7T46mrcdGYMfRpubo/e4c6dlrKNs16EnDeJ/Xt2Qkx+I/QeWcvrlVRx68iDzSYS0W/5OtLxcM6cpb+cijDqoPxMnDY/V5sHli5uZNz3Dmy/l73NLosT2CT22PwKTVOgQzdseeXYFJ/1DPM4mz/XNWj1VUdWbI86u4LAJgyiv6MXGxnZ+98BaXs3RqWtxmkRIk7aWDt54qZHZUzP8ZWlh/i/16lPC174+lOP+fgi9jU5tbGvp4M3ZTbz0eF3BPrckhgo9W0kr9E6DK3tx9lXDOXC8/bxtrm/W6o59DizjyHMqOHB8+efuaF6+uJmpd6zmkxyMRZX2im7++rtvxmMSIcka1rUx/5l6Xnk6Y7a0XLVrHyZOGt7jG+ayEYfPLbGnQs9WUgu9U5zOJs/1zVo706tPCYccN5Ajz6lgt313voO5rXXLVaUP5+aqUt381X0rlmxi3vQMi2Y15uRc91z42+MHcfrllQwcmr8tPyve3cS8J+P1uSW2VOjZSnqhQ/zOJs/1zVrbGji0F0ecVcG40wd364fv2o9aeGLKapYuys1ufd381TXtbR3UzG1i3pOZ2B4vXFZeyoTLKjlsQu5ObWxv66BmThPzpsf3c0ssqdCzlYZC7xSneduWzR28+Mh6Zj2Wm5u1APbcr4zx51Yw5uhyevXu+X+p1/+rgWfuz81Z4rr5a/uaMm28+mw986ZnPveEuzja60tlnOFVsud+3R9Z3NDQzvwZGV7+TXI+t8SKCj1baSp0iN/Z5D29WatX7xIOOqac8ecMycsvKrk+4na3fftx0c0j+OJe9pMI1j4KNzNveoY//aEhJ684LFQf3B/3jMF8+ZiuHwn8yfLNzJmW4dVn6/OYTIqACj1baSv0TuUVvTjDq+Rvjx9kHQXI/mm4vKIXh585mHFnVBRkKXtZTTNTp9Tm5LrJ0lIYf15081fcbjjLt/Z2eOflaHk5fCM9BxD161/Kvof2Z58Dy9h9dD+GjezD0C/8/76Vj8LNhG9u5M1ZjSx7S8vqkhMq9GyltdA7xWnedkNDO7/7+Vr++3fbHyEbOaovx0wcwsHHDaRXgUeJWlui1wR/fDQ3rwkqqnozcdJwRo9N19Gsn2djY/tfl9VzcbKbiKjQs5b2Qod4zNtubdubtUp7lTBmfDlHnlPB3gfaH7O6ekULU6fUsqwmN09aBxxZzllXVMViEiHXPlkeLau/9nwDLZuSuawuElMq9Gx5blgB1FnnKIThu/fh3GuGx2bMatZjdTQ3tXP4GYOpGB6/svvvmfU8+7O1bGjo+Wx937ISTr6kkiPOqaA04avwHR3w51c3MG96hiWv7fx+dhHplgo/cGK5ESPOhV4OFGZwOiYKMW+bFo3r25hx/xoWvpCb/yK7OH25YNKILs3Nx82mDe0seK6BuU9mWPtRcVynK2Ko3A+cWP7GHOdC7wsU3ZmL/QdG87ZfPTV387ZptnTRRp6YsjonRVZSAoefWcHJ3x1GWXn8H9fXrGxh3m8yLHiugU0bdHenSIH09QMnlr85x7YyPDcsBYp2SHSP/fpxwY0as+qKlk0d/OHf1zF7aoa21p6/Lx5c2Yszf1jFQVmMRBXSu69vZO6Tdfz51Q05OQdfRLrOD5zY9mZsgwF4blgPxGO+y0BpKRw9cQjHf3sYfcti/a0yFb6xkXnTM7zzchPtOXxQrT6kPxdOHhGLTXObm9t5/b8amfNEXU5G+ESkW9b5gVNpHWJ7Yt0Snhu+DBxuncPakBG9Of/64hiz6qqWzR0sfKGBOVMzf92Vnw99+pZw/LeHcfTEipycgpetdataeeXpDMFv62lu0rK6iLGX/MA51jrE9tg/euzYQlTo1NW28uCVqzhwfDRmFced54VSV/v/BbehPv8F17K5g5kPruW139dz0U1fKNjxvZ2rDm+/3ESHelwkLv5kHWBH4t4Mi6wDxMlbc5t497WNnHTJMI44O/ljVtlYVtPM3OkZ3p7bmNNl9a6q/bCF+y5ZyVdPHcyp38/P8b0tmztY9EIjs6fW5XXVQUS6baF1gB2J+5L7/sA71jniKMljVl3VsrmDRS82MmdaHavei0/B5fr43szqVl55up75z2QKsuogIt02yg+cZdYhtifWhQ7gueEq4IvWOeIoaWNWXVVX28r8GfEvOOfL/Tn32uGM2KN7x/e+/3Yzc6ZlqJldVMctiCTVCj9w9rAOsSNxX3IHmAZ41iHiqKMDXn4qQ82cxliPWXXV+281M296hpq5TbS3xX8eK3xjI3dM/BD39MEc/82hXd7bsPCFRmY/UcfKd4vumAWRJPtP6wA7k4Qn9MOAwDpHEsRpzKqrWls6WPTH6L1xnJbVu+OAI8qpPqQ/lbv0pt+AT6+YrHx3E/+7cCMr392kO7hFkmmMHzhvWYfYkdgXOmjZPRvRmNVQjp44xGTMqqsya7Ysq8+o7/LVrSIiRkI/cKqtQ+xMUh7lfgHcbB0iCaIxq3W89vuGgo5ZddXyd6Jl9TdnJ2NZXUQEeMg6QFfE9xFuK54bDgFWAMl+SVxgJSUw9uTBTLiskgGD7TbNtW1ZVp8zLcNfluq9sYgkyhpgDz9wNloH2ZlEFDqA54Z3ADdY50ii8openHZ5JYeeWNhTdOvXtjF/RoZXntayuogk1vV+4NxlHaIrklToVcCHQDwuDU+gvQ8o48KbRlC1a/fGrLpq+eItu9VnN+XkshQRESN1wO5+4CRitjQxhQ7gueHNwD9b50iyXn1KOO6iIRz39aH06Zu7b39bSwdvvNTI7KlaVheR1PiBHzg/tQ7RVYkqdADPDRcD+1nnSLphI3tz4eQRjDqoZwse9WvbCJ7J8MqMehrXa1ldRFLjdT9wDrUOkY2k7HLf2oXAG9Yhkm7dqlZ+etlHHPy1gZx2WWXWF758+OdNzH2yjoUvJGIlSkQkG83AROsQ2UrcEzpog1w+jDt9MMdcNITKkTt+v/768w3Mn1HP8sXNBUomIlJwV/qBc591iGwlstABPDcMgMOsc6RN9cH92bW6H1W79qZy1z40rGvjkw828/H7m/ko3Mz6T1qtI4qI5NNMP3BOtQ7RHUlccu90MtH1qnsZ50iVpYs2snRR7MctRUTy4S3gXOsQ3ZXYJ3QAzw2riS6cH2ydRUREEu1j4Mt+4HxsHaS7En3nph84S4EJgB4pRUSku9YDJyS5zCHhT+idPDc8CHgBGG6dRUREEuUD4Fg/cN6zDtJTiX5C7+QHzpvAV4DEf0NERKRg/gR8JQ1lDikpdAA/cD4ADgVetM4iIiKx9xhwhB84q62D5Eoqlty35bnhN4B7gWHWWUREJFZWAxf7gfOsdZBcS80T+tb8wHkE2BeYbp1FRERi4zFgdBrLHFL6hL41zw2PBR4Aqq2ziIiIiSXAP/qBM8s6SD6lvtA7eW74Q+AWYIh1FhERKYg64J/8wPGtgxRC0RQ6/PVO9duBS6yziIhIXv0CuMEPnHXWQQqlqAq9k+eGY4CHgLHWWUREJKfmA9/1A2exdZBCK8pC7+S54fnAj4HdrbOIiEiPrACu8QNnmnUQK0Vd6ACeGw4ArgeuAcqM44iISHY2AncDU/zAKep7nYu+0Dt5brgb8BPgLOssIiLSJb8BrvADZ6V1kDhQoW/Dc8NxRO/X97fOIiIin2sx0Xvy+dZB4kSFvh2eG34fuBWdNiciEhdrgZv9wPm5dZA4UqHvgOeGFURjbpdZZxERKXI/Ayb7gZOxDhJXKvQu8NxwNPAgMN46i4hIkZkLfM8PnCXWQeJOhZ4Fzw3PAu4B9jKOIiKSdu8DV/uB87R1kKRQoXeD54Y3EY26DbDOIiKSMk3AnX7g3GYdJGlU6N3kueFI4F+AidZZRERS4nGip/JV1kGSSIXeQ54bjiUacxtjnUVEJKFqiMbQFlgHSTIVeo54bvgPRDvih1tnERFJiFrgRj9wfmUdJA1KrQOkhR84vwRGEZ02JyIiO3Yf4KjMc0dP6HnguWE18ABwrHUWEZGYmQVc6gfOUusgaaNCzyPPDU8F7gUc6ywiIsZConPXZ1oHSSsVegF4bngdMBkYaJ1FRKTAGoDb/MD5sXWQtFOhF4jnhiOIrvj7unUWEZECeQS41g+cWusgxUCFXmCeGx5CNOZ2iHUWEZE8WUg0hrbQOkgxUaEb8dzwm8AU4IvGUUREcmUVcIMfOI9YBylGGlsz4gfOfxBtltN7JRFJg7uAapW5HT2hx4DnhvsAPnCKdRYRkSz9DvihHzjLrIMUOxV6jHhueCzR/Hq1dRYRkZ1YSjRPPss6iERU6DHkueGVwM1AhXUWEZFtZIB/9gPnPusg8mkq9Jjy3LAKuBP4jnUWEZEtfglM8gNnjXUQ+SwVesx5bjiGaMxtrHUWESlaC4jG0Gqsg8j2qdATwnPDC4h2xO9qnUVEisZKooNhploHkZ1ToSeI54YDgEnAVUCZcRwRSa9m4B5gih84G6zDSNeo0BPIc8M9ia4ePMM6i4ikzlPAVX7gfGAdRLKjQk8wzw3HAw8Co62ziEjiLQG+5wfOXOsg0j0q9BTw3PAfgR8BQ62ziEjirANu9gPnX62DSM+o0FPCc8NhwG3ApdZZRCQxfg7c5AfOOusg0nMq9JTx3HB/ojG3cdZZRCS25hONoS22DiK5o0JPKc8NzyG6f31P6ywiEhsfEG14e8o6iOSeCj3FPDcsA67b8tXfOI6I2NlAdPLk3X7gNFuHkfxQoRcBzw13I5opPc86i4gU3BPAlX7grLIOIvmlQi8inhuOI3q/vr91FhHJuxqi9+QLrINIYajQi5Dnht8l2hFfZZ1FRHJuNTDZD5xfWAeRwiq1DiCF5wfOQ4AD3G+dRURy6ifAKJV5cdITepHz3HA00Wlz462ziEi3zQIu9QNnqXUQsaNCFwA8Nzwd+BdgH+ssItJl7xFteHvWOojYU6HLp3hueANwI1BunUVEtqsRuN0PnDutg0h8qNDlMzw3HEl09/pF1llE5DN+DVzjB06tdRCJFxW6bJfnhmOJxtzGWGcRERYSjaEttA4i8aRCl53y3PDbwB3AF6yziBShj4Eb/MD5D+sgEm8aW5Od8gPnYaCaaNOciBTO3YCjMpeu0BO6ZMVzw2rgAeBY6ywiKfYc8AM/cJZZB5HkUKFLt3hueBJwH/A31llEUmQp0Tz5LOsgkjwqdOkRzw2vBm4CBltnEUmwDPAjP3DutQ4iyaVClx7z3HAE0dWM37LOIpJA/wZc7wfOGusgkmwqdMkZzw3HEI25jbXOIpIAC4jG0Gqsg0g6qNAl5zw3vAi4C9jFOotIDP0FuM4PnMesg0i6aGxNcs4PnEeJxtymWGcRiZnbgb9RmUs+6Ald8spzwz0BHzjNOouIoRnAFX7gfGAdRNJLhS4F4bnheKJrWkdbZxEpoCXA9/zAmWsdRNJPhS4F5bmhB/wTMMQ4ikg+rQdu8QPnp9ZBpHio0KXgPDccRnQ2/Hets4jkwQPAZD9w1lkHkeKiQhcznhvuTzTmNs46i0gOzCcaQ1tsHUSKkwpdzHlueB7RJRS7W2cR6YYPgav9wJluHUSKmwpdYsFzwzLgBuAaoL9xHJGu2Eh03sJdfuA0W4cRUaFLrHhuuBvRpS9nW2cR2YEngav8wFlpHUSkkwpdYslzw3FE79f3t84ispXFRO/J51sHEdmWCl1izXPDS4FbgUrrLFLU1hDtXH/IOojI9ujoV4k1P3AeAEYBP7POIkXrfsBRmUvc6QldEsNzw9FEp82Nt84iRWEu0SlvS6yDiHSFCl0Sx3PDM4F7gL2ts0gqLSPa8PaMdRCRbKjQJbE8N7yRaNSt3DqLpEITcLsfOLolUBJJhS6J5rnhSKKn9Quss0iiPQpc6wfOKusgIt2lQpdU8NxwLNGY2xjrLJIoNURjaAusg4j0lApdUsVzw4uB24ER1lkk1j4BJvmB87B1EJFc0diapIofOL8CHKLT5kQ+zz1Atcpc0kZP6JJanhtWE11leax1FomFWcClfuAstQ4ikg8qdEk9zw1PIXpid6yziIn/Ba7wA+f31kFE8kmFLkXDc8NrgcnAIOssUhD1wK1+4NxjHUSkEFToUlQ8NxwB/Bj4hnUWyat/JxpDW2MdRKRQVOhSlDw3PIRozO0Q6yySUwuIxtBqrIOIFJoKXYqa54bfAKYAI62zSI98BFznB86j1kFErGhsTYqaHziPANXAXdZZpNumEI2hqcylqOkJXWQLzw33AX4CnGqdRbrkt4DnB84H1kFE4kCFLrINzw2PJZpfr7bOIp9rCdG1pnOtg4jEiQpdZDs8N7wCuAWosM4iANQBt/iBc791EJE4UqGL7IDnhlVE72gvts5S5B4iOnt9nXUQkbhSoYt0geeGY4hKZax1liIzn2gMbbF1EJG4U6GLZMFzw4lEB9PsZp0l5VYA1/iBM806iEhSqNBFsuS54QDgBuBqoMw4TtpsJPqF6U4/cJqtw4gkiQpdpJs8N9wTuBc40zpLSkwHrvQDZ6V1EJEkUqGL9JDnhuOBB4HR1lkSajHRe/L51kFEkkyFLpIjnhteBvwIGGadJSHWAjf5gfOAdRCRNFChi+SQ54bDgFuB71tnibmfAZP9wMlYBxFJCxW6SB54brg/0ZjbOOssMTOX6JS3JdZBRNJGhS6SR54bng3cA+xpncXY+8BVfuDMsA4iklYqdJE889ywDLgWuA4YYByn0JqAKX7g3G4dRCTtVOgiBeK54W7A3cD51lkK5HHgaj9wVlkHESkGKnSRAvPccBzR+/X9rbPkSQ3RGNoC6yAixUSFLmLEc8NLgNuBKussOVJLdIHKv1kHESlGpdYBRIqVHzi/ABzAt86SA/cCjspcxI6e0EViwHPDauAB4FjrLFmaBVzqB85S6yAixU6FLhIjnhtOIHraHWWdZSeWEp27PtM6iIhEVOgiMeS54fXAjcBA6yzbaABu9QPnbusgIvJpKnSRmPLccCRwF/D31lm2+E+iO8o/sQ4iIp+lQheJOc8N9wZuAr5lFOFh4DY/cN43+vdFpAtU6CIJseX+9RuBC4DyPP9zTUQHw9zmB86Hef63RCQHVOgiCbPlKNkJRMV+Wo7/+hlERT7TD5zmHP/dIpJHKnSRBPPcsAI4CjgQ+NKWr/26+Mff2errbWC2HzgNeYgpIgWgQhdJIc8Ndwd2BfYAdgc6gBVbvlb6gbPSMJ6I5IEKXUREJAVU6CIiIimgQhcREUkBFbqIiEgKqNBFRERSQIUuIiKSAip0ERGRFFChi4iIpIAKXUREJAX+D8d6Bglznm2zAAAAAElFTkSuQmCC;" parent="akwmaDAdcuWCsk3jGBrk-1" vertex="1">
          <mxGeometry x="1181.6499999999996" y="410" width="36" height="36" as="geometry" />
        </mxCell>
        <mxCell id="q0XRxBFANma4I5ZSVUxv-32" value="Client Application" style="rounded=1;whiteSpace=wrap;html=1;fontStyle=1;fillColor=#fad7ac;strokeColor=#b46504;" parent="akwmaDAdcuWCsk3jGBrk-1" vertex="1">
          <mxGeometry x="1334.92" y="70" width="235.46" height="60" as="geometry" />
        </mxCell>
        <mxCell id="q0XRxBFANma4I5ZSVUxv-33" value="Client Application" style="rounded=1;whiteSpace=wrap;html=1;fontStyle=1;fillColor=#fad7ac;strokeColor=#b46504;" parent="akwmaDAdcuWCsk3jGBrk-1" vertex="1">
          <mxGeometry x="1325.46" y="60" width="234.54" height="60" as="geometry" />
        </mxCell>
        <mxCell id="q0XRxBFANma4I5ZSVUxv-34" value="" style="image;sketch=0;aspect=fixed;html=1;points=[];align=center;fontSize=12;image=img/lib/mscae/Kubernetes.svg;" parent="akwmaDAdcuWCsk3jGBrk-1" vertex="1">
          <mxGeometry x="1100" y="316" width="36.46" height="35" as="geometry" />
        </mxCell>
        <mxCell id="q0XRxBFANma4I5ZSVUxv-37" value="" style="endArrow=none;html=1;rounded=0;edgeStyle=isometricEdgeStyle;elbow=vertical;endFill=0;exitX=0.5;exitY=1;exitDx=0;exitDy=0;entryX=0.5;entryY=0;entryDx=0;entryDy=0;" parent="akwmaDAdcuWCsk3jGBrk-1" source="q0XRxBFANma4I5ZSVUxv-40" target="q0XRxBFANma4I5ZSVUxv-41" edge="1">
          <mxGeometry width="50" height="50" relative="1" as="geometry">
            <mxPoint x="1440" y="238" as="sourcePoint" />
            <mxPoint x="1467.27" y="308" as="targetPoint" />
            <Array as="points" />
          </mxGeometry>
        </mxCell>
        <mxCell id="q0XRxBFANma4I5ZSVUxv-38" style="edgeStyle=orthogonalEdgeStyle;rounded=0;orthogonalLoop=1;jettySize=auto;html=1;endArrow=classic;endFill=1;entryX=0.5;entryY=0;entryDx=0;entryDy=0;exitX=0.5;exitY=1;exitDx=0;exitDy=0;" parent="akwmaDAdcuWCsk3jGBrk-1" source="q0XRxBFANma4I5ZSVUxv-41" target="q0XRxBFANma4I5ZSVUxv-12" edge="1">
          <mxGeometry relative="1" as="geometry">
            <mxPoint x="1430" y="308" as="targetPoint" />
            <mxPoint x="1443" y="318" as="sourcePoint" />
            <Array as="points" />
          </mxGeometry>
        </mxCell>
        <mxCell id="q0XRxBFANma4I5ZSVUxv-40" value="" style="rounded=0;whiteSpace=wrap;html=1;" parent="akwmaDAdcuWCsk3jGBrk-1" vertex="1">
          <mxGeometry x="1382.73" y="248" width="120" as="geometry" />
        </mxCell>
        <mxCell id="q0XRxBFANma4I5ZSVUxv-41" value="" style="rounded=0;whiteSpace=wrap;html=1;" parent="akwmaDAdcuWCsk3jGBrk-1" vertex="1">
          <mxGeometry x="1382.73" y="288" width="120" as="geometry" />
        </mxCell>
        <mxCell id="q0XRxBFANma4I5ZSVUxv-42" value="&lt;i&gt;&lt;font style=&quot;color: rgb(119, 119, 119);&quot;&gt;Note there are layers of infrastructure between the client Application and the Kubernetes Loadbalancer omitted for this illustration&lt;/font&gt;&lt;/i&gt;" style="text;html=1;align=left;verticalAlign=middle;whiteSpace=wrap;rounded=0;fontSize=10;" parent="akwmaDAdcuWCsk3jGBrk-1" vertex="1">
          <mxGeometry x="1477.0099999999998" y="253" width="370" height="30" as="geometry" />
        </mxCell>
        <mxCell id="q0XRxBFANma4I5ZSVUxv-43" value="&lt;font style=&quot;color: rgb(0, 0, 102);&quot;&gt;Kubernetes Cluster&lt;/font&gt;" style="text;html=1;align=left;verticalAlign=middle;whiteSpace=wrap;rounded=0;fontStyle=1;spacingLeft=5;fontColor=#FFFFFF;fontSize=12;" parent="akwmaDAdcuWCsk3jGBrk-1" vertex="1">
          <mxGeometry x="1144.09" y="337" width="157.35" height="30" as="geometry" />
        </mxCell>
        <mxCell id="q0XRxBFANma4I5ZSVUxv-80" value="" style="group" parent="akwmaDAdcuWCsk3jGBrk-1" vertex="1" connectable="0">
          <mxGeometry x="1252" y="733" width="350" height="77.5" as="geometry" />
        </mxCell>
        <mxCell id="q0XRxBFANma4I5ZSVUxv-79" value="" style="group" parent="q0XRxBFANma4I5ZSVUxv-80" vertex="1" connectable="0">
          <mxGeometry y="10" width="318.1682102065425" height="67.5" as="geometry" />
        </mxCell>
        <mxCell id="q0XRxBFANma4I5ZSVUxv-64" value="" style="rounded=1;whiteSpace=wrap;html=1;fillColor=#dae8fc;strokeColor=#6c8ebf;fontStyle=1;verticalAlign=top;spacingTop=8;opacity=50;" parent="q0XRxBFANma4I5ZSVUxv-79" vertex="1">
          <mxGeometry width="318.16821020654254" height="67.5" as="geometry" />
        </mxCell>
        <mxCell id="q0XRxBFANma4I5ZSVUxv-68" value="" style="aspect=fixed;sketch=0;html=1;dashed=0;whitespace=wrap;verticalLabelPosition=bottom;verticalAlign=top;fillColor=#2875E2;strokeColor=#ffffff;points=[[0.005,0.63,0],[0.1,0.2,0],[0.9,0.2,0],[0.5,0,0],[0.995,0.63,0],[0.72,0.99,0],[0.5,1,0],[0.28,0.99,0]];shape=mxgraph.kubernetes.icon2;prIcon=pod;opacity=50;" parent="q0XRxBFANma4I5ZSVUxv-79" vertex="1">
          <mxGeometry x="5.984422776343531" y="3.5" width="25" height="24" as="geometry" />
        </mxCell>
        <mxCell id="q0XRxBFANma4I5ZSVUxv-76" value="" style="group" parent="q0XRxBFANma4I5ZSVUxv-80" vertex="1" connectable="0">
          <mxGeometry x="13.11696585841172" width="336.88303414158827" height="67.5" as="geometry" />
        </mxCell>
        <mxCell id="q0XRxBFANma4I5ZSVUxv-77" value="" style="rounded=1;whiteSpace=wrap;html=1;fillColor=#dae8fc;strokeColor=#6c8ebf;fontStyle=1;verticalAlign=top;spacingTop=8;opacity=50;" parent="q0XRxBFANma4I5ZSVUxv-76" vertex="1">
          <mxGeometry width="318.1682102065426" height="67.5" as="geometry" />
        </mxCell>
        <mxCell id="q0XRxBFANma4I5ZSVUxv-78" value="" style="aspect=fixed;sketch=0;html=1;dashed=0;whitespace=wrap;verticalLabelPosition=bottom;verticalAlign=top;fillColor=#2875E2;strokeColor=#ffffff;points=[[0.005,0.63,0],[0.1,0.2,0],[0.9,0.2,0],[0.5,0,0],[0.995,0.63,0],[0.72,0.99,0],[0.5,1,0],[0.28,0.99,0]];shape=mxgraph.kubernetes.icon2;prIcon=pod;opacity=50;" parent="q0XRxBFANma4I5ZSVUxv-76" vertex="1">
          <mxGeometry x="5.984422776343532" y="3.5" width="25" height="24" as="geometry" />
        </mxCell>
        <mxCell id="q0XRxBFANma4I5ZSVUxv-70" value="" style="group" parent="q0XRxBFANma4I5ZSVUxv-76" vertex="1" connectable="0">
          <mxGeometry x="18.714823935045644" y="-10" width="318.1682102065426" height="71" as="geometry" />
        </mxCell>
        <mxCell id="q0XRxBFANma4I5ZSVUxv-31" value="Model Server &amp;amp; LoRA Adapter" style="rounded=1;whiteSpace=wrap;html=1;fillColor=#dae8fc;strokeColor=#6c8ebf;fontStyle=1;verticalAlign=top;spacingTop=8;" parent="q0XRxBFANma4I5ZSVUxv-70" vertex="1">
          <mxGeometry width="318.1682102065426" height="67.5" as="geometry" />
        </mxCell>
        <mxCell id="q0XRxBFANma4I5ZSVUxv-48" value="" style="group" parent="q0XRxBFANma4I5ZSVUxv-70" vertex="1" connectable="0">
          <mxGeometry x="121.41372233036668" y="37.5" width="65.58482929205861" height="20" as="geometry" />
        </mxCell>
        <mxCell id="q0XRxBFANma4I5ZSVUxv-46" value="" style="editableCssRules=.*;html=1;shape=image;verticalLabelPosition=bottom;labelBackgroundColor=#ffffff;verticalAlign=top;aspect=fixed;imageAspect=0;image=data:image/svg+xml,PHN2ZyB4bWxucz0iaHR0cDovL3d3dy53My5vcmcvMjAwMC9zdmciIHhtbG5zOnY9Imh0dHBzOi8vdmVjdGEuaW8vbmFubyIgd2lkdGg9IjIwIiBoZWlnaHQ9IjIwIiB2aWV3Qm94PSIwIDAgMjAgMjAiPiYjeGE7CTxzdHlsZSB0eXBlPSJ0ZXh0L2NzcyI+JiN4YTsJLnN0MHtmaWxsOiM0Mjg1ZjQ7fSYjeGE7CTwvc3R5bGU+JiN4YTsJPHBhdGggY2xhc3M9InN0MCIgZD0iTTEzLjMzIDB2Mi4zOGgtMi4xNlYwSDguODN2Mi4zOEg2LjY3VjBINC4yOXYyLjM4YTIgMiAwIDAgMC0xLjkxIDEuOTFIMHYyLjM4aDIuMzh2Mi4xNEgwdjIuMzhoMi4zOHYyLjE0SDB2Mi4zOGgyLjM4YTIgMiAwIDAgMCAxLjkxIDEuOTFWMjBoMi4zOHYtMi4zOGgyLjE2VjIwaDIuMzR2LTIuMzhoMi4xNlYyMGgyLjM4di0yLjM4YTIgMiAwIDAgMCAxLjkxLTEuOTFIMjB2LTIuMzhoLTIuMzh2LTIuMTRIMjBWOC44MWgtMi4zOFY2LjY3SDIwVjQuMjloLTIuMzhhMiAyIDAgMCAwLTEuOTEtMS45MVYwem0xLjUzIDE1LjI0SDUuMTRhLjM4LjM4IDAgMCAxLS4zOC0uMzhWNS4xNGEuMzguMzggMCAwIDEgLjM4LS4zOGg5LjcyYS4zOC4zOCAwIDAgMSAuMzguMzh2OS43MmEuMzguMzggMCAwIDEtLjM4LjM4em0tMi4wNy02LjEybC0zLjUgNC44NnYtMy42M0g3LjIybDMuNjEtNC44MXYzLjU4eiIvPiYjeGE7PC9zdmc+;" parent="q0XRxBFANma4I5ZSVUxv-48" vertex="1">
          <mxGeometry width="20" height="20" as="geometry" />
        </mxCell>
        <mxCell id="q0XRxBFANma4I5ZSVUxv-47" value="" style="editableCssRules=.*;html=1;shape=image;verticalLabelPosition=bottom;labelBackgroundColor=#ffffff;verticalAlign=top;aspect=fixed;imageAspect=0;image=data:image/svg+xml,PHN2ZyB4bWxucz0iaHR0cDovL3d3dy53My5vcmcvMjAwMC9zdmciIHhtbG5zOnY9Imh0dHBzOi8vdmVjdGEuaW8vbmFubyIgd2lkdGg9IjE4IiBoZWlnaHQ9IjE4IiB2aWV3Qm94PSIwIDAgMTggMTgiPiYjeGE7CTxzdHlsZSB0eXBlPSJ0ZXh0L2NzcyI+JiN4YTsJLnN0MHtmaWxsOiM0Mjg1ZjQ7fSYjeGE7CS5zdDF7ZmlsbDojNjY5ZGY2O30mI3hhOwk8L3N0eWxlPiYjeGE7CTxnIGNsYXNzPSJzdDAiIGZpbGw9IiM0Mjg1ZjQiPiYjeGE7CQk8cGF0aCBkPSJNMy40OCA2LjYyYS4zNy4zNyAwIDAgMS0uMzU4LS41MzMuMzcuMzcgMCAwIDEgLjMwOC0uMjA3bDIuMy0uMzJhLjM3LjM3IDAgMCAxIC40Mi4zMi4zOC4zOCAwIDAgMS0uMzIuNDNsLTIuMy4zMXoiLz4mI3hhOwkJPHBhdGggZD0iTTYuMjk5IDYuMjkybC4yMzMtLjcxMyA0LjE0NSAxLjM1Mi0uMjMzLjcxM3oiLz4mI3hhOwkJPHBhdGggZD0iTTYuMTggNi4xNmgtLjExYS4zNy4zNyAwIDAgMS0uMjQtLjQ2bC44My0yLjg0YS4zNy4zNyAwIDAgMSAuNDYtLjI0LjM2LjM2IDAgMCAxIC4yNi40NWwtLjg0IDIuODFhLjM4LjM4IDAgMCAxLS4zNi4yOHptNS4xMyAxLjRBLjM2LjM2IDAgMCAxIDExIDdsMS42Ny00LjIzYS4zOC4zOCAwIDAgMSAuNDctLjE4LjM4LjM4IDAgMCAxIC4yMy40NWwtMS42OCA0LjI0YS4zOS4zOSAwIDAgMS0uMzguMjh6Ii8+JiN4YTsJCTxwYXRoIGQ9Ik0yLjY2OSAxMy42MDRMNi42IDEwLjQ2NWwuNDY4LjU4Ni0zLjkzMSAzLjEzOXpNMTUuMDUgOC42MWwtLjMuNjgtMy42My0xLjU4LjI5LS42OXptLS4zMSA1LjQ4bC0uNTIuNTQtMy4yMy0zLjA0LjUyLS41NXpNNS43ODggNi4xMTNsLjczNS0uMTQ5LjgwOCAzLjk3OS0uNzM1LjE0OXoiLz4mI3hhOwkJPHBhdGggZD0iTTExLjU2IDcuNTZsLTQuMSAzLjYtLjUtLjU2IDQuMS0zLjZ6Ii8+JiN4YTsJCTxwYXRoIGQ9Ik0xMS43NCA3LjNsLS4yNSAzLjk3LS43NC0uMDUuMjQtMy45N3oiLz4mI3hhOwkJPGNpcmNsZSBjeD0iNy4wMSIgY3k9IjEwLjgyIiByPSIxLjM2Ii8+JiN4YTsJCTxjaXJjbGUgY3g9IjExLjM3IiBjeT0iNy4zNiIgcj0iMS42MSIvPiYjeGE7CQk8Y2lyY2xlIGN4PSIxMS4zNiIgY3k9IjExLjU0IiByPSIuODQiLz4mI3hhOwkJPGNpcmNsZSBjeD0iNi4wNCIgY3k9IjUuNjciIHI9Ii45OSIvPiYjeGE7CTwvZz4mI3hhOwk8ZyBjbGFzcz0ic3QxIiBmaWxsPSIjNjY5ZGY2Ij4mI3hhOwkJPHBhdGggZD0iTTggNGgyVjBIOHptNCAwaDJWMGgtMnpNNCA0aDJWMEg0em00IDE0aDJ2LTRIOHoiLz4mI3hhOwkJPHBhdGggZD0iTTEyIDE4aDJ2LTRoLTJ6bS04IDBoMnYtNEg0em0tNC04aDRWOEgwem0wLTRoNFY0SDB6Ii8+JiN4YTsJCTxwYXRoIGQ9Ik0wIDE0aDR2LTJIMHptMTQtNGg0VjhoLTR6bTAtNGg0VjRoLTR6bTAgOGg0di0yaC00eiIvPiYjeGE7CQk8cGF0aCBkPSJNMTUgMkgzYTEgMSAwIDAgMC0xIDF2MTJhMSAxIDAgMCAwIDEgMWgxMmExIDEgMCAwIDAgMS0xVjNhMSAxIDAgMCAwLTEtMXptLTEgMTEuNDdhLjUzLjUzIDAgMCAxLS41My41M0g0LjUzYS41My41MyAwIDAgMS0uNTMtLjUzVjQuNTNBLjUzLjUzIDAgMCAxIDQuNTMgNGg4Ljk0YS41My41MyAwIDAgMSAuNTMuNTN6Ii8+JiN4YTsJPC9nPiYjeGE7PC9zdmc+;" parent="q0XRxBFANma4I5ZSVUxv-48" vertex="1">
          <mxGeometry x="37.47704530974778" width="20" height="20" as="geometry" />
        </mxCell>
        <mxCell id="q0XRxBFANma4I5ZSVUxv-51" value="" style="aspect=fixed;sketch=0;html=1;dashed=0;whitespace=wrap;verticalLabelPosition=bottom;verticalAlign=top;fillColor=#2875E2;strokeColor=#ffffff;points=[[0.005,0.63,0],[0.1,0.2,0],[0.9,0.2,0],[0.5,0,0],[0.995,0.63,0],[0.72,0.99,0],[0.5,1,0],[0.28,0.99,0]];shape=mxgraph.kubernetes.icon2;prIcon=pod" parent="q0XRxBFANma4I5ZSVUxv-70" vertex="1">
          <mxGeometry x="5.984422776343532" y="3.5" width="25" height="24" as="geometry" />
        </mxCell>
        <mxCell id="q0XRxBFANma4I5ZSVUxv-81" value="" style="group" parent="akwmaDAdcuWCsk3jGBrk-1" vertex="1" connectable="0">
          <mxGeometry x="1200" y="840" width="500" height="80" as="geometry" />
        </mxCell>
        <mxCell id="q0XRxBFANma4I5ZSVUxv-57" value="" style="rounded=0;whiteSpace=wrap;html=1;fillColor=light-dark(#f0f6ff, #1d293b);strokeColor=#6c8ebf;" parent="q0XRxBFANma4I5ZSVUxv-81" vertex="1">
          <mxGeometry y="20" width="481.6932480569948" height="60" as="geometry" />
        </mxCell>
        <mxCell id="q0XRxBFANma4I5ZSVUxv-59" value="" style="rounded=0;whiteSpace=wrap;html=1;fillColor=light-dark(#f0f6ff, #1d293b);strokeColor=#6c8ebf;" parent="q0XRxBFANma4I5ZSVUxv-81" vertex="1">
          <mxGeometry x="9.097716968911925" y="10" width="481.6932480569948" height="60" as="geometry" />
        </mxCell>
        <mxCell id="q0XRxBFANma4I5ZSVUxv-60" value="&lt;b&gt;&lt;font style=&quot;font-size: 14px;&quot;&gt;Nodes&lt;/font&gt;&lt;/b&gt;" style="rounded=0;whiteSpace=wrap;html=1;fillColor=light-dark(#f0f6ff, #1d293b);strokeColor=#6c8ebf;" parent="q0XRxBFANma4I5ZSVUxv-81" vertex="1">
          <mxGeometry x="18.306751943005324" width="481.6932480569948" height="60" as="geometry" />
        </mxCell>
        <mxCell id="q0XRxBFANma4I5ZSVUxv-58" value="" style="aspect=fixed;sketch=0;html=1;dashed=0;whitespace=wrap;verticalLabelPosition=bottom;verticalAlign=top;fillColor=#2875E2;strokeColor=#ffffff;points=[[0.005,0.63,0],[0.1,0.2,0],[0.9,0.2,0],[0.5,0,0],[0.995,0.63,0],[0.72,0.99,0],[0.5,1,0],[0.28,0.99,0]];shape=mxgraph.kubernetes.icon2;prIcon=node" parent="q0XRxBFANma4I5ZSVUxv-81" vertex="1">
          <mxGeometry x="21.980246113989658" y="6" width="42.91612694300517" height="41.19948186528496" as="geometry" />
        </mxCell>
        <mxCell id="q0XRxBFANma4I5ZSVUxv-88" value="&lt;b&gt;4&lt;/b&gt;" style="ellipse;whiteSpace=wrap;html=1;aspect=fixed;fillColor=#d80073;fontColor=#ffffff;strokeColor=#A50040;" parent="akwmaDAdcuWCsk3jGBrk-1" vertex="1">
          <mxGeometry x="1447.92" y="590.5999999999999" width="30" height="30" as="geometry" />
        </mxCell>
        <mxCell id="q0XRxBFANma4I5ZSVUxv-90" value="&lt;b&gt;1&lt;/b&gt;" style="ellipse;whiteSpace=wrap;html=1;aspect=fixed;fillColor=#d80073;fontColor=#ffffff;strokeColor=#A50040;" parent="akwmaDAdcuWCsk3jGBrk-1" vertex="1">
          <mxGeometry x="1461.36" y="160" width="30" height="30" as="geometry" />
        </mxCell>
        <mxCell id="q0XRxBFANma4I5ZSVUxv-91" value="&lt;b&gt;2&lt;/b&gt;" style="ellipse;whiteSpace=wrap;html=1;aspect=fixed;fillColor=#d80073;fontColor=#ffffff;strokeColor=#A50040;" parent="akwmaDAdcuWCsk3jGBrk-1" vertex="1">
          <mxGeometry x="1730" y="399" width="30" height="30" as="geometry" />
        </mxCell>
        <mxCell id="q0XRxBFANma4I5ZSVUxv-92" value="&lt;b&gt;3&lt;/b&gt;" style="ellipse;whiteSpace=wrap;html=1;aspect=fixed;fillColor=#d80073;fontColor=#ffffff;strokeColor=#A50040;" parent="akwmaDAdcuWCsk3jGBrk-1" vertex="1">
          <mxGeometry x="1730" y="546" width="30" height="30" as="geometry" />
        </mxCell>
        <mxCell id="q0XRxBFANma4I5ZSVUxv-93" value="&lt;b&gt;Client Request&lt;/b&gt;&lt;div&gt;&lt;font face=&quot;Courier New&quot;&gt;GET /v1/chat/completions&lt;/font&gt;&lt;/div&gt;" style="text;html=1;align=left;verticalAlign=middle;whiteSpace=wrap;rounded=0;" parent="akwmaDAdcuWCsk3jGBrk-1" vertex="1">
          <mxGeometry x="1502.73" y="160" width="175" height="30" as="geometry" />
        </mxCell>
        <mxCell id="q0XRxBFANma4I5ZSVUxv-97" value="&lt;b&gt;&lt;font style=&quot;color: rgb(51, 0, 102);&quot;&gt;Body Based Routing&lt;/font&gt;&lt;/b&gt;" style="rounded=1;whiteSpace=wrap;html=1;fillColor=default;strokeColor=default;opacity=70;align=center;verticalAlign=middle;fontFamily=Helvetica;fontSize=12;fontColor=default;fontStyle=1;dashed=1;dashPattern=8 8;" parent="akwmaDAdcuWCsk3jGBrk-1" vertex="1">
          <mxGeometry x="1980" y="350.9999999999998" width="200" height="82" as="geometry" />
        </mxCell>
        <mxCell id="q0XRxBFANma4I5ZSVUxv-101" value="&lt;b&gt;&lt;font style=&quot;color: rgb(51, 0, 102);&quot;&gt;Endpoint Picker&lt;/font&gt;&lt;/b&gt;" style="rounded=1;whiteSpace=wrap;html=1;fillColor=default;strokeColor=default;opacity=70;align=center;verticalAlign=middle;fontFamily=Helvetica;fontSize=12;fontColor=default;fontStyle=1;dashed=1;dashPattern=8 8;" parent="akwmaDAdcuWCsk3jGBrk-1" vertex="1">
          <mxGeometry x="1980" y="545.9999999999998" width="200" height="82" as="geometry" />
        </mxCell>
        <mxCell id="q0XRxBFANma4I5ZSVUxv-105" value="Select &lt;b style=&quot;&quot;&gt;InferencePool&lt;/b&gt;&amp;nbsp;based on the model name from request body" style="text;html=1;align=left;verticalAlign=middle;whiteSpace=wrap;rounded=0;" parent="akwmaDAdcuWCsk3jGBrk-1" vertex="1">
          <mxGeometry x="1770" y="382" width="170" height="64" as="geometry" />
        </mxCell>
        <mxCell id="q0XRxBFANma4I5ZSVUxv-106" value="Pick endpoint with intelligent &lt;b&gt;algorithm&lt;/b&gt; like KVCache usage, prefix cache matches, etc.&amp;nbsp;" style="text;html=1;align=left;verticalAlign=middle;whiteSpace=wrap;rounded=0;" parent="akwmaDAdcuWCsk3jGBrk-1" vertex="1">
          <mxGeometry x="1770" y="530" width="140" height="64" as="geometry" />
        </mxCell>
        <mxCell id="q0XRxBFANma4I5ZSVUxv-107" value="Route to best matched pod decided by endpoint picker" style="text;html=1;align=left;verticalAlign=middle;whiteSpace=wrap;rounded=0;" parent="akwmaDAdcuWCsk3jGBrk-1" vertex="1">
          <mxGeometry x="1490" y="576" width="150" height="64" as="geometry" />
        </mxCell>
      </root>
    </mxGraphModel>
  </diagram>
  <diagram name="overview" id="T9LrAKYuAZdWI-t_hvRm">
    <mxGraphModel dx="456" dy="785" grid="1" gridSize="10" guides="1" tooltips="1" connect="1" arrows="0" fold="1" page="1" pageScale="1" pageWidth="850" pageHeight="1100" math="0" shadow="0">
      <root>
        <mxCell id="eMXe8HDpTmr21RtKlJOG-0" />
        <mxCell id="eMXe8HDpTmr21RtKlJOG-1" parent="eMXe8HDpTmr21RtKlJOG-0" />
        <mxCell id="eMXe8HDpTmr21RtKlJOG-2" value="Client Application" style="rounded=1;whiteSpace=wrap;html=1;fontStyle=1;fillColor=#fad7ac;strokeColor=#b46504;" parent="eMXe8HDpTmr21RtKlJOG-1" vertex="1">
          <mxGeometry x="1198.56" y="252" width="231.44" height="60" as="geometry" />
        </mxCell>
        <mxCell id="eMXe8HDpTmr21RtKlJOG-3" value="" style="rounded=0;whiteSpace=wrap;html=1;fillColor=#dae8fc;strokeColor=#6c8ebf;" parent="eMXe8HDpTmr21RtKlJOG-1" vertex="1">
          <mxGeometry x="960" y="450" width="1110" height="400" as="geometry" />
        </mxCell>
        <mxCell id="eMXe8HDpTmr21RtKlJOG-4" value="" style="rounded=1;whiteSpace=wrap;html=1;fillColor=#A9C4EB;strokeColor=#6c8ebf;arcSize=8;dashed=1;dashPattern=8 8;" parent="eMXe8HDpTmr21RtKlJOG-1" vertex="1">
          <mxGeometry x="1048.64" y="660" width="981.36" height="150" as="geometry" />
        </mxCell>
        <mxCell id="eMXe8HDpTmr21RtKlJOG-5" value="" style="rounded=0;whiteSpace=wrap;html=1;fillColor=#bac8d3;strokeColor=#23445d;fontColor=light-dark(#595959, #dd9c99);" parent="eMXe8HDpTmr21RtKlJOG-1" vertex="1">
          <mxGeometry x="1570" y="500" width="460" height="150" as="geometry" />
        </mxCell>
        <mxCell id="eMXe8HDpTmr21RtKlJOG-6" value="" style="rounded=0;whiteSpace=wrap;html=1;fillColor=#B266FF;strokeColor=#B266FF;" parent="eMXe8HDpTmr21RtKlJOG-1" vertex="1">
          <mxGeometry x="1048.6400000000003" y="500" width="501.36" height="150" as="geometry" />
        </mxCell>
        <mxCell id="eMXe8HDpTmr21RtKlJOG-7" style="edgeStyle=orthogonalEdgeStyle;rounded=0;orthogonalLoop=1;jettySize=auto;html=1;exitX=1;exitY=0.5;exitDx=0;exitDy=0;entryX=0;entryY=0.5;entryDx=0;entryDy=0;" parent="eMXe8HDpTmr21RtKlJOG-1" source="eMXe8HDpTmr21RtKlJOG-9" target="eMXe8HDpTmr21RtKlJOG-11" edge="1">
          <mxGeometry relative="1" as="geometry">
            <Array as="points">
              <mxPoint x="1510" y="578" />
              <mxPoint x="1510" y="578" />
            </Array>
          </mxGeometry>
        </mxCell>
        <mxCell id="eMXe8HDpTmr21RtKlJOG-8" value="Get Routing &lt;br&gt;Decision" style="edgeLabel;html=1;align=center;verticalAlign=middle;resizable=0;points=[];labelBackgroundColor=none;fontStyle=1" parent="eMXe8HDpTmr21RtKlJOG-7" vertex="1" connectable="0">
          <mxGeometry x="-0.1538" relative="1" as="geometry">
            <mxPoint x="-5" y="-18" as="offset" />
          </mxGeometry>
        </mxCell>
        <mxCell id="eMXe8HDpTmr21RtKlJOG-9" value="&lt;font style=&quot;font-size: 16px; color: light-dark(rgb(0, 0, 0), rgb(25, 0, 50));&quot;&gt;LLM Inference Gateway&lt;/font&gt;" style="rounded=1;whiteSpace=wrap;html=1;opacity=50;fontStyle=1" parent="eMXe8HDpTmr21RtKlJOG-1" vertex="1">
          <mxGeometry x="1134.09" y="547.5" width="317.27" height="60" as="geometry" />
        </mxCell>
        <mxCell id="eMXe8HDpTmr21RtKlJOG-10" value="" style="rounded=1;whiteSpace=wrap;html=1;opacity=50;strokeColor=#6c8ebf;align=center;verticalAlign=middle;fontFamily=Helvetica;fontSize=12;fontColor=default;fillColor=#dae8fc;fontStyle=1;" parent="eMXe8HDpTmr21RtKlJOG-1" vertex="1">
          <mxGeometry x="1145.46" y="690" width="140" height="60" as="geometry" />
        </mxCell>
        <mxCell id="eMXe8HDpTmr21RtKlJOG-11" value="" style="rounded=1;whiteSpace=wrap;html=1;textOpacity=50;opacity=50;dashed=1;" parent="eMXe8HDpTmr21RtKlJOG-1" vertex="1">
          <mxGeometry x="1585" y="538" width="430" height="79" as="geometry" />
        </mxCell>
        <mxCell id="eMXe8HDpTmr21RtKlJOG-12" style="edgeStyle=orthogonalEdgeStyle;rounded=0;orthogonalLoop=1;jettySize=auto;html=1;exitX=0.5;exitY=1;exitDx=0;exitDy=0;endArrow=none;endFill=0;entryX=0.5;entryY=0;entryDx=0;entryDy=0;" parent="eMXe8HDpTmr21RtKlJOG-1" source="eMXe8HDpTmr21RtKlJOG-36" target="eMXe8HDpTmr21RtKlJOG-43" edge="1">
          <mxGeometry relative="1" as="geometry">
            <mxPoint x="1293" y="352" as="targetPoint" />
          </mxGeometry>
        </mxCell>
        <mxCell id="eMXe8HDpTmr21RtKlJOG-13" style="edgeStyle=orthogonalEdgeStyle;rounded=0;orthogonalLoop=1;jettySize=auto;html=1;exitX=0.5;exitY=1;exitDx=0;exitDy=0;entryX=0.5;entryY=0;entryDx=0;entryDy=0;" parent="eMXe8HDpTmr21RtKlJOG-1" source="eMXe8HDpTmr21RtKlJOG-14" target="eMXe8HDpTmr21RtKlJOG-9" edge="1">
          <mxGeometry relative="1" as="geometry" />
        </mxCell>
        <mxCell id="eMXe8HDpTmr21RtKlJOG-14" value="Loadbalancer" style="rounded=1;whiteSpace=wrap;html=1;fontStyle=1;fillColor=#647687;fontColor=#ffffff;strokeColor=#314354;" parent="eMXe8HDpTmr21RtKlJOG-1" vertex="1">
          <mxGeometry x="1232.73" y="440" width="120" height="30" as="geometry" />
        </mxCell>
        <mxCell id="eMXe8HDpTmr21RtKlJOG-15" value="" style="rounded=1;whiteSpace=wrap;html=1;opacity=50;strokeColor=#6c8ebf;align=center;verticalAlign=middle;fontFamily=Helvetica;fontSize=12;fontColor=default;fontStyle=1;fillColor=#dae8fc;" parent="eMXe8HDpTmr21RtKlJOG-1" vertex="1">
          <mxGeometry x="1159.1" y="700" width="140" height="60" as="geometry" />
        </mxCell>
        <mxCell id="eMXe8HDpTmr21RtKlJOG-16" value="" style="rounded=1;whiteSpace=wrap;html=1;opacity=50;strokeColor=#6c8ebf;align=center;verticalAlign=middle;fontFamily=Helvetica;fontSize=12;fontColor=default;fillColor=#dae8fc;fontStyle=1;" parent="eMXe8HDpTmr21RtKlJOG-1" vertex="1">
          <mxGeometry x="1490" y="690" width="140" height="60" as="geometry" />
        </mxCell>
        <mxCell id="eMXe8HDpTmr21RtKlJOG-17" value="" style="rounded=1;whiteSpace=wrap;html=1;opacity=50;strokeColor=#6c8ebf;align=center;verticalAlign=middle;fontFamily=Helvetica;fontSize=12;fontColor=default;fontStyle=1;fillColor=#dae8fc;" parent="eMXe8HDpTmr21RtKlJOG-1" vertex="1">
          <mxGeometry x="1503.6400000000003" y="700" width="140" height="60" as="geometry" />
        </mxCell>
        <mxCell id="eMXe8HDpTmr21RtKlJOG-18" style="edgeStyle=orthogonalEdgeStyle;rounded=0;orthogonalLoop=1;jettySize=auto;html=1;exitX=0;exitY=0.75;exitDx=0;exitDy=0;entryX=1;entryY=0.75;entryDx=0;entryDy=0;dashed=1;" parent="eMXe8HDpTmr21RtKlJOG-1" edge="1">
          <mxGeometry relative="1" as="geometry">
            <mxPoint x="1520" y="750" as="sourcePoint" />
            <mxPoint x="1315.46" y="750" as="targetPoint" />
          </mxGeometry>
        </mxCell>
        <mxCell id="eMXe8HDpTmr21RtKlJOG-19" value="&lt;span&gt;Prefill Calling&lt;/span&gt;" style="edgeLabel;html=1;align=center;verticalAlign=middle;resizable=0;points=[];labelBackgroundColor=light-dark(#a9c4ea, #ededed);fontStyle=1" parent="eMXe8HDpTmr21RtKlJOG-18" vertex="1" connectable="0">
          <mxGeometry x="-0.4281" relative="1" as="geometry">
            <mxPoint x="-48" y="-1" as="offset" />
          </mxGeometry>
        </mxCell>
        <mxCell id="eMXe8HDpTmr21RtKlJOG-20" value="Decode Pods" style="rounded=1;whiteSpace=wrap;html=1;fillColor=#dae8fc;strokeColor=#6c8ebf;fontStyle=1" parent="eMXe8HDpTmr21RtKlJOG-1" vertex="1">
          <mxGeometry x="1520" y="710" width="140" height="60" as="geometry" />
        </mxCell>
        <mxCell id="eMXe8HDpTmr21RtKlJOG-22" value="Inference Pool" style="text;html=1;align=left;verticalAlign=middle;whiteSpace=wrap;rounded=0;fontStyle=1;spacingLeft=5;fontColor=#FFFFFF;fontSize=12;" parent="eMXe8HDpTmr21RtKlJOG-1" vertex="1">
          <mxGeometry x="1067.65" y="660" width="114" height="30" as="geometry" />
        </mxCell>
        <mxCell id="eMXe8HDpTmr21RtKlJOG-23" value="Envoy AI Gateway" style="text;html=1;align=left;verticalAlign=middle;whiteSpace=wrap;rounded=0;fontStyle=1;spacingLeft=5;fontColor=#FFFFFF;" parent="eMXe8HDpTmr21RtKlJOG-1" vertex="1">
          <mxGeometry x="1067.65" y="500" width="126.36" height="30" as="geometry" />
        </mxCell>
        <mxCell id="eMXe8HDpTmr21RtKlJOG-24" value="" style="group;fontStyle=1" parent="eMXe8HDpTmr21RtKlJOG-1" vertex="1" connectable="0">
          <mxGeometry x="1620" y="560" width="370" height="35" as="geometry" />
        </mxCell>
        <mxCell id="eMXe8HDpTmr21RtKlJOG-25" value="KV-Cache Awareness" style="rounded=1;whiteSpace=wrap;html=1;fontStyle=0;opacity=50;" parent="eMXe8HDpTmr21RtKlJOG-24" vertex="1">
          <mxGeometry width="112.60869565217389" height="35" as="geometry" />
        </mxCell>
        <mxCell id="eMXe8HDpTmr21RtKlJOG-26" value="Prefill/Decode&lt;br&gt;Disaggregation" style="rounded=1;whiteSpace=wrap;html=1;fontStyle=0;opacity=50;" parent="eMXe8HDpTmr21RtKlJOG-24" vertex="1">
          <mxGeometry x="128.69565217391303" width="112.60869565217389" height="35" as="geometry" />
        </mxCell>
        <mxCell id="eMXe8HDpTmr21RtKlJOG-27" value="Load Awareness" style="rounded=1;whiteSpace=wrap;html=1;fontStyle=0;opacity=50;" parent="eMXe8HDpTmr21RtKlJOG-24" vertex="1">
          <mxGeometry x="257.3913043478261" width="112.60869565217389" height="35" as="geometry" />
        </mxCell>
        <mxCell id="eMXe8HDpTmr21RtKlJOG-28" value="&lt;span style=&quot;&quot;&gt;Endpoint Picker&lt;/span&gt;" style="text;html=1;align=right;verticalAlign=middle;whiteSpace=wrap;rounded=0;fontStyle=1;spacingLeft=5;fontColor=light-dark(#ffffff, #dd9c99);" parent="eMXe8HDpTmr21RtKlJOG-1" vertex="1">
          <mxGeometry x="1858.6400000000003" y="500" width="156.36" height="30" as="geometry" />
        </mxCell>
        <mxCell id="eMXe8HDpTmr21RtKlJOG-29" value="" style="shape=image;verticalLabelPosition=bottom;labelBackgroundColor=default;verticalAlign=top;aspect=fixed;imageAspect=0;image=data:image/png,iVBORw0KGgoAAAANSUhEUgAAAfQAAAH0CAYAAADL1t+KAAAACXBIWXMAAA7EAAAOxAGVKw4bAAAEvGlUWHRYTUw6Y29tLmFkb2JlLnhtcAAAAAAAPD94cGFja2V0IGJlZ2luPSfvu78nIGlkPSdXNU0wTXBDZWhpSHpyZVN6TlRjemtjOWQnPz4KPHg6eG1wbWV0YSB4bWxuczp4PSdhZG9iZTpuczptZXRhLyc+CjxyZGY6UkRGIHhtbG5zOnJkZj0naHR0cDovL3d3dy53My5vcmcvMTk5OS8wMi8yMi1yZGYtc3ludGF4LW5zIyc+CgogPHJkZjpEZXNjcmlwdGlvbiByZGY6YWJvdXQ9JycKICB4bWxuczpBdHRyaWI9J2h0dHA6Ly9ucy5hdHRyaWJ1dGlvbi5jb20vYWRzLzEuMC8nPgogIDxBdHRyaWI6QWRzPgogICA8cmRmOlNlcT4KICAgIDxyZGY6bGkgcmRmOnBhcnNlVHlwZT0nUmVzb3VyY2UnPgogICAgIDxBdHRyaWI6Q3JlYXRlZD4yMDI1LTA3LTA5PC9BdHRyaWI6Q3JlYXRlZD4KICAgICA8QXR0cmliOkV4dElkPjI5ODExZTlmLWJiOTctNGRmYS04OGJkLWFjNmM0MjdiZGI4NTwvQXR0cmliOkV4dElkPgogICAgIDxBdHRyaWI6RmJJZD41MjUyNjU5MTQxNzk1ODA8L0F0dHJpYjpGYklkPgogICAgIDxBdHRyaWI6VG91Y2hUeXBlPjI8L0F0dHJpYjpUb3VjaFR5cGU+CiAgICA8L3JkZjpsaT4KICAgPC9yZGY6U2VxPgogIDwvQXR0cmliOkFkcz4KIDwvcmRmOkRlc2NyaXB0aW9uPgoKIDxyZGY6RGVzY3JpcHRpb24gcmRmOmFib3V0PScnCiAgeG1sbnM6ZGM9J2h0dHA6Ly9wdXJsLm9yZy9kYy9lbGVtZW50cy8xLjEvJz4KICA8ZGM6dGl0bGU+CiAgIDxyZGY6QWx0PgogICAgPHJkZjpsaSB4bWw6bGFuZz0neC1kZWZhdWx0Jz5BSSAtIDE8L3JkZjpsaT4KICAgPC9yZGY6QWx0PgogIDwvZGM6dGl0bGU+CiA8L3JkZjpEZXNjcmlwdGlvbj4KCiA8cmRmOkRlc2NyaXB0aW9uIHJkZjphYm91dD0nJwogIHhtbG5zOnBkZj0naHR0cDovL25zLmFkb2JlLmNvbS9wZGYvMS4zLyc+CiAgPHBkZjpBdXRob3I+RXJpY2EgU3VuZGJlcmc8L3BkZjpBdXRob3I+CiA8L3JkZjpEZXNjcmlwdGlvbj4KCiA8cmRmOkRlc2NyaXB0aW9uIHJkZjphYm91dD0nJwogIHhtbG5zOnhtcD0naHR0cDovL25zLmFkb2JlLmNvbS94YXAvMS4wLyc+CiAgPHhtcDpDcmVhdG9yVG9vbD5DYW52YSAoUmVuZGVyZXIpIGRvYz1EQUdzcjgwSUpNOCB1c2VyPVVBRGp6WUhPdXIwIGJyYW5kPUVyaWNhIFN1bmRiZXJn4oCZcyB0ZWFtIHRlbXBsYXRlPTwveG1wOkNyZWF0b3JUb29sPgogPC9yZGY6RGVzY3JpcHRpb24+CjwvcmRmOlJERj4KPC94OnhtcG1ldGE+Cjw/eHBhY2tldCBlbmQ9J3InPz4jvt56AABm4UlEQVR4nOzdeXgW5b3G8W8SEkK2NyQQRXEfjnihRUUFh11ate6iUFC7WNuqVTvuimIXi6C1LlO1ao/Hc9qDgoAgCooLalBGUFGohWIZrQKChhDyZk8gyflj9FxtqUDI8szMe3+uy/+8wi0mc+eZ9/k9TxoiIiISeWmmA4iIiEj7qdBFRERiQIUuIiISAyp0ERGRGFChi4iIxIAKXUREJAZU6CIiIjGgQhcREYkBFbpIjDi2nw0cA5QABf/wD0DVl/8kgS2uZ71lJKSIdAoVukiEObbfCzgJGAacCBzXxi/xNuABbwKvup61rWMTikhXUaGLRIxj+8cBpwGnAyd08Jf3gIXAQtezVnXw1xaRTqRCF4kIx/ZPA+4CjuyiP3IlcLXrWaVd9OeJSDuo0EVCzrH9I4EHgZGGIiwCbnA96y+G/nwR2QMqdJGQcmy/BLgb+J7pLF/6H+Am17PKTAcRkZ2lmw4gIjtzbP9GwCc8ZQ7wA8D/MpuIhIxW6CIh4tj+mcC9gGU6y26sA651PWuB6SAiElChi4SAY/v9gIeBMaaztNFi4HLXs9aZDiKS6lToIgY5tp8P/Aq4xnSWdroX+KXrWdWmg4ikKhW6iCGO7f8ImAr0Np2lg5QBt7qe9ZjpICKpSIUu0sUc2x8MPAoMNJ2lk6wCLnU9a7npICKpRIUu0kUc2+8D3ANMNJ2lizwJXO961mbTQURSgcbWRLqAY/uTCcbQUqXMAS4A1jm2f6vpICKpQCt0kU7k2P5YglX5wYajmPZ34DrXs+aZDiISVyp0kU7g2H5/4BHMHdcaVqXAZa5nrTUdRCRuVOgiHcix/QQwBbjSdJaQexCY7HpW0nQQkbjQZ+giHcSx/Z8CH6Ey3xNXAh85tn+56SAicaEVukg7ObY/lGAMbYDpLBG1mmDMbanpICJRpkIX2UuO7fcF7gPON50lJmYTnA+/0XQQkShSoYu0kWP72cAk4EYg23CcuKkHfgPc6XpWg+kwIlGiQhdpA8f2JxAUzgGms8TcBuAG17OeMh1EJCpU6CJ7wLH9AQSfkw81nSXFLCX4fH216SAiYadCF9kFx/aLgGnAT0xnSXGPAre4nlVhOohIWGlsTeRrOLbvEIyhqczNu5RgzO1npoOIhJVW6CL/wrH9McDDQD/TWeTfWktw2lyp6SAiYaJCF/mSY/uHEoyhnWU6i+yR+YDjetanpoOIhIEKXVKeY/u5wGTgZtNZZK9MA6a4nlVnOoiISSp0SWmO7X8XuAvoYzqLtMsm4CbXs6abDiJiigpdUpJj+4MIdk4PMp1FOtRygjG3VaaDiHQ1FbqkFMf2SwhW5D8wHEU61+MEK/Zy00FEuorG1iRlOLZ/A+CjMk8FPyQYc7vedBCRrqIVusSeY/unE+xe1xhaaloHXO561mLTQUQ6kwpdYsux/X4E8+RjTGeRUHgeuMr1rI9NBxHpDCp0iR3H9vOBXwDXmc4iofRb4HbXs6pNBxHpSCp0iRXH9i8BpgIlprNIqH0BTHI9679NBxHpKCp0iQXH9gcTjKENNJ1FImUVwZjbctNBRNpLhS6R5th+H+Bu4ELTWSTSpgM3up612XQQkb2lsTWJLMf2byHYwawyl/a6CPibY/uTTAcR2VtaoUvkOLZ/LnAPcIjpLBJLHwPXup4133QQkbZQoUtkOLbfH3gEGGk6i6SEUoJrWteaDiKyJ1ToEnqO7SeAXwNXmc4iKel3wM9dz0qaDiKyKyp0CTXH9i8DpgDFprNISisHJrue9ajpICJfR4UuoeTY/lCCMbQBprOI/IPVBGNuS00HEflXKnQJFcf2+wL3AuNMZxHZhaeA613P2mg6iMhXVOgSCo7tZwM3AzcCPQzHEdkTdQRX8f7G9awG02FEVOhinGP74wkOhznQdBaRvfApcIPrWbNNB5HUpkIXYxzbH0DwOflQ01lEOsBSgs/XV5sOIqlJhS5dzrH9IuAO4DLTWUQ6wcMEO+IrTAeR1KKjX6VLObb/M8BHZS7xdTngO7Z/pekgklq0Qpcu4dj+SIJT3vqbziLShdYSnDZXajqIxJ8KXTqVY/sHAfcD55jOImLQXILz4T81HUTiS4UuncKx/RzgVuAW01lEQqKB4FKhqa5n1ZkOI/GjQpcO59j+RQTzufuZziISQp8R3L3+pOkgEi8qdOkwju0PJBhDG2w6i0gELCcYc1tlOojEgwpd2s2x/V4EK/Ifms4iEkGPAZNczyo3HUSiTWNr0i6O7V8HfITKXGRv/YhgzO0a00Ek2rRCl73i2P4YggM0+pnOIhIj64DLXc9abDqIRI8KXdrEsf1DgQeA00xnEYmxBYDjetbHpoNIdKjQZY84tp8L/BK43nAUkVTyG+B217NqTQeR8FOhy245tn8xMA3Yx3QWkRT0OXCz61l/NB1Ewk2FLl/Lsf1BBGNog0xnERFWEIy5rTAdRMJJhS47cWy/D8EY2ndNZxGRnfyJ4P71MtNBJFw0tib/xLH9ScDfUJmLhNX3CMbcbjIdRMJFK3QBwLH9swnOmT7MdBYR2WM+waUvz5kOIuap0FOcY/v9Ca41HWk6i4jstcUE8+vrTAcRc1ToKcqx/QTwK8AxnUVEOsx9wC9cz6o2HUS6ngo9BTm2fykwBehlOouIdLgtwK2uZ/2n6SDStVToKcSx/aEEY2gDTGcRkU63imDMbbnpINI1VOgpwLH9vsBvge+YziIiXW4GcJ3rWZtNB5HOpUKPMcf2s4EbgZuAHMNxRMScOmCa61lTTAeRzqNCjynH9s8nWJUfZDqLiITGJwSr9bmmg0jHU6HHjGP7Awg+Jx9qOouIhFYpcJnrWWtNB5GOo0KPCcf2iwh2rl9uOouIRMZDBDvik6aDSPvp6NcYcGz/SoITo1TmItIWVwAfO7b/U9NBpP20Qo8wx/ZHEpzy1t90FhGJvNUEY25LTQeRvaNCjyDH9g8C7gXGms4iIrEzB7jG9ayNpoNI26jQI8Sx/RzgFuA6INtwHBGJrwbgNwSjbg2mw8ieUaFHhGP7FxD8gO1vOouIpIwNwI2uZ800HUR2T4Ueco7tDyQYQxtsOouIpKylBJ+vrzYdRL6eCj2kHNvvBUwDfmQ6i4jIl/5AMOZWbjqI7ExjayHk2P61BGNoKnMRCZOfAOsc29e1yyGkFXqIOLY/BngY6Gc6i4jIbqwDLnc9a7HpIBJQoYeAY/uHAi5whuksIiJt9CzBmNvHpoOkOhW6QY7t5wI/J7gRTUQkyu4EprieVWs6SKpSoRvi2P73CX4A9jWdRUSkg2wGbnI9639NB0lFKvQu5tj+IIIxtEGms4iIdJIVBGNuK0wHSSUq9C7i2H4JcDfwPdNZRES6yH8DN7ueVWY6SCpQoXcBx/ZvAiYDeaaziERVUZ9uFBR3o66qmbL1203HkT1XDfza9ay7TQeJOxV6J3Js/0yCS1Qs01lEoqR7TjonfDufY8bkUbx/NxK9uu3073zxSROfrmnkr2/V8Zc3a9ne1GogqbTBOoLd8AtNB4krFXoncGy/H8E8+RjTWUSipHi/TEZNSDD49AKysvf88dTU0MK7L9aw+H8r2bpZq/eQW0wwv77OdJC4UaF3IMf284HbgatNZxGJkiOG5DBsbIIBQ3Pa/bWWLahi/gNbqa9p6YBk0onuAX7lela16SBxoULvII7t/xi4A+htOotIFGR2T2Pw6QUMPz/BPgdldujXrk028+xDW1m+UF0RcmXAJNezHjcdJA5U6O3k2P5ggjG0gaaziERB0b7dGDEuwZAzCsjO69zrJP7+QQMzppZpE134rSIYc1tuOkiUqdD3kmP7fQheGU00nUUkCvoN6sHI8QkG2LmkdeG1UM07Wnn1yUpefHwbO7Zr41zIPQHc4HrWZtNBokiFvhcc278NuBlo/wd+IjGWmZXGcafmM2Jcgj6HZhnNUrF5BzOmlbFuRb3RHLJbtcBU17Ommg4SNSr0NnBs/zzgt8DBhqOIhFqiVzdGjE9w4pkF5BSE65bm91+tYd795VRtbTYdRXbtY+A617OeMR0kKlToe8Cx/f7AI8BI01lEwuywo3swYlyCo0bkkh6uHv8nDbUtLHy0gjfnJmnVW/iwKwUucz1rrekgYadC3wXH9hMEO9evMJ1FJKy6ZaYx6OQ8RoxLsH+/7qbjtMnGDxt5cmoZm/wm01Fk9x4AbnM9K2k6SFip0L+GY/tXEMyUF5nOIhJGBcUZDD8vwYlnF5BXmGE6zl5raYE35iR5/g8VNNZrdj3kyglK/RHTQcJIhf4vHNsfCTwEDDCdRSSMDj4ymxHjEhw9Opf0jPg8QpJbdvD0feX8uVTXeUfAaoIxt6Wmg4RJfH4a28mx/YMIxtDOM51FJGwyuqVxzJg8Ro5PcED/aL1Wb6u1y+uYeecWKst2mI4iuzeLYOPcRtNBwiDlC92x/RyCEbQbgGzDcURCJa9nBsPGJhh6TgH5RdF9rd5WTQ2tvPh4Ba/NqKRFb+HDrh64C7jL9awG02FMSulCd2x/AsEd5X1NZxEJk/37dWf0xATHnJRHRmbqPiY+/6SJJ+8oY/2aRtNRZPfWExxKM8t0EFNS8ifVsf2BBMe1DjadRSQs0jPSOHp0LiPGJTj4SL2s+kprKyxfUMX8B3XhS0QsJfh8fbXpIF0tpQrdsf1ewFTgx6aziIRFTkE6Q89NMOzcAhK9d753XAI1lc3Mf2Ar7yzShS8R8Qhwq+tZFaaDdJWUKXTH9q8GfgEUms4iEgZ9Dsti1HcKGXRyHt1S+LV6W320sp4ZU7dQ/pkufImAbcAvXM96wHSQrhD7n2LH9scADwP9TGcRMS09HY4akcvI8YUcOlCv1fdW8/ZWXpleyct/1IUvEbGW4LS5UtNBOlNsC/3L1+sPABNMZxExrUdeOvY5BQwbm6DnPnqt3lEqNu/giSllfLRSF75ExAzgyri+ho9loTu2PxH4HdDLdBYRk0oOzGT0xEKOOyWfzO6x/HEPhRUv1TDPLaemUhe+RMAWglKP3W74WP2EO7afT3Cf7pmms4iYkpYGRw4Ldqv3G9TDdJyUUV/TwoKHt+LNr9KFL9EwD/i+61mx2eUYm0J3bL8vsAgd2SopKjs3nSFnFjD8/AKK+2SajpOyNn7YyPTby/j8E134EgGrgW+6nvW56SAdIRaF7tj+AOAVYF/TWUS6Wu8DMhk5PsEJp+WTlR3iO0tTSEtzK6WzkrzwWAVNDVquh9xGglL/0HSQ9op8oTu2PwR4GcgznUWkq6SlwRFDchgxPsHhx+eQFvmf5HiqLNvB0/eW88EbuvAl5KqA0a5nvWc6SHtE+jHg2P7BwHtAT8NRRLpEVnY6Q87IZ/j5CXofoNfqUbF2eR0zpm4hWa4LX0Lsc+CYKL9+j2yhO7ZfALyL5sslBRTvF7xWH3x6Pt1z9Fo9ipoaWnjhsW2UPqULX0Lsz8AQ17MiOYcY5YHUZ1GZS8z1H5zD0HMLOGp4rukoofLOC9UcfkIOBcXRuQEuKzuds68sZsgZ+cyYuoVPVqf0xWBh9Q2CK1kjOSkVyRW6Y/u/JDjGVSR2MrunccJp+Yw4P8E+B2eZjhMaVVubWTovyZtzq6hNNpOVncZpPylixLhC0iP20qK1Fbz5VTz3+6001Gq5HkLXu551j+kQbRW5Qv/yprSVpnOIdLTCkm6MHJ9gyJkF9MiLWEN1ovVrGimdXcnKV2tp3rHzjvH9rCwuuKWEvod3N5CufaormnnmgXJWvFRjOorsrJ/rWb7pEG0RxUJfAxxhOodIR+l3bA9GjEtw5LBc0tTjADTvaGXVa7WUzkry6Zrdv5pOS4OhYxOccWkR2bnR+0v8aGU9T0wpo2KzNs2FyNuuZ0Xqiu1IFbpj+5OBX5vOIdJemVlpDDoln5HjEvQ5TK/Vv1JT2Yz3TBVvzk1StbXtx6gWFGdw7tW9OOak6E2x7tjeyst/3MYr0ytp1oUvYXGF61m/Nx1iT0Wm0B3bLwQ2ATrLUiIr0asbI8YlOPGsAnIKoreS7Cwb/9bIktlJVrxc0yFl1m9QDy6cXEJhSfT2/ZZ/tp0ZU7fowpdwKAcOjMqu9ygV+lRgkukcInvj0IHZjByX4KiReZHbwNVZWlrgg9IaSmcn+XhVx+/4zsxK45Qf9mT0xEIyukXmUff/3llUzTO/20ptUhe+GBaZDXKR+C7/cnW+AZ0GJxGSkZnGoG/lMWJcgr7/Eb0NW52lrqqFt56tYsnsZJcctFJyYCYTbynhkKOid/97XXULz/1+K8ue04UvBkVmlR6VQr8duM10DpE9UVCcwbCxCexzCsgrjM6cdGfb/HETS2YneXdRNdubur6dhpxRwFlXFEfyo471axp58g5d+GKQ43rW70yH2J2oFPrnwD6mc4jsysEDshkxLsHA0bmRfMXbGVpbYLUX7FZft8L8Aic3kcE5VxVz/LfzTUdps5bmVl6bmWTRYxVGfiFKcStdzzrGdIjdCf1Tx7H94cAS0zlE/p2MbmkcfVIuI8cXcuAReq3+lYaaFpYtrGLJrCQVn4dvFOuQo7K58LYSeu0fvfPwK8t2MPPOLaxdXmc6Sqr5D9ez1pkOsStRKPQHgStM5xD5R7mJDIafV4B9TiJSx492trL121kyJ8nbC6tpagj3CWgZmWl886JCvvX9nnTLDP2jcCd/Lq1lzj1b9mq8T/bKz13PCvXYdOi/ix3br0C3qUlI7N+vO6MmJDh2TB4ZESyBztDaGtwmtmR2kr8ui96qsahPNy6cXMJhR0dvIraxroXn/7OCJXOStIb796c4+IvrWUeZDrEroX4iObZ/DMH1qCLGpGekMXBULiPGJSK5U7qzNNa38Pbz1bw+M8nWTdtNx2m3QSfnce7PepHXM3pvXDb5TTw5tYyNHzaajhJ3+7qe9YXpEF8n7KcuHGc6gKSunIJ0hp6TYNjYAhK9w/6j0nXKP9vOG08nWfZcNY118VkWrniphtVL6zjrp8WceHYBaaFe7vyz/awsrnusL0vnJXnu4Qoa6+Pz/yVkBgHPmw7xdcL+lBpkOoCknn0PzmL0xEKOPTmPzKwIPdU72d/erad0VpI1Xm1sZ6IbaluYdfcWli2s4oJbS9g3QrfdpaXDsPMSfGNUHvPuL+f9V3XhSycIdaGH+mnl2P67qNSlC6Slw1HDcxk5PhHJz1I7S1NDK+++WM3rMyspWx/91+ptkZ4OoyYUcuolRWRlh/pR+W+tW1HPjGm68KWDzXc96xzTIb5OqL9LHduP6TpAwqJHXjr22QUMHZugaN+wv7DqOtu+2MGbTyfx5ldRX5Par28LS7ox4ebe9B+cYzpKm21vbOWl/9nG4icqaWnW47QDfOJ61iGmQ3yd0Ba6Y/vdgNRaEkiXKTkwk1ETCjnulPxIrr46y0cr61kyO8kHS2ppSe0e38k3RuZy3jW9Irmfomz9dmZMLePvH3T8mfmpxvWs0D4wQhvMsf1swPzRUhIrA4bmMGpCIf2O1Wv1f/TOompen1HJZ76OFt2V7jnpnHlZEcPOS5iOslfefbGaea4ufGmnbq5nhfIvMMyFngdUm84h8dBvUA/Ov7YX+0Rok1Nnq65oZsmcJEvnJamr0nK8Lfazspg4qYQD+kfvdMCGmhaeeWAryxZUmY4SVT1czwrlq44wF3ohsM10Dom+Uy8p4tQf6myir3y6piG4e/wl7YJur5HfSXD6T4rIyo7ehS8fr2pg5p1lKbfZsQMUuJ4VysVmmAu9J1BhOodE28k/6MlpPy4yHSMUVrxUw+tPVbJhrQ4f6UgFxRmcd00vBo6O5u3OL/9pGwsf1aO2DYpczwrlYlOFLrF11IhcLpm2r+kYRlVXNOPNr+KNp5PUbAvlx36x0W9QDy6cXEJhSfQ2zVVs3sGMaWWhuBEvAlTobaVCl/bIL8pg8qwD6d4jeq9CO8KGDxtZMjvJe6/U0Lxd40pdJTMrjVMvKWLUhEQkr9B9/9Ua5t1frgtfdi20hR69XyVF9sDplxalZJm/90oNbzyd5O9/DuWendjb3tTKcw9v5Z0XqvnOzb0jd/b/MSflccTgHF74rwpKn0qajiNtFNpfIbVCl72VlZ3GHc8fQmb30H57d6jaZDNvPVvNG08nSW7RqWBhMuSMAs66spic/Oj9crnhw0ZmTtvCZ+u05+JfaIUu0lUOPCI7Jcp8k9/EktlJ3n2xmh16rR5KyxZU8cEbtZzrFHPcKfmm47TJAYd357rH+/LGnCTP/0EXvkSBCl1ip8+h8Z41X/lqDUvnVbHuPW1gioLaZDPTby9j+YJqJkzqTfF+maYj7bH0dBg5PsGx38xjzr3lrHpNo45hpkKX2Inj6ry+poVlz1VROitJZZleq0fRuvfqmXrBBr71vZ5887uFdMuMzvdpflEGF0/Zh7XL85l55xZ9D4aUCl1iJ05Xe5Zv3M5rMyt5+/lqtjfG6D8sRTVvb2XRf1Ww4qVqxt/YO3JHEPcfnMMv5x3EwkcrePlPofwYOaWp0CV2on6rVGsr/PWtOpbMTrL27TrTcaQTbNmwnYeu2sTxp+Zz9lXF5BVmmI7UJqdfWsTx385n+q+/YP0abZoLCxW6xE5UN4g11rWwfGE1pbOSbN2k4zhTwTuLqvnLm7WcdUUxQ84sIC06b+EpOTCTa/7Ql+ULqpj/4NaUv2Y3DFToEjvNEevC8o3bWTInyfKF1TTW6aGYauprWnjqri289VwVF922DyUHRmfTXFoaDDmzgCOH5zL/wWD+XsxRoUvsNO+Ixgr9w3fqKZ1VyV/fqovV5/6yd9avaeTOizYwemKCUy4uIis7Osv1vMIMLpxcwpAz8pkxdQvln0Xst+qYUKFL7OxoCm87NjW08M6iGl6fWcmWDXroyT9raW5l8fRKVrxUw4WTS+g3KFqb5g47ugeTnjiAV6ZX8vIft0X246+oUqFL7OwI4Qq9YvMO3pybxJtfRUOtXqvLrlWW7eChn21i4Og8xl5dTKJXdB7VGZlpnHJxT44/NZ8nppTx0Uqdl9BVovNdIrKHwnQZif9+PUtmJ/ngjVpa1ePSRqteq2HtsjpOv6yI4WMTpEXoBNmiPt246qH9eO/lGubeX05NpS586WwqdIkd0yv07U2trHipmtdnJPn8kyajWST6GutbmHtfOcu+3DS3nxWtkxCP/VYeR5yYw4KHt+LNr9J+kU6kQpfYMbXLvbJsB2/OrcKbn6SuSstx6Vib/CbuvngDI85PcNqPi+ieE53leo+8dMbd0JsTzypg+u1l+kW3k6jQJXZMbIqbe185S+bouknpXK0tUDoryfuLazjv2t4MHJVrOlKb9D28Ozc/cQCvzajkhccqaGrQcr0j/R8AAAD//+ydd2BUVd7+n6lp0zKTTEJCEhBZEQUpQqihg5QAAoEExIqsygb7KgHslHVXFsXs8vKzLxB6V0AUJBSD1AUX4UUEE0IgpM1k0mYyM78/svEFTLmTuffcc+eez3/vu3LnZOae85xvl84Vj8HgiFuETnHnj7HEHwY57MVufDr3Gpa/UCDJvuqD0kzIyIpHp/7SupDQDhN0RsAhRlKcmvm6GCJw7kglFkzJxd7VZZJreWyyqvHE4mg8taSVpLL4aYYJOiPgEKP2VSWhyVmMwMLl9GJbZjHeffiKJPuqd0gMxdy1cRiYapJUFj+NsK+PEXCIYaEzQWeIzbXLTvx95hWs++sNyfVV1wYrMT7dgqeXxEgq2Y822DfHCDhEsdBVTNAZ4uP1Aoe32LEgNRfHdkuvr/ofeoTgT8tixF6GZGGCzgg4xBB0tQ8WujlajeSnLRj2SLiAK2LIGUepGyvfKkRm+lXJTe6L6xCER96KEnsZkoQJOiPgcIuQ9MvV5d5lsA6vbUzAkIdMGD3TjFdXxqFtp2CBV8eQKxdOVGHR1Dzs/rSUqg6KzdF1iA69xhjEXobkYILOCDjEGEGq4pikGxx265aLbqvF7H/GYsorkQjRse3I4J9alxc7PyrB4ul5+PmkdMorJzxvgcGiEnsZkoKdIAwGD3B1uXsaaEurUAC9xxowd208ejyg53tpDAYA4EaeCx/+6SpWvV2IChv9fdW1wUqMnGEWexmSggk6IyAhXZPLVdCb6jOvM6kwbb4V6ZkxiIjV8LU0BuMWju4qxzuTc5Gzg/6+6j1H6VnWuw+wb4oRkJBOjOMaQ+cS36+fKT1yhtmnZDsGgytVDg/WLLqBZc/k40YevUlzKrUCnQewbnJcYYLOCEhqCZ9RXIWXa2JS/UzpjKx4tO8e4s/SGIxG+eV0NRZNy8OO5SVw1dBprnfoGSr2EiQDE3RGQEI6o5e7he7busyt1Jj1QQwefjMKOhNLEGLwj8ftxTf/KsWC1FxcOE5f0lxse2mNixUTJugMSaALV2HkDO4jI30VTn/hmuXe0lBAt6E6zFsbj34TjS369wxGc5QV1iJz9lV8Nv867MX0JM2ZrKzPO1eYoDOoJrZ9EKa/HoU3tyRgxGPh0ARxTD4jbKFzdrn7cdEI1ikx6YUIvPRJa8TcyawWhjCc2uvAgim5OLjRBi8FHWRvL/VkNA67+jCoQ6lSoMvgMCSlGNHmnlubrvAdq+YL7mVr/n9W67uC8NKnccheX4avVrCZ0gz+qanyYMOSIuR8WY6pGVbRL5BqjUKUDpBSgwk6gxpCDUr0m2BE3wcNjY5TVKm5lofxubLm4RpDb6pszReUSmDgFBO6DNJh09IinN5fwctzGYybuXK+Bn99LA8DUkwY+WQ4gkLEsZZVTNA5wQSdITqt2mkxKNWEbsN0zVq6ao7l2cST4jheNPhel8mqxuMLo3HuSCXWLL6BskIR+t4yAhqvB/hubRlOfuvApBcj0CmJfBmZWqOA9AbDkocJOkMUlEqgU1KdW71dF+5lWZwtYUpd7kIl63VIDEVGVjx2f1KCfVll8FAQ+2QEFraiWnw85xoSR+uRlmEl+tlck07lDvuaGEQJ0SnRZ5wB/SYaER7l++snliXcHCrOngPh1qANViD5GQt6jNJj9YJC5J5lNg2Dfy6dqSb+mVz3vdxhgs4ggjVeg4GpJtw/Qg9tcMs3J+cWq7Ra6ARa0ka30eL5Fa2Rs92ObZnFqHIwc53BH0JeShuDq2dO7jBBZwiGQgF07BOGAZON+MP9/HQ742yhk65Dp+yiUT/wpVNSGLYuK8bRXeVEPpcR+PCV2OkLamahc4IJOoN3gkKV6JWsR/+JRt6HjFBbtkZpKKB+4EuvZD2yFt5AUT69fbsZ0kCMuerMQucGE3QGb1hiNBiYaqybkCRQeQvXWDXpXu58DmcRgvqBL9+sLMOez0tZCRCjxYhhoXPd93KHCTrDbzokhmLAZCM6JIZCIfBFmlaXO2cLXYTDsJ76gS89HtAja1EhlX27GfQjhoXOXO7cYILOaBGaIAUSRxvQf5IRUQnkrs+0JsVxznIXUdDrqR/4cmKPA5uWFsFRRk/fbgb9MJc7vTBBZ/iEyarGwClGJI4xIERHvmuUUFPN/MWXA8dd66WiDKfbMB069g7F9uXFOLzFDq/4dw2GBBCjxwHXi7zcYYLO4ET7biFImmzEvX3DoBBxVgKtdei+uARpEXSgbuBLykuR6J1swOqFhbj6s1PsJTEkgKvGy3lQEh/Qsl9ohwk6o1E0WgW6j9BjQIoRrdrRMd2LXpe7L4Iu4EJaCBv4wvAFt4uwoDMLnRNM0Bm/wxipRtIkI3ol6xFmVIm9nFvgPndc2HXcji8uQUepW5RwRXPUD3zpOliHDUuKcCabDXxhNAzpTHeuMxzkDhN0xm+07RyMASlGdB4QBqWKzhsxrXXovrgEl8y4gvHpEeg5Wi94VUBLMEaq8cQiNvCF0TjE9xel5xFtMEGXOSqNAt2G6pCUYkTcXUFiL6dZaE2KU2u5HzhVDg+yFhUiZ4cdaRlWWOPpND/YwBdGY5C20JnLnRtM0GWKLlyF/hON6DPOAL2ZLrd6U3Ceh07cQvf931w6U43FD+VhyDQThj8aTjQmyRU28IXREKT7uTNB5wYTdJkR2z4Ig6ea0GVQmCQ3Ca0u95aW1XjcXuz5ohTH95QjbY4V7bvz0/Oeb9jAF8bN0FxFImeYoMsApUqBLoPqZo+3uTdY7OX4BefWrxJzCZYU1CJz9lV0HazDg89FwGChz2vCBr4w6iG/v4h+nGRhgh7AaLQKJKUYMTDVJCm3elNwH4Ii8EJug6/GFyf3OnD2+0okP2NGvwlGXp7JN/UDXxLH6LFmERv4Ikek4gGTG/TVzjB44d5+YZi7Nh7Jz1gCRswB+saU3gxflQE1VR5seK8IS2ZcQcFFehu93Nk1BPPWxWPUk2axl8IgDPkcFSboXGCCHoCMnmnGjL9Ew2QNPAcM5yx3MQZI8OwWzP2pBu8+moctHxSjporemPXwR8Px2oYEtOtCZ/yfwT80N26SM0zQA4xeyQYMeyRc7GUIBleXuxgWuhBWhNcDfLe2DAtT86hu9GJupUZ6ZgwefiMKOlPgeIQYDUM8pMUsdE4wQQ8gDBYVJjwXIfYyBOPS6Wp8v93O6b8VY6qZkFaEragWH8+5hhUvF8BeTO90tG7DdJi3Nh79JtIZ/2fwA/nhR0Q/TrIEnk9Wxgx/NBza4MC7yR7dWY69WWU+xZPFsNBJJO6cPVyJdyb/ipEzzBiUZhL881pCsE6JSS9EoOcDeqz5Cxv4EoiwGDqdMEEPELTBCvQcpRd7GbzhKHPj8BY7Dm6ytcgiJe0SBMhl4jqrvdj6YTF++KocqXMikdCRzlLE+I5B+PPncdiXVYadH7GBL4EE8davLIbOCSboAUL83cHQBks/glJw0Ynv1pXh+G6HX1ZAoLncG6LgFyeWzsxHn3EGjHnaQuXAFwAYlGZC1yE6bFpahNP76c0DYHCHeGtlZqFzggl6gBAZJ+0g0+n9FTiw0YYLx6t4eZ4oLncRdpPXCxzaYsfp7AqM+5MF94+g00tjsqrx+MJo/OdQJdb/jQ18kTosy51OmKAHCEoJJhY7q73I2W7Hd2vKUHKN3wNeDhb6zZSXuLHyrUIc3VmOKa9aYY6mc2vf0zcU9/RNwLbMYuxdXSb2chgthHzjJrKfJ1Xo3PUMn3FLyOApKahF9gYbvt9mR02lMPXVtU55CXo9549WYWFqLoY9Eo6hD5moWFNDjJ1lQc/RbOCLVGFJcXTCBD1AEMMi9ZWLp6qwf50NZw5UwCtwnxQxvg9a4ny1Li92flSCozvLMW2+FW070Zk0xwa+SBfmcqcTJugBghid0bjgdnlx4huHz2Vn/iJKYxnKDp2ifBfefyofPUfqMS7dgjAjfXEZNvBFmrCkODphgh4giCFgTeEodePQFjsObLTBUUq+EYoYZWu0ugV/2FmOMwcqMD49Aj1H66GgcJn1A196JeuRtZANfKEdVrZGJ0zQAwRaYuj5PzuRva4Mx752iOo1ID3eEaA7cafK4UHWokLk7LAjLcMKazydi23XJQRzVsXhm5Vl2PN5KXUXVUYdUhtPLBeYoAcIYsbQvR7gP4crsH+tDRdO8FN25i9iXCakcOhcOlONxQ/lYcg0E4Y/Gg5NEH1rVmkUGPFYOHo8oMeqdwpx8RQd7xTj/yDfy53s50kV9jUFCGIIWE2lB0e+LBek7IwP3LVeom5wqcxs9ri92PNFKY7vKUfaHCvad6dzSlr9wJcTexzYtLQIjjJ6e9jLDZblTidM0AMEki6w4gIXstfbkLO9XLCyMz5ggt40JQW1yJx9FV0H6/DgcxEwWOhLmgPqBr507B2K7cuLcXiLHV7mhRcd8sNZpLW3xIIJeoBAou762mUndvyzBD8elEb7zlonoCVYsSVVK+LkXgd+OlKJsbMs6DPOIPZyGiRYp0TKS5HoNcaArEVs4IvYEE+Kk+jeIg2dzZ8ZPuMhcGM+/V2FZMQcYLWyvlBd4cG6d2/gvcevIJ9isYzrUDfwZWAqnZPm5ALpvSU175dYMEEPEEhkuau10tpUxGtl6Uwc94m88zX46yN52LKsGK4aen3b49MtePiNKLGXIVvIX5aJfpxkYYIeIJCIoUvtlszcgi3nuzVleGdyLtXT0boN02H660zUxYD03mKNZbjBBD1AILHBpOZSJl0rK7ULT3PYimrxScY1LH+hALYi+qoYAKD7cB0SR9M5YS6QId33Qmpnj1gwQQ8QSLiXVRJLoWTdrPjh3JFKLJiSi31ZdE5HS37GgqBQdpSRRJTWysxKbxa2CwIEEhtMahuKdPMLqX0/vuCs9mLrh8X4y/Q8/Hq2Wuzl3ILOpMKoGWaxlyErRGncFMD7iy+YoAcILCnu9zCXO/8U/OLE0pn5WP/XG1RNR+s1Vg+NxN5PKcNaK9MJE/QAgUSDF5VKWgcm8cQdGQg6AHi9wKEtdixIzcWx3XRMRwsKUaJDr1CxlyEbWGtlOmGCzuCM1FxerLRGWBylbqx8qxCZ6VdRfFX86Wi0zn0PRNg0Qzphgh5AeNzCCpjkXO4sKY4IF05UYdHUPOz+tFTUCXtRCVrRPltusKQ4OmGCTjmhBu4/Ua3At2aW5d40cq6VrXV5sfOjEiyenoefT4ozHY3WXvSBiBiCzmLozcMEnVI69AzFE4uj8eS7rTj/G6Hbv/oSI467K0jAlXCD1cqS50aeCx/+6SpWv1OIChvZ6WhS8yBJGTHGNbP91TwSs7kCG41WgR6j9EhKMSK6TZ37MO98Ded/L3TmqS8batayurGX2/5RjOoKcbKhifeblrGFfjs/7CzHmQMVGJ8egZ6j9VAQ+GrkkpRIA6xsjU6YoFOAMUKNpMlG9B5rQKj+VqeJLyIh9CbzaS21XvQZb0DnAWHY+mExju4inw1NvrEM0Y+jniqHB1mLCpGzw460DCus8cJ+QUp2mhHDRWC64+2wC1vzsC0gInfcF4wBk03olBQGZSPBD6UPIiq0Rar0IURZvxZduArT5lvRK1mPrIU3UJRPLj2WdK0scwk2zKUz1ViYlovXNyUgPEq4I4d5SMji8aDRc0sImIXePEzQCaPSKNB9qA5Jk41o/Yfm48y+JIJ4BA5ZqoN88Rbc+n+36xKCOavi8O2qMnz9WSkRdzhLiqMLoXslsAsVWdwuL5Q+nAn+wiz05mGCTghduAr9JxrRd7wBunDupq4vt1KhRdJXl/vtqDQKDH80HPeP0CNrUSEuHBc2G5p04g4TlKah6f1k+I/b5YWGoKCzkFbzMEEXmNj2QRiUZkTXwboWHfi+3EqFtkh9WX9Th7e5lRqzPojByb0ObF5aBHuxMK6FWsJxPmZBNI3QFyx2oSIL8T4P7MLWLEzQBUCpUuC+gWFISjH63b3KJxEVumyN5wS9roN1uDsxFF+tKMGBTTZ4efbICl2XfztMUJpG6O5i7PsnCxN0+mCCziMhOiX6PmhEvwkGmKz8fLW+vMRUWegcLxfBYUpMeD4CvZINWL2wEFd8KNNrDtIud2ahN43gSZusqwZR2P6iDyboPGCN12DwVBO6D9fzHlPyJSlO6EYqvgi6r5eLmDu1ePGj1ji02YYd/1PCS+068bI1tpuahIQAqDUKUbqYyRHiHjBmoTcLO4JaiEIB3NM3DAMmG9G+e4hgn6P0YcKZ0AemLxZQS9yrCiXQb6IRnQfqsOWDIpz4xuH7Q26CjU+lCxJCq2KCTgzW54E+mKD7SFCoEr2S9UiaZIQlhswbptIoOG0eEgcZVwvIHzE1WFR4+M0o9B5rQNaiQpQUtMz1QP7AYYLeFCR+D7VGAf6CNoymYC53+mCCzhFLjAYDU43oOUqPoBCywTq1mpugkzgwuVpAfKylffcQZGTFY8/npfhmZZnPzyTe+pUdOE1CxEJnJxoxWFIcfbDXvxk69AxF0mQj7u4VSqQfdUOoNAA4lGyTGEbC1QLiy92t1igwcoYZPUbWdZq7eIp77Trp4SxAXYhE6DG2UoXEDG126JOD9XmgDyboDaAJUqDnyLohKVFtxJ+xzNXyI7HBuFpAfHsLImI1SM+MwfGvHdj8fhEcZc3XrpOuQwfqkhidZIeMSQYSOQ3s0CcH84DRBxP0mzBZ1UhKMaJX8u+HpIgJV6uDVAydC0JZx92H6+AodWPzB0Uc1iDWRChmoTcEkRg6s9CJQb6KhP22zcEEHdyGpIgJV6uDiIXOdS0Cbnau2a5iZDszC7FxSGW5M8hAumzNlxJeuSJbQVdpFOg+TIekFG5DUsSEq9VBJCmOq7dAwMsFZy+BCILO3IKNQ+bCKfhHMP4LqyKhD1kKerdhOiQ/bRF0lCOfcI1bk7gx0yCmNFwqGoMJeuMwl3tgQXw8sQ89OeSKNBSNR2b+rRU69g4Vexk+wXUmOpmkOPHj+VzXQCKr+naYFdE4JC6cLM5KDmah0weFEWPhePDZCMmJOQCotRQJOkeXppAlY5y/DzFc7rK7InOHphwPhv+Q3l/M+9U8shH0u3uFYsBko9jLaBFcXU2kOnFxQciSMc4hCDGy3Nmh0yg05Xgw/Ie4y51dlptFNl/RqJlmsZfgM85qL47tLse1S05O/z2ROl+OB2alXbhibK797cWw0JmgNw6J95NlQpODdEiL7a3mkYWgx96pRdxddGey30xxgQvZ62zI2VGOmkruU8dIbDCuFvrhrXZUlXsw4fkI6M0qftfA0eUuRtkaS8pqHFKtiRlkYI1l6EMWgm5uRf+13esFzh2pRPZ6G84dqYS3BXuFthjlyb0OnP2+EqNmmtF/kpG3Gn8aMu0bgwlK4xBpfMQuVMRgvdzpQxaCboyk98+sqfLg2C4H9q0pQ9EV/0xsMjFK3/77mioPNr9fhB++tCN1jhVxHfz3lHDPtPf7o3yGHTqNQ6K3PteKEIb/sKQ4+qBX6XiExu5v1y87cWCjHT98VQ5nNXe3elPQFEO/nfyfnVgy4wr6PmjEmD+aEaxr+Y9CU2/722Ex3MahKWmT4T/kh7MQ/ThJIgtBFyPbuSG8HuA/hyuQvcGG/z3KfWoYV2g/ML1e4OAmG07tdWDCcxHoNkzXoufQ1Ar3drjG9+UImdavgn8E478wlzt9yELQxYil3kxluQc52+04uNGGkmvC+R2l0rjDUebGF29cx6EtdqRlRCIi1rdT2Bcr2O3yEo1rs0OncUhcsFgMnRyks9yZ96V5ZCHoYmQ7A0DBRSeyN9hwbFc5XARGeZKYw82nOF48VYVF0/IwbLoJQx8O57xhfRHN2lqygs4OncZhw1kCC+Iud3ZZaxZZCDqJZJx6PB7gTHYFDmyw4eeT/LvVm4LM+FR+n+d2ebHrk1Ic2+1AWkYk2nUJafbf+LKx3S4AzT+SN9ih0zgkLDr2/ZODudzpQx6CTuDFq7C58f02Ow5ssMNWRPAGcRNS7sRVlO/CsllX0W2YDuPTI2CwNF677osVRvzQYRZioxCx0NmhTwyWFEcfshB0IQ+SK+drkL3BhhN7HKK59ush04lL2APzxB4Hzh6uxJinzOg73ghFA8nwvngJyDe/IPpxkoJM0qbgH8H4L6yxDH0wQW8h1Q4P/uflAlw6Xc37s1sKEZcmgU1VXeHBhveK8MPOcqS9akWrdtpb/ndtMPeSN9IJkfF3BxP9PClBpKySHfrEYC53+qCwQpt/hHANOWu8VIk5QNf4VD7IPVuDdx/Nw+b3i3xqgXszpN2CnQeE4bUNCZxyAeSGlENCjN/DernThzwEXYAXj8bJP0TKgghvKq8H2L/OhgWpufj3Psdv/3+um1uMMIi5lRrpmTF4+I0o6Ez89rGXMoH4fsoZ0t4vDevx0CzyEHQBDhIaDw4ywy8E/4gGsRe78em868icfRVlhbWc643FaC5TT7dhOsxbG4++DxqgoO91IQ5LigssxGjYRWPXT5qQxdcjxGxuriM8SSKHA/PC8SosmJKLmipuLnjSbsHbCdYpkfJSJF78uDVi7tQ2/w8CGDJla8J/BqMONvyIPmQh6G4BGq5oguh7sUjU29PgmfClSU+Vg58++f7S+q4gvPRpHMbPtkAbLP53KAYsKS6wECOcxX7fppGHoAv04tFmpQdaUhwf2IvF6QnQEEolMHCKCXPXxKNTUpjYyyEO7bMGGL4hioVO2ZlLG7IQdKFukrTVvLID8/dc/dkp9hJ+hzFSjScWReOpJa1gssrLRyz0pVNqF04pQ7IDZz1SO39IIwtBF+rFo+3wINEvXikx/blwnGz7XV/okBiKNzYnYOj0cLGXQgyhBZ0d+OQQx+VO/CMlhSwEXagXj8Z4jkfgkLHUDsxrl5349Sxd/QJuZ8xTZmRkxSO+Y5DYSxEcoScCSu3CKWVEEXTKjCjakIWgC+WKplHcmEvz9+zLsom9hGaxxmvw/IrWSJ0TiRBd4G5LocNCbHwqOcSIodN45tJE4J4cNyGYhU7h4SH4gSnBDXVqrwPXLtMXS78dhQLoNcaAeevi0eMBvdjLEQTBL5wSfD+lCstypw9ZCDogzKxw2pLiAGahN8aqtwrhpaOCrVnCjCpMm2/Fs8tjYY2n8CXzA6FFQIoXTikjxLnaFMwD0zSyEXQhYnc03haFPjBp/Ju5kHe+BhuW3BB7GT7RtlMwMrLikfy0Reyl8IbQHiSpXjilColE3JthORJNIxtBF8JypfHwELobF41eCa4c2mzHpqVFYi/DZ4Y8ZMJrGxPQITFU7KX4Ta3ApU4sC5ospEvXmAemaeQj6AJYBjS+XMzl3jTZ6234fP51uGrEnV3vK+ZoNZ5a0gqPvRMFg0W6A1+YhR5YCNFWuynY79s0shF0IVzRNL5crM63eU7udWBBai7OHKgQeyk+c98gHTKy4tF/olHspbQIwWPoFO7JQIZ4DD0Azh8hkY2gy2XiGouhc6OssBYfv3oNy18oQFkhPe1huRAcpsTEFyLw58/jJDfwRXALPUDeT6lAepoh+32bRjaCLkxSHP/P9BfmcveNc0cqsWBKLr5dWSbqqNWWEHOnFi9/GocJz0cgKEQaW5ldOAML8i53oh8nOaRxCvCAEJYBjeLGkuJ8x+X0Yvs/i/HuI1dw6TTdXeVuR6EEkiYZMXdtPLoN04m9nGYR+tLE5mWTIThMicFTTTBFkVVYGs9cmpDNfUcuLnfBD8wAnnZ0/bITHzyTj8QxBox9xoJQg3TUwWBR4eE3otA72YCsRYUoKaAzjEBqgJAYTU/kQGScBgOnmNBjpA7aYPL7Q60N3POHD2Qj6IIkxVEo6CQOskA+ML1eIGe7HWeyKzA+3YIeI6XVsa199xDMWRWPrz8vxbcry4gnLTWH0L3cgbp9GajvpxgoFMDdvUORlGLEXT1CoRDx2GNJj00jG0GXTR06iZnoMjgwK2xurHqnEIe32jFtvhURsdKJNWiCFBg904weD+iRtbAQl87QE0Yg8X6qNQrUCP4pgY82WIleyXr0n2hEZBwd7z+NRhRNyEbQhRAgKl3uBIRWTokpl85UY9G0PAx9yIShD4dDIyGXnzVeg2eXx+KHneXYuqwYFTa32EsichGU0/spBJYYDQZMNqLnKD2Cw+gKO9FoRNGEbF59IZLFaMxyJ+HSpPEiIyRulxe7Py3F0V3lSJtjRfvuIWIvySd6jtTj3r5h2JZZjCNf2uEV0blCykJn+M5dPUIwYLIJd/cW163eFIGYlMsnshH0Wif/kzlUFCaIuQnETKV2Sx72SDj+vc+Bwlz/bjslBbXInH0V3YbpMD49QlId20INSqTOiUSfcQasfPu6399FSyHiQWKCzhlNkAI9R+qRlGJEVBv6exqw37Zp6PKnCIhbAG8jjRmX7MD8PXqzCi9/HocRj4XzsvYTexxYmJaLQ5vtkpngVk98xyC88q84JD9jESV8QCQpjsKLNm2YrGqMnWXBW9vaIOXlSEmIOSA9Y4I0srHQ5VOHTsClSeHf3RRulxcarQIjZ5jRY6QeWQtv4OKpKr+eWV3hwfq/3cD32+146DUroiVyIAJ17+2QaSZ0H6bDmsU3cO5IJbHPJpW0yWiYO7uGICnFiHv7h0myZp+FU5pGPoIukzr0WnZg/o6bf/uIWA3SM2NwdFc5tnzgf6LYlfM1eHd6HpImmzByRrhkOrYBdVbaU0ta4fT+CmxcUgRbkfC160SS4lic9RbUGgXuH1HnVpdaq+DbodGIognZCLowdei8P9JvhO4UB9D5dzdFQ27eHg/ocU/fMGz/RzFytvuXKObxAN+tKcPJbxyY8HwE7hsY1vKHiUDnAWG4u1codn5Ugr2rywT9LOZBIofBokL/SUb0fdCIUL10LppNoZRO2oooyEbQhRA6Gg8OIlnEFP7dTdGYiITqlZjySiR6JxuwekEhrl12+vU5tqJafDr3GjokhiItIxLGCOlsL02QAmNnWXD/CD1WLyzElfPCVHIzl7vwtO0UjKTJRtw3ICzgOjs6qwO7/4W/BMa1jQNCuKJpPDhcBIYl9JtgpK4+tSmaE5H4jkH48xetMXaWBdpg/3/T3wa+rBLW2hWCmDu1eOmT1kh5OVKQ35jE+ynXpLjEMXq89ElrPLs8Fl0H6wJOzAHAdoPOlsa0IJ1T2U8ESYqjUNBJtPrsNkyHeWvj0X04/cNAAG7hFqVKgcFTTZi7Nh4dEkP9/kxntRfb/1GMv0zPw69n6enUxpW+4w2Yu4b/gS8eAucxjftSKPRmFUbOMOPt7W2QNseK1ncFib0kQaGp6yGNyEfQhUiKo9D1TCKGDgC6cBWmvx6F9MwYmFvR7Vr25TJnjKhLFHtiUTQvLvOCX5xYOjMf6/56A1UOadW46c11A1/4/I2Pf12OvauF7TEvh+Yjse2D8NBrVryxKQEjHguH3hz4wWV7sRuXf2SC3hSyEXTZDGchPNO7XZcQzFkdz1uNtxC05DvplBSGjDVxGJhq8ru8x+sFDm+xY0FqLo7tLvfvYSLQrksIXtuQgAceD/f7WS6nF9syi/Huw1eQe1aYOD2t7yEfdB+uw7PLY/HyZ61x/wh9QP+tt7N/bZmoXQ6lgGwEXZCkOAotAVcNeSuwvsY7Y3Uc7uxKX1vUlv72QSFKjE+34M//iuPFlekodWPlW4XITL+KG3nidGrzhweeMGPumni07+b/b3ztshNLnryCDUuKUFPJ7zsbaKVNYUYVhj8ajje3JmD661Fo2ylY7CURx1ZUi+z1NrGXQT2yEXRBkuIoPDgcpeK5dS0xGvzpwxhMnWtFmJEeF6C/+RPRbbR48WP+EsUunKjC4ul52PVJqeSm1kXGaTBrWQymvx4Fncn/3/jgRhveTsnFiW8cPKyuDhr7Q7SE6DZapGVY8caWBIx60iypqgk+cdd68fGca0QSKqWObARdLklx1/0sveKDnqP0yMiKQ+JoOmaJ83GZUyj+L1GMj2RAt8uLXR+XYPG0PL+71olB9+E6zF0bjz7jDX4P8nCUufHF69eROfsqSgr8z5qj8aLNFYWyri9AemYMXl1Vt4ekNOGPb7we4LP51wULzwQashF0QWLoFB4cRfku2IvFH5MZZlQhLcOK9MwYWOPFjU3U8niz15vrkgGfWBTNy/OK8l1YNusq/vXmdVTapZU0F6JTYvLLkXh2eSwvrW8vHK/CW5N+xTf/8q/cT2qNj4C673LodBNe25CAxxdGo10X+kJXpKmu8OCTuddwJrtC7KVIBtkIulxavwKgKvGqXZcQvPJFHEY9aRbt+xJiAl3bzvzGMY9/7cA7k3/F4a12Xp9Lgjb3BuPVVXEYn85PHf+O5cVYmJbbYquMxuqTxrDGazD55Ugs2t0WY56yIDxKnm712zmyoxyLH8pjYu4jsnl75OJyB+rakPabYOTlcOUDlUaB4Y+G4/4Reqx6p5C4i1kqXQIryz1Y9+4N5OywY+pcaQ18AYCBqSZ0GazDxr8X+X0QF+a68PeZV5A42oCxsywINXC3PWjdl/UoFEDHPmEYkGLEH3owS7yeKocHOdvt2L/OhrJC1kCmJchG0IUY26im9NuzF7vx5YpiPDg7Quyl3IK5lRrpmTE4/rUDm98vgqOMTGhAape53LN1A18GpprwwBNmai5mXDBZ1XhiUTTOHalE1sIbfg188XqBnB12nDlQgbHPWJA4hltOBo2hMAAIClWiV7Ie/ScaERErwbiAQFy/7ET2Bht++KocrhqW+OYPlEoS/wjhcqfZEti/1oa7eoSiY2//u57xTffhOtzbLxTbl5fg4EbhS1Gk2PbX4wH2ri7DiW8cSH01kpfudSTpkBiKuWvjsOvjUny3pgweP9IDKmxuZC0qxLHd5UidEwlLTNNiSJugW2I0GJhqRM9ReklN4xMSrxf46ftK7F9XhvNHpZcUSiuyebuEsNJojaHX89m868j/Wfys94YIClVi0gsReP7/xSK6rbCuZSF+e1KzpMsKa7H8hQJ8knFNcm5IbbASY2fV1fHHd/S/jv/CiSq8nZKLXZ+UNvnfqSgxUzokhuKP77XCvHXx6D/RyMQcdYlu2etteGdyLla8XMDEnGcoefWFRy516DfjrPYgMz0fzy5vjagEOl18CR2D8efPW2PfGht2fVQiSK2pULXeGq2CWG3s6f0VOHekEqNnWtA/xUjsQsEH0W20eH5Fa+Rst2NbZrHfLXB3fVyCY7vKMW2+tcEmK2oRy7w0QQokjjYgKcUoenUHTdzIc+HABhtydpTDWS2tag4pIRtBl1oclS8q7R689/gVDEw1Ysg0E4JC6VMCpUqBIdNM6DZUh3Xv3sBPOZW8Pl+okZ0qDTlBB+oGvmz+oAhHvrJjaoa0BnEoFEDvsQZ0SgrD1mXFOLrLv0qMonwX3n8qHz0e0GP8bMstjYzEmDJmjlYjKcWIXmMMCNbRt8fEwOsFzv9Qiez1NvyUU8nathKACbof0Nj6tSGc1R58/VkpcrbbMenFSHQeECb2khokPEqNP77XCv/e58DGvxfxVk8v1MAasTw0V3924r0nrqDvBCPGzDRLSkB0JhWmzbeiz3gDVr1diKJ8/36co7vK8ePBCoxPj0DP0XooFCDaiKV99xAkpRhxb98wKKTzMwiKs9qDH74qx/51Nkm2OJYy9PTnvI1ecbNDALzC1/NCDSr0n2jk63G/8fVnTcfzaKKmyouT3zqQ+1MN7rgvBCGUCkF0Wy16jzXAWeXFrzx0iKqp9ODGFRfu6BzCaxwze52N9z7kvpD7Uw1ydpQjPFqNVndIq8QtPEqNvuMNUGsUuHSm2q+kuVqnFz8erMCF41VQqRU4vNUuaL6BRlvnVp82z4rBU02IStD63S0vECgucOHrz8rwrzcLcXp/heQaJfnAX47kfUDl2DdqX8Nn+/wcDqCEr+dFxGowb108X4/7jef6XuT9mSTQaBUY+aQZA6cYRXFRcuXK+RqsXliIqzwk9wWHKZH8jAV9xhp4sabemvQrL61K+aB99xCkzbFSP8q2IUoKapG1qBAXjtOdIGWMqHOr9x5r8KkuPtC5cLwK2ett+PFghVzc6ub3D99JpSVH7UnOt6CbrGq8sTmBr8f9xosDfxHEnU+K6DZaTJ1r5SULWSg8HuDAehu+XFEMZ7X/33Xru4IwNcOKmDv9s2oXpOZS5VJUaxQY8Vg4Bk81SSK/43ZOflvXn4CG1sU3c0fnYAyYbESnATpJJSMKiavGi2O7y7EvqwyFufTsAUIwQfcVvgVdb1bh7e1t+Hrcb7wy9BJqqqTtWlIogN7jDEh+2kKtGx6oK+HiowsZUDcEIynFiFEzzC1OFPzL9DwU/EJfWaA1XoO0jIYzwGmn2uHBjhUlOLTJJqq1p9Io0H2oDkmTjWj9B3ovu6QpvV6LgxttOLzV7ne1goRhgu4rfAt6qF6Jhbva8vW438gYeSlgYkU6kwoTnotAt2H+TxMTEj66kNVjsKgw8YVI3DfQ90TBvz1+BVfO0zsFqucoPcb9yULVKFuu8Blq8QVdeF2uTd/xBujCpfe9CcXFU3Vu9TPZFX7lOwQITNB9hW9B1wYr8e63/Av6a2MvU+ci9Jd2XUIwbR7d8VhntQc7PyrF/rX+dSGrp0NiKFJfjYTJyv1vXjozH5f/Q2VuzG+E6JS3ZIBLCY8HOLDBhq9WlAjuBUvoGIykFCO6DA6jvr8EKVxOL07sceC7tWUouEifJ0pEmKD7Ct+CrlIr8N7+O/h63G+8OeFXlF6nIzGKT9T/HagyZBrd8dhrl51Y+VYhL5ayRqvAiMfDMSjNxOlQXzbrqmRmmbftFIy0DKskm53YbtRi0/vF+Pc+B6/PVakV6DI4DEkpRiR0lF54QihsN2pxcLMdhzbbAsb7yDNM0H2Fb0EHgKWH2vH5OADAO1NyUXQlcJNCImI1jXbkogWvBzi0xYbt/+DHkuMag/7nc1cl1bpSqVJg8FQTRjwWDk0QtVu/US4cr8Kqdwr9LkkLM6rQb4IBfR80wmBhbvV6Lv9Yjez1NpzaVwGPACOHAwgm6L4ihKC/990dvFubi6fl4drlwHdHSSEeay92Y/PSIpzcy48l13OkHuPSG/+bV7xcgLOH+e1qRwKTVY1p86xo3116oztdNV7s/rQUe1eX+Sw6rdppMSitriMh7XMYSOF2eXFyrwP7smzIv0BvPghlUCvo1J7OfDeWAYAh00y8b+SCS07knQv8jZB/wYnvt9qhN6upzfoNClWiy2Ad2nUJwYXjVaiu8M9az/+57m8ONagQ1+H3f/OpfRUo/FV63pnqCg+O7izHtcsutO0cjGAK2wE3hkqtwB/uD0HXITpc+d+aZq11pRLoPFCHKa9EIvkpC2LbB1Hdd4EU9mI39mWV4Ys3CnFstwPlJYGVByQwrLGMrwhhoS/c2VaQhhB8Zl1LASnEY+ssuRLsXW3jxX0Y3zEIU+daEd3m/2rXP3/tOk5+y29clzRBIUqMfsqM/hOMkmtd6vUCP3xVjm2Zxaiw3SpIITol+ow3oP9Eo0+JjoFO3rka7F9nw8lvHYLNOJAB1FroshL0t7a1ESxm5qz28DL7WSooVQoMnW7CsEfCifbO9pXCXBdWvn0duTy0kFUqgYGpJjzwRDi0wUqservQ7yEjtBBzpxYPzY/yu9mOGFTY3NiWWYwjX5bDGq/BoDQT7h+hl2SegBB43F6c2leB7PU2XP6RSsNSajBB9xUhBP31TQkIjxL2tn7tshOrFxTyIiBSwNyqLh7brgu98VivFziyw46tH/o/uhOoawGa8nIEfjxYiZztdh5WSA9Jk4wY87QZ2mCJmeuoayFLc6klaSrLPTi02YaDG+2y8R4Sggm6rwgh6M+tiEWbe8hka3+/jZ/Zz1Kh2zAdHpwdAb2Z2rQMOErd2LKsGMd282NVB4UoJd8lsCEMFhUmPh+B+wbR3WCI0TD5F2qQvd6G4187UCvhttQUwwTdV4QQ9LQ5ViSO0fP5yCbhW0Bo57fhJ+MMVDcxuXiqClkLb/g9ujPQaUmzHYY4eDzAmewK7F9Xhl/+zdzqAkOtoFNrTgmR5W6MUOGevuRmgWtDlOg8IAztuobg0ulqVJYHnjV3M7UuL84ersS5nCq0uTcYekpbZ5qjNUhKMcLrBS6eCrzDT29WwVnlv2VWlO/Coc12KFUKJNwTBKWS4luaTKm0e5C9wYYvXruOnB32gGxyRSEsy91XhLDQg0KVeGtrQouHcfiD2+XFNyvLsOfzUlm4wW5PIKOVonwXVr1diEtnqNyfPtGqnRaD00zoOlQHe5Gb15Gk1ngNHpofRfVUPjlR8IsT2ettOLarHC5n4J8nlEGthS4rQQeA8bMtGDjFxPdjOSOV2c98YbKqkfpqJDokhoq9lCb5YWc5ti77ffkT7ShVCtw3IAxJk40NdrY7tdeBTUv5GUmqUACJow0YO8vC5oGLgNcD/HioLltdLucHpTBB9xWhBD1Ep8SrK+NgjBQ3LnjiGwc2/b0IjjJpCUhL6TwgDBOfjxD9e2+KCpsb2/5RjCM76M95CDUo0Xe8Ef0mGJr9TmsqPfhyRQkObLTBy0PUJ8yowrh0C3qOJJePImeqHR7k7LAje70NJdeYS50CmKD7ilCCDgDxdwfh2eWxok9VqnZ4sON/SnBos7izn0kRFKLEqJlm9J9khJJiA+/SmWpkLSxEYS59SXPRbbQYNNWEbsN0Ptf/X/3ZidUL+RlkA9Q1GJo234qIWHobDEmZ67+6cGCDDUe+tMNVI4MDQjowQfcVIQUdAO7pG4qpc61U9CbP/akGaxaTn/0sFlJoYuJ2ebF3dRl2fyp+zoNSCXRKqpsK5m+9v9cDHNpsw/Z/8jPIRqVRYMg0+hsMSQWvF/gppxLZ6204d0R6cwJkAhN0XxFa0IE6t+WkFyPRbSgd9bYHN9qwfXkJaioDOxseABRKoP8EI0b/0SxKkiJXxMx5CNEp0WecAf0mGnlviGQvdmPz+0W8ta41t1IjbY40B77QQE2lB0e+Ksf+tTYUX6XPM8S4BWoF/f8DAAD//+3deZQV5Z3G8W83W0MDDXRDgrtSPXI0itGJxELFLeOO+4I6WR0T45iKuyLqTFzQ6GjKZKImGWfMqIhEMQbjRIMsSjloQFtlgkOJKES02fr2Ag29zR9FZxAF+nbfe39VdZ/POf0n8NzTnH663np/71vUhd5p1EH9uXDyiFicMpVZ3crTP1lDzZwm6ygFMbiyF2ddOZwxRxVunLA7Fr0YbS4rxJ6HQh5funThRqZOqWXdqty8mz34uIGc/oMqXUvaRWtWtjDvNxkWPNdQFL/Ip4QKPVuFLHSA3n1K+No3hnLcRUNyfsVqdyxZsIEn7lzd47ufkyIJh5hsbGxn5gNrCX5bn/M9DyWl8KVx0W716oML+5TbsrmDP/56PX98tI62HLxeKCsv5dRLtxwwFN/FFzMdHfDu69Gy+p9f3VAU+2dSRoWerUIXeqeqXftw4U0jPncEqNByfWNY3PXpW8IJFw/j6PMrYn3F5Yf/s4nHb6/l4+U93/NQVl7KYRMGc/hZg6kcabu5bM1fWph6x2reezM3rxd227cfF0waEeu9EoW0ubmd159vZM60Olav0LJ6gqnQs2VV6J0OPXEQp11eGYtNc7UftjD1jnQcftIVX9yrLxfcOCLWh5i0t3UwZ1qG53+5rlsHewzfvQ9HnTeEr5w4MHYH7/zpDw3M8HMzk19SCuPPHcKJFw+lX/94fc5CWbuqhVeequfVZ+tpbtKyegqo0LNlXegQbUo67fJKxp5sfzZ5Rwe89lwDz/x0TVFc+FJSAodNGMwpl1YyYFB8i6CutpUn7lzdpR3JJSWwnzuAI88Zwr5fiffmsQ0N0euFV5/NzeuFiqrenH1VFQccGe+9Erm0dNFG5k3P8M4rTTmZ/5fYUKFnKw6F3mnvA8qYOGkEI/awn7fd+u7nYjBwSC/O8Ko45O/iMYmwPTVzmnjq3tWfeyJbvwGlfPWUQRxxdkXiZrZz+XoBor0SEycNp6IqvnsleqJlUwcLX2jgpcfrYnmOgeSECj1bcSp0iI7YPOaCIRz/raF533ncFXE+/CQf4jSJsD3bnshWuUsfjjq/gkNPGpTo5eb2tg7mPpnh+V+tY3Nzzx/X+5aVcMJ3hnHUefHeK5GNutpWXn4qQ/BMfVGsoBU5FXq24lbonYaM6M2Fk+Mxb9vW2sHsqXX84eH1RXNBwwnfGcYJ3x5qHWOHVizZRMP6NvY7LN7n12errraVGfevpWZ2bmbXk7BXYmeWvdXM3CczvD23kXb1eLFQoWcrroXe6aBjBnLmD+Mxb1tX28pjtxXPhS9xmkQoRrkcqSwpgcNOG8wp34v3XomttbZ0sOjFRmY/Uceq94rjdEf5lNgWun0bbUc+7kPPpY/f30zwTD1l5aXsMbrMdNNcWXkph544iJH79GVZTTObcnAXdpxtaGhnwcwG1q1qZdRB/WPxCqSY9BtQSnNTO8vfyc3UxYolm1gws4GK4b3ZZVR8R9wya1p56bE6fn1LLYtebKRxfXFcrCSfofvQsxX3J/St7T46mrcdGYMfRpubo/e4c6dlrKNs16EnDeJ/Xt2Qkx+I/QeWcvrlVRx68iDzSYS0W/5OtLxcM6cpb+cijDqoPxMnDY/V5sHli5uZNz3Dmy/l73NLosT2CT22PwKTVOgQzdseeXYFJ/1DPM4mz/XNWj1VUdWbI86u4LAJgyiv6MXGxnZ+98BaXs3RqWtxmkRIk7aWDt54qZHZUzP8ZWlh/i/16lPC174+lOP+fgi9jU5tbGvp4M3ZTbz0eF3BPrckhgo9W0kr9E6DK3tx9lXDOXC8/bxtrm/W6o59DizjyHMqOHB8+efuaF6+uJmpd6zmkxyMRZX2im7++rtvxmMSIcka1rUx/5l6Xnk6Y7a0XLVrHyZOGt7jG+ayEYfPLbGnQs9WUgu9U5zOJs/1zVo706tPCYccN5Ajz6lgt313voO5rXXLVaUP5+aqUt381X0rlmxi3vQMi2Y15uRc91z42+MHcfrllQwcmr8tPyve3cS8J+P1uSW2VOjZSnqhQ/zOJs/1zVrbGji0F0ecVcG40wd364fv2o9aeGLKapYuys1ufd381TXtbR3UzG1i3pOZ2B4vXFZeyoTLKjlsQu5ObWxv66BmThPzpsf3c0ssqdCzlYZC7xSneduWzR28+Mh6Zj2Wm5u1APbcr4zx51Yw5uhyevXu+X+p1/+rgWfuz81Z4rr5a/uaMm28+mw986ZnPveEuzja60tlnOFVsud+3R9Z3NDQzvwZGV7+TXI+t8SKCj1baSp0iN/Z5D29WatX7xIOOqac8ecMycsvKrk+4na3fftx0c0j+OJe9pMI1j4KNzNveoY//aEhJ684LFQf3B/3jMF8+ZiuHwn8yfLNzJmW4dVn6/OYTIqACj1baSv0TuUVvTjDq+Rvjx9kHQXI/mm4vKIXh585mHFnVBRkKXtZTTNTp9Tm5LrJ0lIYf15081fcbjjLt/Z2eOflaHk5fCM9BxD161/Kvof2Z58Dy9h9dD+GjezD0C/8/76Vj8LNhG9u5M1ZjSx7S8vqkhMq9GyltdA7xWnedkNDO7/7+Vr++3fbHyEbOaovx0wcwsHHDaRXgUeJWlui1wR/fDQ3rwkqqnozcdJwRo9N19Gsn2djY/tfl9VzcbKbiKjQs5b2Qod4zNtubdubtUp7lTBmfDlHnlPB3gfaH7O6ekULU6fUsqwmN09aBxxZzllXVMViEiHXPlkeLau/9nwDLZuSuawuElMq9Gx5blgB1FnnKIThu/fh3GuGx2bMatZjdTQ3tXP4GYOpGB6/svvvmfU8+7O1bGjo+Wx937ISTr6kkiPOqaA04avwHR3w51c3MG96hiWv7fx+dhHplgo/cGK5ESPOhV4OFGZwOiYKMW+bFo3r25hx/xoWvpCb/yK7OH25YNKILs3Nx82mDe0seK6BuU9mWPtRcVynK2Ko3A+cWP7GHOdC7wsU3ZmL/QdG87ZfPTV387ZptnTRRp6YsjonRVZSAoefWcHJ3x1GWXn8H9fXrGxh3m8yLHiugU0bdHenSIH09QMnlr85x7YyPDcsBYp2SHSP/fpxwY0as+qKlk0d/OHf1zF7aoa21p6/Lx5c2Yszf1jFQVmMRBXSu69vZO6Tdfz51Q05OQdfRLrOD5zY9mZsgwF4blgPxGO+y0BpKRw9cQjHf3sYfcti/a0yFb6xkXnTM7zzchPtOXxQrT6kPxdOHhGLTXObm9t5/b8amfNEXU5G+ESkW9b5gVNpHWJ7Yt0Snhu+DBxuncPakBG9Of/64hiz6qqWzR0sfKGBOVMzf92Vnw99+pZw/LeHcfTEipycgpetdataeeXpDMFv62lu0rK6iLGX/MA51jrE9tg/euzYQlTo1NW28uCVqzhwfDRmFced54VSV/v/BbehPv8F17K5g5kPruW139dz0U1fKNjxvZ2rDm+/3ESHelwkLv5kHWBH4t4Mi6wDxMlbc5t497WNnHTJMI44O/ljVtlYVtPM3OkZ3p7bmNNl9a6q/bCF+y5ZyVdPHcyp38/P8b0tmztY9EIjs6fW5XXVQUS6baF1gB2J+5L7/sA71jniKMljVl3VsrmDRS82MmdaHavei0/B5fr43szqVl55up75z2QKsuogIt02yg+cZdYhtifWhQ7gueEq4IvWOeIoaWNWXVVX28r8GfEvOOfL/Tn32uGM2KN7x/e+/3Yzc6ZlqJldVMctiCTVCj9w9rAOsSNxX3IHmAZ41iHiqKMDXn4qQ82cxliPWXXV+281M296hpq5TbS3xX8eK3xjI3dM/BD39MEc/82hXd7bsPCFRmY/UcfKd4vumAWRJPtP6wA7k4Qn9MOAwDpHEsRpzKqrWls6WPTH6L1xnJbVu+OAI8qpPqQ/lbv0pt+AT6+YrHx3E/+7cCMr392kO7hFkmmMHzhvWYfYkdgXOmjZPRvRmNVQjp44xGTMqqsya7Ysq8+o7/LVrSIiRkI/cKqtQ+xMUh7lfgHcbB0iCaIxq3W89vuGgo5ZddXyd6Jl9TdnJ2NZXUQEeMg6QFfE9xFuK54bDgFWAMl+SVxgJSUw9uTBTLiskgGD7TbNtW1ZVp8zLcNfluq9sYgkyhpgDz9wNloH2ZlEFDqA54Z3ADdY50ii8openHZ5JYeeWNhTdOvXtjF/RoZXntayuogk1vV+4NxlHaIrklToVcCHQDwuDU+gvQ8o48KbRlC1a/fGrLpq+eItu9VnN+XkshQRESN1wO5+4CRitjQxhQ7gueHNwD9b50iyXn1KOO6iIRz39aH06Zu7b39bSwdvvNTI7KlaVheR1PiBHzg/tQ7RVYkqdADPDRcD+1nnSLphI3tz4eQRjDqoZwse9WvbCJ7J8MqMehrXa1ldRFLjdT9wDrUOkY2k7HLf2oXAG9Yhkm7dqlZ+etlHHPy1gZx2WWXWF758+OdNzH2yjoUvJGIlSkQkG83AROsQ2UrcEzpog1w+jDt9MMdcNITKkTt+v/768w3Mn1HP8sXNBUomIlJwV/qBc591iGwlstABPDcMgMOsc6RN9cH92bW6H1W79qZy1z40rGvjkw828/H7m/ko3Mz6T1qtI4qI5NNMP3BOtQ7RHUlccu90MtH1qnsZ50iVpYs2snRR7MctRUTy4S3gXOsQ3ZXYJ3QAzw2riS6cH2ydRUREEu1j4Mt+4HxsHaS7En3nph84S4EJgB4pRUSku9YDJyS5zCHhT+idPDc8CHgBGG6dRUREEuUD4Fg/cN6zDtJTiX5C7+QHzpvAV4DEf0NERKRg/gR8JQ1lDikpdAA/cD4ADgVetM4iIiKx9xhwhB84q62D5Eoqlty35bnhN4B7gWHWWUREJFZWAxf7gfOsdZBcS80T+tb8wHkE2BeYbp1FRERi4zFgdBrLHFL6hL41zw2PBR4Aqq2ziIiIiSXAP/qBM8s6SD6lvtA7eW74Q+AWYIh1FhERKYg64J/8wPGtgxRC0RQ6/PVO9duBS6yziIhIXv0CuMEPnHXWQQqlqAq9k+eGY4CHgLHWWUREJKfmA9/1A2exdZBCK8pC7+S54fnAj4HdrbOIiEiPrACu8QNnmnUQK0Vd6ACeGw4ArgeuAcqM44iISHY2AncDU/zAKep7nYu+0Dt5brgb8BPgLOssIiLSJb8BrvADZ6V1kDhQoW/Dc8NxRO/X97fOIiIin2sx0Xvy+dZB4kSFvh2eG34fuBWdNiciEhdrgZv9wPm5dZA4UqHvgOeGFURjbpdZZxERKXI/Ayb7gZOxDhJXKvQu8NxwNPAgMN46i4hIkZkLfM8PnCXWQeJOhZ4Fzw3PAu4B9jKOIiKSdu8DV/uB87R1kKRQoXeD54Y3EY26DbDOIiKSMk3AnX7g3GYdJGlU6N3kueFI4F+AidZZRERS4nGip/JV1kGSSIXeQ54bjiUacxtjnUVEJKFqiMbQFlgHSTIVeo54bvgPRDvih1tnERFJiFrgRj9wfmUdJA1KrQOkhR84vwRGEZ02JyIiO3Yf4KjMc0dP6HnguWE18ABwrHUWEZGYmQVc6gfOUusgaaNCzyPPDU8F7gUc6ywiIsZConPXZ1oHSSsVegF4bngdMBkYaJ1FRKTAGoDb/MD5sXWQtFOhF4jnhiOIrvj7unUWEZECeQS41g+cWusgxUCFXmCeGx5CNOZ2iHUWEZE8WUg0hrbQOkgxUaEb8dzwm8AU4IvGUUREcmUVcIMfOI9YBylGGlsz4gfOfxBtltN7JRFJg7uAapW5HT2hx4DnhvsAPnCKdRYRkSz9DvihHzjLrIMUOxV6jHhueCzR/Hq1dRYRkZ1YSjRPPss6iERU6DHkueGVwM1AhXUWEZFtZIB/9gPnPusg8mkq9Jjy3LAKuBP4jnUWEZEtfglM8gNnjXUQ+SwVesx5bjiGaMxtrHUWESlaC4jG0Gqsg8j2qdATwnPDC4h2xO9qnUVEisZKooNhploHkZ1ToSeI54YDgEnAVUCZcRwRSa9m4B5gih84G6zDSNeo0BPIc8M9ia4ePMM6i4ikzlPAVX7gfGAdRLKjQk8wzw3HAw8Co62ziEjiLQG+5wfOXOsg0j0q9BTw3PAfgR8BQ62ziEjirANu9gPnX62DSM+o0FPCc8NhwG3ApdZZRCQxfg7c5AfOOusg0nMq9JTx3HB/ojG3cdZZRCS25hONoS22DiK5o0JPKc8NzyG6f31P6ywiEhsfEG14e8o6iOSeCj3FPDcsA67b8tXfOI6I2NlAdPLk3X7gNFuHkfxQoRcBzw13I5opPc86i4gU3BPAlX7grLIOIvmlQi8inhuOI3q/vr91FhHJuxqi9+QLrINIYajQi5Dnht8l2hFfZZ1FRHJuNTDZD5xfWAeRwiq1DiCF5wfOQ4AD3G+dRURy6ifAKJV5cdITepHz3HA00Wlz462ziEi3zQIu9QNnqXUQsaNCFwA8Nzwd+BdgH+ssItJl7xFteHvWOojYU6HLp3hueANwI1BunUVEtqsRuN0PnDutg0h8qNDlMzw3HEl09/pF1llE5DN+DVzjB06tdRCJFxW6bJfnhmOJxtzGWGcRERYSjaEttA4i8aRCl53y3PDbwB3AF6yziBShj4Eb/MD5D+sgEm8aW5Od8gPnYaCaaNOciBTO3YCjMpeu0BO6ZMVzw2rgAeBY6ywiKfYc8AM/cJZZB5HkUKFLt3hueBJwH/A31llEUmQp0Tz5LOsgkjwqdOkRzw2vBm4CBltnEUmwDPAjP3DutQ4iyaVClx7z3HAE0dWM37LOIpJA/wZc7wfOGusgkmwqdMkZzw3HEI25jbXOIpIAC4jG0Gqsg0g6qNAl5zw3vAi4C9jFOotIDP0FuM4PnMesg0i6aGxNcs4PnEeJxtymWGcRiZnbgb9RmUs+6Ald8spzwz0BHzjNOouIoRnAFX7gfGAdRNJLhS4F4bnheKJrWkdbZxEpoCXA9/zAmWsdRNJPhS4F5bmhB/wTMMQ4ikg+rQdu8QPnp9ZBpHio0KXgPDccRnQ2/Hets4jkwQPAZD9w1lkHkeKiQhcznhvuTzTmNs46i0gOzCcaQ1tsHUSKkwpdzHlueB7RJRS7W2cR6YYPgav9wJluHUSKmwpdYsFzwzLgBuAaoL9xHJGu2Eh03sJdfuA0W4cRUaFLrHhuuBvRpS9nW2cR2YEngav8wFlpHUSkkwpdYslzw3FE79f3t84ispXFRO/J51sHEdmWCl1izXPDS4FbgUrrLFLU1hDtXH/IOojI9ujoV4k1P3AeAEYBP7POIkXrfsBRmUvc6QldEsNzw9FEp82Nt84iRWEu0SlvS6yDiHSFCl0Sx3PDM4F7gL2ts0gqLSPa8PaMdRCRbKjQJbE8N7yRaNSt3DqLpEITcLsfOLolUBJJhS6J5rnhSKKn9Quss0iiPQpc6wfOKusgIt2lQpdU8NxwLNGY2xjrLJIoNURjaAusg4j0lApdUsVzw4uB24ER1lkk1j4BJvmB87B1EJFc0diapIofOL8CHKLT5kQ+zz1Atcpc0kZP6JJanhtWE11leax1FomFWcClfuAstQ4ikg8qdEk9zw1PIXpid6yziIn/Ba7wA+f31kFE8kmFLkXDc8NrgcnAIOssUhD1wK1+4NxjHUSkEFToUlQ8NxwB/Bj4hnUWyat/JxpDW2MdRKRQVOhSlDw3PIRozO0Q6yySUwuIxtBqrIOIFJoKXYqa54bfAKYAI62zSI98BFznB86j1kFErGhsTYqaHziPANXAXdZZpNumEI2hqcylqOkJXWQLzw33AX4CnGqdRbrkt4DnB84H1kFE4kCFLrINzw2PJZpfr7bOIp9rCdG1pnOtg4jEiQpdZDs8N7wCuAWosM4iANQBt/iBc791EJE4UqGL7IDnhlVE72gvts5S5B4iOnt9nXUQkbhSoYt0geeGY4hKZax1liIzn2gMbbF1EJG4U6GLZMFzw4lEB9PsZp0l5VYA1/iBM806iEhSqNBFsuS54QDgBuBqoMw4TtpsJPqF6U4/cJqtw4gkiQpdpJs8N9wTuBc40zpLSkwHrvQDZ6V1EJEkUqGL9JDnhuOBB4HR1lkSajHRe/L51kFEkkyFLpIjnhteBvwIGGadJSHWAjf5gfOAdRCRNFChi+SQ54bDgFuB71tnibmfAZP9wMlYBxFJCxW6SB54brg/0ZjbOOssMTOX6JS3JdZBRNJGhS6SR54bng3cA+xpncXY+8BVfuDMsA4iklYqdJE889ywDLgWuA4YYByn0JqAKX7g3G4dRCTtVOgiBeK54W7A3cD51lkK5HHgaj9wVlkHESkGKnSRAvPccBzR+/X9rbPkSQ3RGNoC6yAixUSFLmLEc8NLgNuBKussOVJLdIHKv1kHESlGpdYBRIqVHzi/ABzAt86SA/cCjspcxI6e0EViwHPDauAB4FjrLFmaBVzqB85S6yAixU6FLhIjnhtOIHraHWWdZSeWEp27PtM6iIhEVOgiMeS54fXAjcBA6yzbaABu9QPnbusgIvJpKnSRmPLccCRwF/D31lm2+E+iO8o/sQ4iIp+lQheJOc8N9wZuAr5lFOFh4DY/cN43+vdFpAtU6CIJseX+9RuBC4DyPP9zTUQHw9zmB86Hef63RCQHVOgiCbPlKNkJRMV+Wo7/+hlERT7TD5zmHP/dIpJHKnSRBPPcsAI4CjgQ+NKWr/26+Mff2errbWC2HzgNeYgpIgWgQhdJIc8Ndwd2BfYAdgc6gBVbvlb6gbPSMJ6I5IEKXUREJAVU6CIiIimgQhcREUkBFbqIiEgKqNBFRERSQIUuIiKSAip0ERGRFFChi4iIpIAKXUREJAX+D8d6Bglznm2zAAAAAElFTkSuQmCC;" parent="eMXe8HDpTmr21RtKlJOG-1" vertex="1">
          <mxGeometry x="1031.6499999999996" y="484.6" width="36" height="36" as="geometry" />
        </mxCell>
        <mxCell id="eMXe8HDpTmr21RtKlJOG-30" style="edgeStyle=orthogonalEdgeStyle;rounded=1;orthogonalLoop=1;jettySize=auto;html=1;exitX=0.5;exitY=1;exitDx=0;exitDy=0;entryX=0.5;entryY=0;entryDx=0;entryDy=0;startArrow=none;startFill=0;endArrow=block;endFill=1;curved=0;" parent="eMXe8HDpTmr21RtKlJOG-1" source="eMXe8HDpTmr21RtKlJOG-9" target="eMXe8HDpTmr21RtKlJOG-20" edge="1">
          <mxGeometry relative="1" as="geometry">
            <Array as="points">
              <mxPoint x="1293" y="630" />
              <mxPoint x="1590" y="630" />
            </Array>
          </mxGeometry>
        </mxCell>
        <mxCell id="eMXe8HDpTmr21RtKlJOG-31" value="&lt;b&gt;Send Inference Request&lt;/b&gt;" style="edgeLabel;html=1;align=center;verticalAlign=middle;resizable=0;points=[];labelBackgroundColor=light-dark(#b366ff, #ededed);" parent="eMXe8HDpTmr21RtKlJOG-30" vertex="1" connectable="0">
          <mxGeometry x="-0.0309" relative="1" as="geometry">
            <mxPoint as="offset" />
          </mxGeometry>
        </mxCell>
        <mxCell id="eMXe8HDpTmr21RtKlJOG-32" style="edgeStyle=orthogonalEdgeStyle;rounded=1;orthogonalLoop=1;jettySize=auto;html=1;exitX=1;exitY=0.25;exitDx=0;exitDy=0;curved=0;entryX=0;entryY=0.25;entryDx=0;entryDy=0;dashed=1;" parent="eMXe8HDpTmr21RtKlJOG-1" source="eMXe8HDpTmr21RtKlJOG-34" target="eMXe8HDpTmr21RtKlJOG-20" edge="1">
          <mxGeometry relative="1" as="geometry">
            <mxPoint x="1205" y="770" as="sourcePoint" />
            <mxPoint x="1271.3600000000001" y="850" as="targetPoint" />
            <Array as="points">
              <mxPoint x="1420" y="725" />
              <mxPoint x="1420" y="725" />
            </Array>
          </mxGeometry>
        </mxCell>
        <mxCell id="eMXe8HDpTmr21RtKlJOG-33" value="KVCache Transfer" style="edgeLabel;align=center;verticalAlign=middle;resizable=0;points=[];labelBackgroundColor=light-dark(#a9c4ea, #ededed);fontStyle=1" parent="eMXe8HDpTmr21RtKlJOG-32" vertex="1" connectable="0">
          <mxGeometry x="0.0722" relative="1" as="geometry">
            <mxPoint x="-15" y="-2" as="offset" />
          </mxGeometry>
        </mxCell>
        <mxCell id="eMXe8HDpTmr21RtKlJOG-34" value="Prefill Pods" style="rounded=1;whiteSpace=wrap;html=1;fillColor=#dae8fc;strokeColor=#6c8ebf;fontStyle=1" parent="eMXe8HDpTmr21RtKlJOG-1" vertex="1">
          <mxGeometry x="1175.46" y="710" width="140" height="60" as="geometry" />
        </mxCell>
        <mxCell id="eMXe8HDpTmr21RtKlJOG-35" value="Client Application" style="rounded=1;whiteSpace=wrap;html=1;fontStyle=1;fillColor=#fad7ac;strokeColor=#b46504;" parent="eMXe8HDpTmr21RtKlJOG-1" vertex="1">
          <mxGeometry x="1184.92" y="242" width="235.46" height="60" as="geometry" />
        </mxCell>
        <mxCell id="eMXe8HDpTmr21RtKlJOG-36" value="Client Application" style="rounded=1;whiteSpace=wrap;html=1;fontStyle=1;fillColor=#fad7ac;strokeColor=#b46504;" parent="eMXe8HDpTmr21RtKlJOG-1" vertex="1">
          <mxGeometry x="1175.46" y="232" width="234.54" height="60" as="geometry" />
        </mxCell>
        <mxCell id="eMXe8HDpTmr21RtKlJOG-37" value="" style="image;sketch=0;aspect=fixed;html=1;points=[];align=center;fontSize=12;image=img/lib/mscae/Kubernetes.svg;" parent="eMXe8HDpTmr21RtKlJOG-1" vertex="1">
          <mxGeometry x="950.0000000000001" y="435" width="36.46" height="35" as="geometry" />
        </mxCell>
        <mxCell id="eMXe8HDpTmr21RtKlJOG-38" value="" style="endArrow=classic;html=1;rounded=1;exitX=0.5;exitY=1;exitDx=0;exitDy=0;entryX=1;entryY=0.5;entryDx=0;entryDy=0;curved=0;dashed=1;startArrow=classic;startFill=1;" parent="eMXe8HDpTmr21RtKlJOG-1" source="eMXe8HDpTmr21RtKlJOG-11" target="eMXe8HDpTmr21RtKlJOG-20" edge="1">
          <mxGeometry width="50" height="50" relative="1" as="geometry">
            <mxPoint x="1460" y="490" as="sourcePoint" />
            <mxPoint x="1510" y="440" as="targetPoint" />
            <Array as="points">
              <mxPoint x="1800" y="740" />
            </Array>
          </mxGeometry>
        </mxCell>
        <mxCell id="eMXe8HDpTmr21RtKlJOG-39" value="&lt;b&gt;Async Receive Load Metrics&lt;/b&gt;" style="edgeLabel;html=1;align=center;verticalAlign=middle;resizable=0;points=[];labelBackgroundColor=light-dark(#a9c4ea, #ededed);" parent="eMXe8HDpTmr21RtKlJOG-38" vertex="1" connectable="0">
          <mxGeometry x="-0.1456" y="-1" relative="1" as="geometry">
            <mxPoint x="1" y="-19" as="offset" />
          </mxGeometry>
        </mxCell>
        <mxCell id="eMXe8HDpTmr21RtKlJOG-40" value="" style="endArrow=none;html=1;rounded=0;edgeStyle=isometricEdgeStyle;elbow=vertical;endFill=0;exitX=0.5;exitY=1;exitDx=0;exitDy=0;entryX=0.5;entryY=0;entryDx=0;entryDy=0;" parent="eMXe8HDpTmr21RtKlJOG-1" source="eMXe8HDpTmr21RtKlJOG-43" target="eMXe8HDpTmr21RtKlJOG-44" edge="1">
          <mxGeometry width="50" height="50" relative="1" as="geometry">
            <mxPoint x="1290" y="330" as="sourcePoint" />
            <mxPoint x="1317.27" y="400" as="targetPoint" />
            <Array as="points" />
          </mxGeometry>
        </mxCell>
        <mxCell id="eMXe8HDpTmr21RtKlJOG-41" style="edgeStyle=orthogonalEdgeStyle;rounded=0;orthogonalLoop=1;jettySize=auto;html=1;endArrow=classic;endFill=1;entryX=0.5;entryY=0;entryDx=0;entryDy=0;exitX=0.5;exitY=1;exitDx=0;exitDy=0;" parent="eMXe8HDpTmr21RtKlJOG-1" source="eMXe8HDpTmr21RtKlJOG-44" target="eMXe8HDpTmr21RtKlJOG-14" edge="1">
          <mxGeometry relative="1" as="geometry">
            <mxPoint x="1280" y="400" as="targetPoint" />
            <mxPoint x="1293" y="410" as="sourcePoint" />
            <Array as="points" />
          </mxGeometry>
        </mxCell>
        <mxCell id="eMXe8HDpTmr21RtKlJOG-42" value="Inference Request" style="edgeLabel;html=1;align=center;verticalAlign=middle;resizable=0;points=[];fontStyle=1" parent="eMXe8HDpTmr21RtKlJOG-41" vertex="1" connectable="0">
          <mxGeometry x="-0.087" relative="1" as="geometry">
            <mxPoint as="offset" />
          </mxGeometry>
        </mxCell>
        <mxCell id="eMXe8HDpTmr21RtKlJOG-43" value="" style="rounded=0;whiteSpace=wrap;html=1;" parent="eMXe8HDpTmr21RtKlJOG-1" vertex="1">
          <mxGeometry x="1232.73" y="340" width="120" as="geometry" />
        </mxCell>
        <mxCell id="eMXe8HDpTmr21RtKlJOG-44" value="" style="rounded=0;whiteSpace=wrap;html=1;" parent="eMXe8HDpTmr21RtKlJOG-1" vertex="1">
          <mxGeometry x="1232.73" y="380" width="120" as="geometry" />
        </mxCell>
        <mxCell id="eMXe8HDpTmr21RtKlJOG-45" value="&lt;i&gt;&lt;font style=&quot;color: rgb(119, 119, 119);&quot;&gt;Note there are layers of infrastructure between the client Application and the Kubernetes Loadbalancer omitted for this illustration&lt;/font&gt;&lt;/i&gt;" style="text;html=1;align=left;verticalAlign=middle;whiteSpace=wrap;rounded=0;fontSize=10;" parent="eMXe8HDpTmr21RtKlJOG-1" vertex="1">
          <mxGeometry x="1327.01" y="345" width="370" height="30" as="geometry" />
        </mxCell>
        <mxCell id="eMXe8HDpTmr21RtKlJOG-46" value="&lt;font style=&quot;color: rgb(0, 0, 102);&quot;&gt;Kubernetes Cluster&lt;/font&gt;" style="text;html=1;align=left;verticalAlign=middle;whiteSpace=wrap;rounded=0;fontStyle=1;spacingLeft=5;fontColor=#FFFFFF;fontSize=12;" parent="eMXe8HDpTmr21RtKlJOG-1" vertex="1">
          <mxGeometry x="992.65" y="450" width="157.35" height="30" as="geometry" />
        </mxCell>
      </root>
    </mxGraphModel>
  </diagram>
  <diagram id="-KAr7lT3Re3x_I6l_SI4" name="HTTPRoute + Inference">
    <mxGraphModel dx="1306" dy="785" grid="1" gridSize="10" guides="1" tooltips="1" connect="1" arrows="1" fold="1" page="1" pageScale="1" pageWidth="850" pageHeight="1100" math="0" shadow="0">
      <root>
        <mxCell id="0" />
        <mxCell id="1" parent="0" />
        <mxCell id="UhXCGIIOlnsV_vo19YMB-28" value="" style="group" vertex="1" connectable="0" parent="1">
          <mxGeometry x="150" y="130" width="588.75" height="517.5" as="geometry" />
        </mxCell>
        <mxCell id="UhXCGIIOlnsV_vo19YMB-12" style="edgeStyle=orthogonalEdgeStyle;rounded=0;orthogonalLoop=1;jettySize=auto;html=1;exitX=0.5;exitY=1;exitDx=0;exitDy=0;" edge="1" parent="UhXCGIIOlnsV_vo19YMB-28" source="UhXCGIIOlnsV_vo19YMB-2" target="UhXCGIIOlnsV_vo19YMB-7">
          <mxGeometry relative="1" as="geometry" />
        </mxCell>
        <mxCell id="UhXCGIIOlnsV_vo19YMB-2" value="Gateway" style="rounded=1;whiteSpace=wrap;html=1;fillColor=#dae8fc;strokeColor=#6c8ebf;fontStyle=1;verticalAlign=middle;spacingTop=0;fontSize=14;" vertex="1" parent="UhXCGIIOlnsV_vo19YMB-28">
          <mxGeometry x="261.5822742417368" width="183.1758070187724" height="63.8013698630137" as="geometry" />
        </mxCell>
        <mxCell id="UhXCGIIOlnsV_vo19YMB-13" style="edgeStyle=orthogonalEdgeStyle;rounded=1;orthogonalLoop=1;jettySize=auto;html=1;exitX=0.5;exitY=1;exitDx=0;exitDy=0;curved=0;" edge="1" parent="UhXCGIIOlnsV_vo19YMB-28" source="UhXCGIIOlnsV_vo19YMB-7" target="UhXCGIIOlnsV_vo19YMB-8">
          <mxGeometry relative="1" as="geometry" />
        </mxCell>
        <mxCell id="UhXCGIIOlnsV_vo19YMB-27" style="edgeStyle=orthogonalEdgeStyle;rounded=1;orthogonalLoop=1;jettySize=auto;html=1;exitX=0.5;exitY=1;exitDx=0;exitDy=0;curved=0;" edge="1" parent="UhXCGIIOlnsV_vo19YMB-28" source="UhXCGIIOlnsV_vo19YMB-7" target="UhXCGIIOlnsV_vo19YMB-26">
          <mxGeometry relative="1" as="geometry" />
        </mxCell>
        <mxCell id="UhXCGIIOlnsV_vo19YMB-7" value="HTTPRoute" style="rounded=1;whiteSpace=wrap;html=1;fillColor=#dae8fc;strokeColor=#6c8ebf;fontStyle=1;verticalAlign=middle;spacingTop=0;fontSize=14;strokeWidth=3;" vertex="1" parent="UhXCGIIOlnsV_vo19YMB-28">
          <mxGeometry x="261.5822742417368" y="151.2328767123288" width="183.1758070187724" height="63.8013698630137" as="geometry" />
        </mxCell>
        <mxCell id="UhXCGIIOlnsV_vo19YMB-14" style="edgeStyle=orthogonalEdgeStyle;rounded=1;orthogonalLoop=1;jettySize=auto;html=1;exitX=0.5;exitY=1;exitDx=0;exitDy=0;curved=0;" edge="1" parent="UhXCGIIOlnsV_vo19YMB-28" source="UhXCGIIOlnsV_vo19YMB-8" target="UhXCGIIOlnsV_vo19YMB-9">
          <mxGeometry relative="1" as="geometry" />
        </mxCell>
        <mxCell id="UhXCGIIOlnsV_vo19YMB-15" style="edgeStyle=orthogonalEdgeStyle;rounded=1;orthogonalLoop=1;jettySize=auto;html=1;exitX=0.5;exitY=1;exitDx=0;exitDy=0;curved=0;" edge="1" parent="UhXCGIIOlnsV_vo19YMB-28" source="UhXCGIIOlnsV_vo19YMB-8" target="UhXCGIIOlnsV_vo19YMB-10">
          <mxGeometry relative="1" as="geometry" />
        </mxCell>
        <mxCell id="UhXCGIIOlnsV_vo19YMB-8" value="InferencePool" style="rounded=1;whiteSpace=wrap;html=1;fillColor=#0050ef;strokeColor=#001DBC;fontStyle=1;verticalAlign=middle;spacingTop=0;fontSize=14;fontColor=#ffffff;" vertex="1" parent="UhXCGIIOlnsV_vo19YMB-28">
          <mxGeometry x="118.02403119278895" y="302.4657534246576" width="183.1758070187724" height="63.8013698630137" as="geometry" />
        </mxCell>
        <mxCell id="UhXCGIIOlnsV_vo19YMB-9" value="InferenceModel" style="rounded=1;whiteSpace=wrap;html=1;fillColor=#0050ef;strokeColor=#001DBC;fontStyle=1;verticalAlign=middle;spacingTop=0;fontSize=14;fontColor=#ffffff;" vertex="1" parent="UhXCGIIOlnsV_vo19YMB-28">
          <mxGeometry y="453.6986301369863" width="183.1758070187724" height="63.8013698630137" as="geometry" />
        </mxCell>
        <mxCell id="UhXCGIIOlnsV_vo19YMB-10" value="InferenceModel" style="rounded=1;whiteSpace=wrap;html=1;fillColor=#0050ef;strokeColor=#001DBC;fontStyle=1;verticalAlign=middle;spacingTop=0;fontSize=14;fontColor=#ffffff;" vertex="1" parent="UhXCGIIOlnsV_vo19YMB-28">
          <mxGeometry x="236.04520649295318" y="453.6986301369863" width="183.1758070187724" height="63.8013698630137" as="geometry" />
        </mxCell>
        <mxCell id="UhXCGIIOlnsV_vo19YMB-26" value="Service" style="rounded=1;whiteSpace=wrap;html=1;fillColor=#dae8fc;strokeColor=#6c8ebf;fontStyle=1;verticalAlign=middle;spacingTop=0;fontSize=14;" vertex="1" parent="UhXCGIIOlnsV_vo19YMB-28">
          <mxGeometry x="405.57419298122767" y="302.4657534246576" width="183.1758070187724" height="63.8013698630137" as="geometry" />
        </mxCell>
      </root>
    </mxGraphModel>
  </diagram>
  <diagram name="aigwroute + inference" id="b8HXxo0u0xjdcmuoBPHM">
    <mxGraphModel dx="1306" dy="785" grid="1" gridSize="10" guides="1" tooltips="1" connect="1" arrows="1" fold="1" page="1" pageScale="1" pageWidth="850" pageHeight="1100" math="0" shadow="0">
      <root>
        <mxCell id="VywKI6yZoKJIBIxdd0Ie-0" />
        <mxCell id="VywKI6yZoKJIBIxdd0Ie-1" parent="VywKI6yZoKJIBIxdd0Ie-0" />
        <mxCell id="VywKI6yZoKJIBIxdd0Ie-3" style="edgeStyle=orthogonalEdgeStyle;rounded=0;orthogonalLoop=1;jettySize=auto;html=1;exitX=0.5;exitY=1;exitDx=0;exitDy=0;" parent="VywKI6yZoKJIBIxdd0Ie-1" source="VywKI6yZoKJIBIxdd0Ie-4" target="VywKI6yZoKJIBIxdd0Ie-7" edge="1">
          <mxGeometry relative="1" as="geometry" />
        </mxCell>
        <mxCell id="VywKI6yZoKJIBIxdd0Ie-4" value="Gateway" style="rounded=1;whiteSpace=wrap;html=1;fillColor=#dae8fc;strokeColor=#6c8ebf;fontStyle=1;verticalAlign=middle;spacingTop=0;fontSize=14;" parent="VywKI6yZoKJIBIxdd0Ie-1" vertex="1">
          <mxGeometry x="411.5822742417368" y="130" width="183.1758070187724" height="63.8013698630137" as="geometry" />
        </mxCell>
        <mxCell id="VywKI6yZoKJIBIxdd0Ie-5" style="edgeStyle=orthogonalEdgeStyle;rounded=1;orthogonalLoop=1;jettySize=auto;html=1;exitX=0.5;exitY=1;exitDx=0;exitDy=0;curved=0;" parent="VywKI6yZoKJIBIxdd0Ie-1" source="VywKI6yZoKJIBIxdd0Ie-7" target="VywKI6yZoKJIBIxdd0Ie-10" edge="1">
          <mxGeometry relative="1" as="geometry" />
        </mxCell>
        <mxCell id="VywKI6yZoKJIBIxdd0Ie-7" value="AIGatewayRoute" style="rounded=1;whiteSpace=wrap;html=1;fillColor=light-dark(#8953ee, #7f61b7);strokeColor=#6F3ADC;fontStyle=1;verticalAlign=middle;spacingTop=0;fontSize=14;fontColor=#ffffff;strokeWidth=3;" parent="VywKI6yZoKJIBIxdd0Ie-1" vertex="1">
          <mxGeometry x="411.5822742417368" y="281.2328767123288" width="183.1758070187724" height="63.8013698630137" as="geometry" />
        </mxCell>
        <mxCell id="VywKI6yZoKJIBIxdd0Ie-8" style="edgeStyle=orthogonalEdgeStyle;rounded=1;orthogonalLoop=1;jettySize=auto;html=1;exitX=0.5;exitY=1;exitDx=0;exitDy=0;curved=0;" parent="VywKI6yZoKJIBIxdd0Ie-1" source="VywKI6yZoKJIBIxdd0Ie-10" target="VywKI6yZoKJIBIxdd0Ie-11" edge="1">
          <mxGeometry relative="1" as="geometry" />
        </mxCell>
        <mxCell id="VywKI6yZoKJIBIxdd0Ie-9" style="edgeStyle=orthogonalEdgeStyle;rounded=1;orthogonalLoop=1;jettySize=auto;html=1;exitX=0.5;exitY=1;exitDx=0;exitDy=0;curved=0;" parent="VywKI6yZoKJIBIxdd0Ie-1" source="VywKI6yZoKJIBIxdd0Ie-10" target="VywKI6yZoKJIBIxdd0Ie-12" edge="1">
          <mxGeometry relative="1" as="geometry" />
        </mxCell>
        <mxCell id="VywKI6yZoKJIBIxdd0Ie-10" value="InferencePool" style="rounded=1;whiteSpace=wrap;html=1;fillColor=#0050ef;strokeColor=#001DBC;fontStyle=1;verticalAlign=middle;spacingTop=0;fontSize=14;fontColor=#ffffff;" parent="VywKI6yZoKJIBIxdd0Ie-1" vertex="1">
          <mxGeometry x="411.5840311927889" y="432.4657534246576" width="183.1758070187724" height="63.8013698630137" as="geometry" />
        </mxCell>
        <mxCell id="VywKI6yZoKJIBIxdd0Ie-11" value="InferenceModel" style="rounded=1;whiteSpace=wrap;html=1;fillColor=#0050ef;strokeColor=#001DBC;fontStyle=1;verticalAlign=middle;spacingTop=0;fontSize=14;fontColor=#ffffff;" parent="VywKI6yZoKJIBIxdd0Ie-1" vertex="1">
          <mxGeometry x="293.56" y="583.6986301369864" width="183.1758070187724" height="63.8013698630137" as="geometry" />
        </mxCell>
        <mxCell id="VywKI6yZoKJIBIxdd0Ie-12" value="InferenceModel" style="rounded=1;whiteSpace=wrap;html=1;fillColor=#0050ef;strokeColor=#001DBC;fontStyle=1;verticalAlign=middle;spacingTop=0;fontSize=14;fontColor=#ffffff;" parent="VywKI6yZoKJIBIxdd0Ie-1" vertex="1">
          <mxGeometry x="529.6052064929531" y="583.6986301369864" width="183.1758070187724" height="63.8013698630137" as="geometry" />
        </mxCell>
        <mxCell id="l2PhtIbQerYjvgblBaJu-0" value="" style="shape=image;verticalLabelPosition=bottom;labelBackgroundColor=default;verticalAlign=top;aspect=fixed;imageAspect=0;image=data:image/png,iVBORw0KGgoAAAANSUhEUgAAAfQAAAH0CAYAAADL1t+KAAAACXBIWXMAAA7EAAAOxAGVKw4bAAAEvGlUWHRYTUw6Y29tLmFkb2JlLnhtcAAAAAAAPD94cGFja2V0IGJlZ2luPSfvu78nIGlkPSdXNU0wTXBDZWhpSHpyZVN6TlRjemtjOWQnPz4KPHg6eG1wbWV0YSB4bWxuczp4PSdhZG9iZTpuczptZXRhLyc+CjxyZGY6UkRGIHhtbG5zOnJkZj0naHR0cDovL3d3dy53My5vcmcvMTk5OS8wMi8yMi1yZGYtc3ludGF4LW5zIyc+CgogPHJkZjpEZXNjcmlwdGlvbiByZGY6YWJvdXQ9JycKICB4bWxuczpBdHRyaWI9J2h0dHA6Ly9ucy5hdHRyaWJ1dGlvbi5jb20vYWRzLzEuMC8nPgogIDxBdHRyaWI6QWRzPgogICA8cmRmOlNlcT4KICAgIDxyZGY6bGkgcmRmOnBhcnNlVHlwZT0nUmVzb3VyY2UnPgogICAgIDxBdHRyaWI6Q3JlYXRlZD4yMDI1LTA3LTA5PC9BdHRyaWI6Q3JlYXRlZD4KICAgICA8QXR0cmliOkV4dElkPjI5ODExZTlmLWJiOTctNGRmYS04OGJkLWFjNmM0MjdiZGI4NTwvQXR0cmliOkV4dElkPgogICAgIDxBdHRyaWI6RmJJZD41MjUyNjU5MTQxNzk1ODA8L0F0dHJpYjpGYklkPgogICAgIDxBdHRyaWI6VG91Y2hUeXBlPjI8L0F0dHJpYjpUb3VjaFR5cGU+CiAgICA8L3JkZjpsaT4KICAgPC9yZGY6U2VxPgogIDwvQXR0cmliOkFkcz4KIDwvcmRmOkRlc2NyaXB0aW9uPgoKIDxyZGY6RGVzY3JpcHRpb24gcmRmOmFib3V0PScnCiAgeG1sbnM6ZGM9J2h0dHA6Ly9wdXJsLm9yZy9kYy9lbGVtZW50cy8xLjEvJz4KICA8ZGM6dGl0bGU+CiAgIDxyZGY6QWx0PgogICAgPHJkZjpsaSB4bWw6bGFuZz0neC1kZWZhdWx0Jz5BSSAtIDE8L3JkZjpsaT4KICAgPC9yZGY6QWx0PgogIDwvZGM6dGl0bGU+CiA8L3JkZjpEZXNjcmlwdGlvbj4KCiA8cmRmOkRlc2NyaXB0aW9uIHJkZjphYm91dD0nJwogIHhtbG5zOnBkZj0naHR0cDovL25zLmFkb2JlLmNvbS9wZGYvMS4zLyc+CiAgPHBkZjpBdXRob3I+RXJpY2EgU3VuZGJlcmc8L3BkZjpBdXRob3I+CiA8L3JkZjpEZXNjcmlwdGlvbj4KCiA8cmRmOkRlc2NyaXB0aW9uIHJkZjphYm91dD0nJwogIHhtbG5zOnhtcD0naHR0cDovL25zLmFkb2JlLmNvbS94YXAvMS4wLyc+CiAgPHhtcDpDcmVhdG9yVG9vbD5DYW52YSAoUmVuZGVyZXIpIGRvYz1EQUdzcjgwSUpNOCB1c2VyPVVBRGp6WUhPdXIwIGJyYW5kPUVyaWNhIFN1bmRiZXJn4oCZcyB0ZWFtIHRlbXBsYXRlPTwveG1wOkNyZWF0b3JUb29sPgogPC9yZGY6RGVzY3JpcHRpb24+CjwvcmRmOlJERj4KPC94OnhtcG1ldGE+Cjw/eHBhY2tldCBlbmQ9J3InPz4jvt56AABm4UlEQVR4nOzdeXgW5b3G8W8SEkK2NyQQRXEfjnihRUUFh11ate6iUFC7WNuqVTvuimIXi6C1LlO1ao/Hc9qDgoAgCooLalBGUFGohWIZrQKChhDyZk8gyflj9FxtqUDI8szMe3+uy/+8wi0mc+eZ9/k9TxoiIiISeWmmA4iIiEj7qdBFRERiQIUuIiISAyp0ERGRGFChi4iIxIAKXUREJAZU6CIiIjGgQhcREYkBFbpIjDi2nw0cA5QABf/wD0DVl/8kgS2uZ71lJKSIdAoVukiEObbfCzgJGAacCBzXxi/xNuABbwKvup61rWMTikhXUaGLRIxj+8cBpwGnAyd08Jf3gIXAQtezVnXw1xaRTqRCF4kIx/ZPA+4CjuyiP3IlcLXrWaVd9OeJSDuo0EVCzrH9I4EHgZGGIiwCbnA96y+G/nwR2QMqdJGQcmy/BLgb+J7pLF/6H+Am17PKTAcRkZ2lmw4gIjtzbP9GwCc8ZQ7wA8D/MpuIhIxW6CIh4tj+mcC9gGU6y26sA651PWuB6SAiElChi4SAY/v9gIeBMaaztNFi4HLXs9aZDiKS6lToIgY5tp8P/Aq4xnSWdroX+KXrWdWmg4ikKhW6iCGO7f8ImAr0Np2lg5QBt7qe9ZjpICKpSIUu0sUc2x8MPAoMNJ2lk6wCLnU9a7npICKpRIUu0kUc2+8D3ANMNJ2lizwJXO961mbTQURSgcbWRLqAY/uTCcbQUqXMAS4A1jm2f6vpICKpQCt0kU7k2P5YglX5wYajmPZ34DrXs+aZDiISVyp0kU7g2H5/4BHMHdcaVqXAZa5nrTUdRCRuVOgiHcix/QQwBbjSdJaQexCY7HpW0nQQkbjQZ+giHcSx/Z8CH6Ey3xNXAh85tn+56SAicaEVukg7ObY/lGAMbYDpLBG1mmDMbanpICJRpkIX2UuO7fcF7gPON50lJmYTnA+/0XQQkShSoYu0kWP72cAk4EYg23CcuKkHfgPc6XpWg+kwIlGiQhdpA8f2JxAUzgGms8TcBuAG17OeMh1EJCpU6CJ7wLH9AQSfkw81nSXFLCX4fH216SAiYadCF9kFx/aLgGnAT0xnSXGPAre4nlVhOohIWGlsTeRrOLbvEIyhqczNu5RgzO1npoOIhJVW6CL/wrH9McDDQD/TWeTfWktw2lyp6SAiYaJCF/mSY/uHEoyhnWU6i+yR+YDjetanpoOIhIEKXVKeY/u5wGTgZtNZZK9MA6a4nlVnOoiISSp0SWmO7X8XuAvoYzqLtMsm4CbXs6abDiJiigpdUpJj+4MIdk4PMp1FOtRygjG3VaaDiHQ1FbqkFMf2SwhW5D8wHEU61+MEK/Zy00FEuorG1iRlOLZ/A+CjMk8FPyQYc7vedBCRrqIVusSeY/unE+xe1xhaaloHXO561mLTQUQ6kwpdYsux/X4E8+RjTGeRUHgeuMr1rI9NBxHpDCp0iR3H9vOBXwDXmc4iofRb4HbXs6pNBxHpSCp0iRXH9i8BpgIlprNIqH0BTHI9679NBxHpKCp0iQXH9gcTjKENNJ1FImUVwZjbctNBRNpLhS6R5th+H+Bu4ELTWSTSpgM3up612XQQkb2lsTWJLMf2byHYwawyl/a6CPibY/uTTAcR2VtaoUvkOLZ/LnAPcIjpLBJLHwPXup4133QQkbZQoUtkOLbfH3gEGGk6i6SEUoJrWteaDiKyJ1ToEnqO7SeAXwNXmc4iKel3wM9dz0qaDiKyKyp0CTXH9i8DpgDFprNISisHJrue9ajpICJfR4UuoeTY/lCCMbQBprOI/IPVBGNuS00HEflXKnQJFcf2+wL3AuNMZxHZhaeA613P2mg6iMhXVOgSCo7tZwM3AzcCPQzHEdkTdQRX8f7G9awG02FEVOhinGP74wkOhznQdBaRvfApcIPrWbNNB5HUpkIXYxzbH0DwOflQ01lEOsBSgs/XV5sOIqlJhS5dzrH9IuAO4DLTWUQ6wcMEO+IrTAeR1KKjX6VLObb/M8BHZS7xdTngO7Z/pekgklq0Qpcu4dj+SIJT3vqbziLShdYSnDZXajqIxJ8KXTqVY/sHAfcD55jOImLQXILz4T81HUTiS4UuncKx/RzgVuAW01lEQqKB4FKhqa5n1ZkOI/GjQpcO59j+RQTzufuZziISQp8R3L3+pOkgEi8qdOkwju0PJBhDG2w6i0gELCcYc1tlOojEgwpd2s2x/V4EK/Ifms4iEkGPAZNczyo3HUSiTWNr0i6O7V8HfITKXGRv/YhgzO0a00Ek2rRCl73i2P4YggM0+pnOIhIj64DLXc9abDqIRI8KXdrEsf1DgQeA00xnEYmxBYDjetbHpoNIdKjQZY84tp8L/BK43nAUkVTyG+B217NqTQeR8FOhy245tn8xMA3Yx3QWkRT0OXCz61l/NB1Ewk2FLl/Lsf1BBGNog0xnERFWEIy5rTAdRMJJhS47cWy/D8EY2ndNZxGRnfyJ4P71MtNBJFw0tib/xLH9ScDfUJmLhNX3CMbcbjIdRMJFK3QBwLH9swnOmT7MdBYR2WM+waUvz5kOIuap0FOcY/v9Ca41HWk6i4jstcUE8+vrTAcRc1ToKcqx/QTwK8AxnUVEOsx9wC9cz6o2HUS6ngo9BTm2fykwBehlOouIdLgtwK2uZ/2n6SDStVToKcSx/aEEY2gDTGcRkU63imDMbbnpINI1VOgpwLH9vsBvge+YziIiXW4GcJ3rWZtNB5HOpUKPMcf2s4EbgZuAHMNxRMScOmCa61lTTAeRzqNCjynH9s8nWJUfZDqLiITGJwSr9bmmg0jHU6HHjGP7Awg+Jx9qOouIhFYpcJnrWWtNB5GOo0KPCcf2iwh2rl9uOouIRMZDBDvik6aDSPvp6NcYcGz/SoITo1TmItIWVwAfO7b/U9NBpP20Qo8wx/ZHEpzy1t90FhGJvNUEY25LTQeRvaNCjyDH9g8C7gXGms4iIrEzB7jG9ayNpoNI26jQI8Sx/RzgFuA6INtwHBGJrwbgNwSjbg2mw8ieUaFHhGP7FxD8gO1vOouIpIwNwI2uZ800HUR2T4Ueco7tDyQYQxtsOouIpKylBJ+vrzYdRL6eCj2kHNvvBUwDfmQ6i4jIl/5AMOZWbjqI7ExjayHk2P61BGNoKnMRCZOfAOsc29e1yyGkFXqIOLY/BngY6Gc6i4jIbqwDLnc9a7HpIBJQoYeAY/uHAi5whuksIiJt9CzBmNvHpoOkOhW6QY7t5wI/J7gRTUQkyu4EprieVWs6SKpSoRvi2P73CX4A9jWdRUSkg2wGbnI9639NB0lFKvQu5tj+IIIxtEGms4iIdJIVBGNuK0wHSSUq9C7i2H4JcDfwPdNZRES6yH8DN7ueVWY6SCpQoXcBx/ZvAiYDeaaziERVUZ9uFBR3o66qmbL1203HkT1XDfza9ay7TQeJOxV6J3Js/0yCS1Qs01lEoqR7TjonfDufY8bkUbx/NxK9uu3073zxSROfrmnkr2/V8Zc3a9ne1GogqbTBOoLd8AtNB4krFXoncGy/H8E8+RjTWUSipHi/TEZNSDD49AKysvf88dTU0MK7L9aw+H8r2bpZq/eQW0wwv77OdJC4UaF3IMf284HbgatNZxGJkiOG5DBsbIIBQ3Pa/bWWLahi/gNbqa9p6YBk0onuAX7lela16SBxoULvII7t/xi4A+htOotIFGR2T2Pw6QUMPz/BPgdldujXrk028+xDW1m+UF0RcmXAJNezHjcdJA5U6O3k2P5ggjG0gaaziERB0b7dGDEuwZAzCsjO69zrJP7+QQMzppZpE134rSIYc1tuOkiUqdD3kmP7fQheGU00nUUkCvoN6sHI8QkG2LmkdeG1UM07Wnn1yUpefHwbO7Zr41zIPQHc4HrWZtNBokiFvhcc278NuBlo/wd+IjGWmZXGcafmM2Jcgj6HZhnNUrF5BzOmlbFuRb3RHLJbtcBU17Ommg4SNSr0NnBs/zzgt8DBhqOIhFqiVzdGjE9w4pkF5BSE65bm91+tYd795VRtbTYdRXbtY+A617OeMR0kKlToe8Cx/f7AI8BI01lEwuywo3swYlyCo0bkkh6uHv8nDbUtLHy0gjfnJmnVW/iwKwUucz1rrekgYadC3wXH9hMEO9evMJ1FJKy6ZaYx6OQ8RoxLsH+/7qbjtMnGDxt5cmoZm/wm01Fk9x4AbnM9K2k6SFip0L+GY/tXEMyUF5nOIhJGBcUZDD8vwYlnF5BXmGE6zl5raYE35iR5/g8VNNZrdj3kyglK/RHTQcJIhf4vHNsfCTwEDDCdRSSMDj4ymxHjEhw9Opf0jPg8QpJbdvD0feX8uVTXeUfAaoIxt6Wmg4RJfH4a28mx/YMIxtDOM51FJGwyuqVxzJg8Ro5PcED/aL1Wb6u1y+uYeecWKst2mI4iuzeLYOPcRtNBwiDlC92x/RyCEbQbgGzDcURCJa9nBsPGJhh6TgH5RdF9rd5WTQ2tvPh4Ba/NqKRFb+HDrh64C7jL9awG02FMSulCd2x/AsEd5X1NZxEJk/37dWf0xATHnJRHRmbqPiY+/6SJJ+8oY/2aRtNRZPfWExxKM8t0EFNS8ifVsf2BBMe1DjadRSQs0jPSOHp0LiPGJTj4SL2s+kprKyxfUMX8B3XhS0QsJfh8fbXpIF0tpQrdsf1ewFTgx6aziIRFTkE6Q89NMOzcAhK9d753XAI1lc3Mf2Ar7yzShS8R8Qhwq+tZFaaDdJWUKXTH9q8GfgEUms4iEgZ9Dsti1HcKGXRyHt1S+LV6W320sp4ZU7dQ/pkufImAbcAvXM96wHSQrhD7n2LH9scADwP9TGcRMS09HY4akcvI8YUcOlCv1fdW8/ZWXpleyct/1IUvEbGW4LS5UtNBOlNsC/3L1+sPABNMZxExrUdeOvY5BQwbm6DnPnqt3lEqNu/giSllfLRSF75ExAzgyri+ho9loTu2PxH4HdDLdBYRk0oOzGT0xEKOOyWfzO6x/HEPhRUv1TDPLaemUhe+RMAWglKP3W74WP2EO7afT3Cf7pmms4iYkpYGRw4Ldqv3G9TDdJyUUV/TwoKHt+LNr9KFL9EwD/i+61mx2eUYm0J3bL8vsAgd2SopKjs3nSFnFjD8/AKK+2SajpOyNn7YyPTby/j8E134EgGrgW+6nvW56SAdIRaF7tj+AOAVYF/TWUS6Wu8DMhk5PsEJp+WTlR3iO0tTSEtzK6WzkrzwWAVNDVquh9xGglL/0HSQ9op8oTu2PwR4GcgznUWkq6SlwRFDchgxPsHhx+eQFvmf5HiqLNvB0/eW88EbuvAl5KqA0a5nvWc6SHtE+jHg2P7BwHtAT8NRRLpEVnY6Q87IZ/j5CXofoNfqUbF2eR0zpm4hWa4LX0Lsc+CYKL9+j2yhO7ZfALyL5sslBRTvF7xWH3x6Pt1z9Fo9ipoaWnjhsW2UPqULX0Lsz8AQ17MiOYcY5YHUZ1GZS8z1H5zD0HMLOGp4rukoofLOC9UcfkIOBcXRuQEuKzuds68sZsgZ+cyYuoVPVqf0xWBh9Q2CK1kjOSkVyRW6Y/u/JDjGVSR2MrunccJp+Yw4P8E+B2eZjhMaVVubWTovyZtzq6hNNpOVncZpPylixLhC0iP20qK1Fbz5VTz3+6001Gq5HkLXu551j+kQbRW5Qv/yprSVpnOIdLTCkm6MHJ9gyJkF9MiLWEN1ovVrGimdXcnKV2tp3rHzjvH9rCwuuKWEvod3N5CufaormnnmgXJWvFRjOorsrJ/rWb7pEG0RxUJfAxxhOodIR+l3bA9GjEtw5LBc0tTjADTvaGXVa7WUzkry6Zrdv5pOS4OhYxOccWkR2bnR+0v8aGU9T0wpo2KzNs2FyNuuZ0Xqiu1IFbpj+5OBX5vOIdJemVlpDDoln5HjEvQ5TK/Vv1JT2Yz3TBVvzk1StbXtx6gWFGdw7tW9OOak6E2x7tjeyst/3MYr0ytp1oUvYXGF61m/Nx1iT0Wm0B3bLwQ2ATrLUiIr0asbI8YlOPGsAnIKoreS7Cwb/9bIktlJVrxc0yFl1m9QDy6cXEJhSfT2/ZZ/tp0ZU7fowpdwKAcOjMqu9ygV+lRgkukcInvj0IHZjByX4KiReZHbwNVZWlrgg9IaSmcn+XhVx+/4zsxK45Qf9mT0xEIyukXmUff/3llUzTO/20ptUhe+GBaZDXKR+C7/cnW+AZ0GJxGSkZnGoG/lMWJcgr7/Eb0NW52lrqqFt56tYsnsZJcctFJyYCYTbynhkKOid/97XXULz/1+K8ue04UvBkVmlR6VQr8duM10DpE9UVCcwbCxCexzCsgrjM6cdGfb/HETS2YneXdRNdubur6dhpxRwFlXFEfyo471axp58g5d+GKQ43rW70yH2J2oFPrnwD6mc4jsysEDshkxLsHA0bmRfMXbGVpbYLUX7FZft8L8Aic3kcE5VxVz/LfzTUdps5bmVl6bmWTRYxVGfiFKcStdzzrGdIjdCf1Tx7H94cAS0zlE/p2MbmkcfVIuI8cXcuAReq3+lYaaFpYtrGLJrCQVn4dvFOuQo7K58LYSeu0fvfPwK8t2MPPOLaxdXmc6Sqr5D9ez1pkOsStRKPQHgStM5xD5R7mJDIafV4B9TiJSx492trL121kyJ8nbC6tpagj3CWgZmWl886JCvvX9nnTLDP2jcCd/Lq1lzj1b9mq8T/bKz13PCvXYdOi/ix3br0C3qUlI7N+vO6MmJDh2TB4ZESyBztDaGtwmtmR2kr8ui96qsahPNy6cXMJhR0dvIraxroXn/7OCJXOStIb796c4+IvrWUeZDrEroX4iObZ/DMH1qCLGpGekMXBULiPGJSK5U7qzNNa38Pbz1bw+M8nWTdtNx2m3QSfnce7PepHXM3pvXDb5TTw5tYyNHzaajhJ3+7qe9YXpEF8n7KcuHGc6gKSunIJ0hp6TYNjYAhK9w/6j0nXKP9vOG08nWfZcNY118VkWrniphtVL6zjrp8WceHYBaaFe7vyz/awsrnusL0vnJXnu4Qoa6+Pz/yVkBgHPmw7xdcL+lBpkOoCknn0PzmL0xEKOPTmPzKwIPdU72d/erad0VpI1Xm1sZ6IbaluYdfcWli2s4oJbS9g3QrfdpaXDsPMSfGNUHvPuL+f9V3XhSycIdaGH+mnl2P67qNSlC6Slw1HDcxk5PhHJz1I7S1NDK+++WM3rMyspWx/91+ptkZ4OoyYUcuolRWRlh/pR+W+tW1HPjGm68KWDzXc96xzTIb5OqL9LHduP6TpAwqJHXjr22QUMHZugaN+wv7DqOtu+2MGbTyfx5ldRX5Par28LS7ox4ebe9B+cYzpKm21vbOWl/9nG4icqaWnW47QDfOJ61iGmQ3yd0Ba6Y/vdgNRaEkiXKTkwk1ETCjnulPxIrr46y0cr61kyO8kHS2ppSe0e38k3RuZy3jW9Irmfomz9dmZMLePvH3T8mfmpxvWs0D4wQhvMsf1swPzRUhIrA4bmMGpCIf2O1Wv1f/TOompen1HJZ76OFt2V7jnpnHlZEcPOS5iOslfefbGaea4ufGmnbq5nhfIvMMyFngdUm84h8dBvUA/Ov7YX+0Rok1Nnq65oZsmcJEvnJamr0nK8Lfazspg4qYQD+kfvdMCGmhaeeWAryxZUmY4SVT1czwrlq44wF3ohsM10Dom+Uy8p4tQf6myir3y6piG4e/wl7YJur5HfSXD6T4rIyo7ehS8fr2pg5p1lKbfZsQMUuJ4VysVmmAu9J1BhOodE28k/6MlpPy4yHSMUVrxUw+tPVbJhrQ4f6UgFxRmcd00vBo6O5u3OL/9pGwsf1aO2DYpczwrlYlOFLrF11IhcLpm2r+kYRlVXNOPNr+KNp5PUbAvlx36x0W9QDy6cXEJhSfQ2zVVs3sGMaWWhuBEvAlTobaVCl/bIL8pg8qwD6d4jeq9CO8KGDxtZMjvJe6/U0Lxd40pdJTMrjVMvKWLUhEQkr9B9/9Ua5t1frgtfdi20hR69XyVF9sDplxalZJm/90oNbzyd5O9/DuWendjb3tTKcw9v5Z0XqvnOzb0jd/b/MSflccTgHF74rwpKn0qajiNtFNpfIbVCl72VlZ3GHc8fQmb30H57d6jaZDNvPVvNG08nSW7RqWBhMuSMAs66spic/Oj9crnhw0ZmTtvCZ+u05+JfaIUu0lUOPCI7Jcp8k9/EktlJ3n2xmh16rR5KyxZU8cEbtZzrFHPcKfmm47TJAYd357rH+/LGnCTP/0EXvkSBCl1ip8+h8Z41X/lqDUvnVbHuPW1gioLaZDPTby9j+YJqJkzqTfF+maYj7bH0dBg5PsGx38xjzr3lrHpNo45hpkKX2Inj6ry+poVlz1VROitJZZleq0fRuvfqmXrBBr71vZ5887uFdMuMzvdpflEGF0/Zh7XL85l55xZ9D4aUCl1iJ05Xe5Zv3M5rMyt5+/lqtjfG6D8sRTVvb2XRf1Ww4qVqxt/YO3JHEPcfnMMv5x3EwkcrePlPofwYOaWp0CV2on6rVGsr/PWtOpbMTrL27TrTcaQTbNmwnYeu2sTxp+Zz9lXF5BVmmI7UJqdfWsTx385n+q+/YP0abZoLCxW6xE5UN4g11rWwfGE1pbOSbN2k4zhTwTuLqvnLm7WcdUUxQ84sIC06b+EpOTCTa/7Ql+ULqpj/4NaUv2Y3DFToEjvNEevC8o3bWTInyfKF1TTW6aGYauprWnjqri289VwVF922DyUHRmfTXFoaDDmzgCOH5zL/wWD+XsxRoUvsNO+Ixgr9w3fqKZ1VyV/fqovV5/6yd9avaeTOizYwemKCUy4uIis7Osv1vMIMLpxcwpAz8pkxdQvln0Xst+qYUKFL7OxoCm87NjW08M6iGl6fWcmWDXroyT9raW5l8fRKVrxUw4WTS+g3KFqb5g47ugeTnjiAV6ZX8vIft0X246+oUqFL7OwI4Qq9YvMO3pybxJtfRUOtXqvLrlWW7eChn21i4Og8xl5dTKJXdB7VGZlpnHJxT44/NZ8nppTx0Uqdl9BVovNdIrKHwnQZif9+PUtmJ/ngjVpa1ePSRqteq2HtsjpOv6yI4WMTpEXoBNmiPt246qH9eO/lGubeX05NpS586WwqdIkd0yv07U2trHipmtdnJPn8kyajWST6GutbmHtfOcu+3DS3nxWtkxCP/VYeR5yYw4KHt+LNr9J+kU6kQpfYMbXLvbJsB2/OrcKbn6SuSstx6Vib/CbuvngDI85PcNqPi+ieE53leo+8dMbd0JsTzypg+u1l+kW3k6jQJXZMbIqbe185S+bouknpXK0tUDoryfuLazjv2t4MHJVrOlKb9D28Ozc/cQCvzajkhccqaGrQcr0j/R8AAAD//+ydd2BUVd7+n6lp0zKTTEJCEhBZEQUpQqihg5QAAoEExIqsygb7KgHslHVXFsXs8vKzLxB6V0AUJBSD1AUX4UUEE0IgpM1k0mYyM78/svEFTLmTuffcc+eez3/vu3LnZOae85xvl84Vj8HgiFuETnHnj7HEHwY57MVufDr3Gpa/UCDJvuqD0kzIyIpHp/7SupDQDhN0RsAhRlKcmvm6GCJw7kglFkzJxd7VZZJreWyyqvHE4mg8taSVpLL4aYYJOiPgEKP2VSWhyVmMwMLl9GJbZjHeffiKJPuqd0gMxdy1cRiYapJUFj+NsK+PEXCIYaEzQWeIzbXLTvx95hWs++sNyfVV1wYrMT7dgqeXxEgq2Y822DfHCDhEsdBVTNAZ4uP1Aoe32LEgNRfHdkuvr/ofeoTgT8tixF6GZGGCzgg4xBB0tQ8WujlajeSnLRj2SLiAK2LIGUepGyvfKkRm+lXJTe6L6xCER96KEnsZkoQJOiPgcIuQ9MvV5d5lsA6vbUzAkIdMGD3TjFdXxqFtp2CBV8eQKxdOVGHR1Dzs/rSUqg6KzdF1iA69xhjEXobkYILOCDjEGEGq4pikGxx265aLbqvF7H/GYsorkQjRse3I4J9alxc7PyrB4ul5+PmkdMorJzxvgcGiEnsZkoKdIAwGD3B1uXsaaEurUAC9xxowd208ejyg53tpDAYA4EaeCx/+6SpWvV2IChv9fdW1wUqMnGEWexmSggk6IyAhXZPLVdCb6jOvM6kwbb4V6ZkxiIjV8LU0BuMWju4qxzuTc5Gzg/6+6j1H6VnWuw+wb4oRkJBOjOMaQ+cS36+fKT1yhtmnZDsGgytVDg/WLLqBZc/k40YevUlzKrUCnQewbnJcYYLOCEhqCZ9RXIWXa2JS/UzpjKx4tO8e4s/SGIxG+eV0NRZNy8OO5SVw1dBprnfoGSr2EiQDE3RGQEI6o5e7he7busyt1Jj1QQwefjMKOhNLEGLwj8ftxTf/KsWC1FxcOE5f0lxse2mNixUTJugMSaALV2HkDO4jI30VTn/hmuXe0lBAt6E6zFsbj34TjS369wxGc5QV1iJz9lV8Nv867MX0JM2ZrKzPO1eYoDOoJrZ9EKa/HoU3tyRgxGPh0ARxTD4jbKFzdrn7cdEI1ikx6YUIvPRJa8TcyawWhjCc2uvAgim5OLjRBi8FHWRvL/VkNA67+jCoQ6lSoMvgMCSlGNHmnlubrvAdq+YL7mVr/n9W67uC8NKnccheX4avVrCZ0gz+qanyYMOSIuR8WY6pGVbRL5BqjUKUDpBSgwk6gxpCDUr0m2BE3wcNjY5TVKm5lofxubLm4RpDb6pszReUSmDgFBO6DNJh09IinN5fwctzGYybuXK+Bn99LA8DUkwY+WQ4gkLEsZZVTNA5wQSdITqt2mkxKNWEbsN0zVq6ao7l2cST4jheNPhel8mqxuMLo3HuSCXWLL6BskIR+t4yAhqvB/hubRlOfuvApBcj0CmJfBmZWqOA9AbDkocJOkMUlEqgU1KdW71dF+5lWZwtYUpd7kIl63VIDEVGVjx2f1KCfVll8FAQ+2QEFraiWnw85xoSR+uRlmEl+tlck07lDvuaGEQJ0SnRZ5wB/SYaER7l++snliXcHCrOngPh1qANViD5GQt6jNJj9YJC5J5lNg2Dfy6dqSb+mVz3vdxhgs4ggjVeg4GpJtw/Qg9tcMs3J+cWq7Ra6ARa0ka30eL5Fa2Rs92ObZnFqHIwc53BH0JeShuDq2dO7jBBZwiGQgF07BOGAZON+MP9/HQ742yhk65Dp+yiUT/wpVNSGLYuK8bRXeVEPpcR+PCV2OkLamahc4IJOoN3gkKV6JWsR/+JRt6HjFBbtkZpKKB+4EuvZD2yFt5AUT69fbsZ0kCMuerMQucGE3QGb1hiNBiYaqybkCRQeQvXWDXpXu58DmcRgvqBL9+sLMOez0tZCRCjxYhhoXPd93KHCTrDbzokhmLAZCM6JIZCIfBFmlaXO2cLXYTDsJ76gS89HtAja1EhlX27GfQjhoXOXO7cYILOaBGaIAUSRxvQf5IRUQnkrs+0JsVxznIXUdDrqR/4cmKPA5uWFsFRRk/fbgb9MJc7vTBBZ/iEyarGwClGJI4xIERHvmuUUFPN/MWXA8dd66WiDKfbMB069g7F9uXFOLzFDq/4dw2GBBCjxwHXi7zcYYLO4ET7biFImmzEvX3DoBBxVgKtdei+uARpEXSgbuBLykuR6J1swOqFhbj6s1PsJTEkgKvGy3lQEh/Qsl9ohwk6o1E0WgW6j9BjQIoRrdrRMd2LXpe7L4Iu4EJaCBv4wvAFt4uwoDMLnRNM0Bm/wxipRtIkI3ol6xFmVIm9nFvgPndc2HXcji8uQUepW5RwRXPUD3zpOliHDUuKcCabDXxhNAzpTHeuMxzkDhN0xm+07RyMASlGdB4QBqWKzhsxrXXovrgEl8y4gvHpEeg5Wi94VUBLMEaq8cQiNvCF0TjE9xel5xFtMEGXOSqNAt2G6pCUYkTcXUFiL6dZaE2KU2u5HzhVDg+yFhUiZ4cdaRlWWOPpND/YwBdGY5C20JnLnRtM0GWKLlyF/hON6DPOAL2ZLrd6U3Ceh07cQvf931w6U43FD+VhyDQThj8aTjQmyRU28IXREKT7uTNB5wYTdJkR2z4Ig6ea0GVQmCQ3Ca0u95aW1XjcXuz5ohTH95QjbY4V7bvz0/Oeb9jAF8bN0FxFImeYoMsApUqBLoPqZo+3uTdY7OX4BefWrxJzCZYU1CJz9lV0HazDg89FwGChz2vCBr4w6iG/v4h+nGRhgh7AaLQKJKUYMTDVJCm3elNwH4Ii8EJug6/GFyf3OnD2+0okP2NGvwlGXp7JN/UDXxLH6LFmERv4Ikek4gGTG/TVzjB44d5+YZi7Nh7Jz1gCRswB+saU3gxflQE1VR5seK8IS2ZcQcFFehu93Nk1BPPWxWPUk2axl8IgDPkcFSboXGCCHoCMnmnGjL9Ew2QNPAcM5yx3MQZI8OwWzP2pBu8+moctHxSjporemPXwR8Px2oYEtOtCZ/yfwT80N26SM0zQA4xeyQYMeyRc7GUIBleXuxgWuhBWhNcDfLe2DAtT86hu9GJupUZ6ZgwefiMKOlPgeIQYDUM8pMUsdE4wQQ8gDBYVJjwXIfYyBOPS6Wp8v93O6b8VY6qZkFaEragWH8+5hhUvF8BeTO90tG7DdJi3Nh79JtIZ/2fwA/nhR0Q/TrIEnk9Wxgx/NBza4MC7yR7dWY69WWU+xZPFsNBJJO6cPVyJdyb/ipEzzBiUZhL881pCsE6JSS9EoOcDeqz5Cxv4EoiwGDqdMEEPELTBCvQcpRd7GbzhKHPj8BY7Dm6ytcgiJe0SBMhl4jqrvdj6YTF++KocqXMikdCRzlLE+I5B+PPncdiXVYadH7GBL4EE8davLIbOCSboAUL83cHQBks/glJw0Ynv1pXh+G6HX1ZAoLncG6LgFyeWzsxHn3EGjHnaQuXAFwAYlGZC1yE6bFpahNP76c0DYHCHeGtlZqFzggl6gBAZJ+0g0+n9FTiw0YYLx6t4eZ4oLncRdpPXCxzaYsfp7AqM+5MF94+g00tjsqrx+MJo/OdQJdb/jQ18kTosy51OmKAHCEoJJhY7q73I2W7Hd2vKUHKN3wNeDhb6zZSXuLHyrUIc3VmOKa9aYY6mc2vf0zcU9/RNwLbMYuxdXSb2chgthHzjJrKfJ1Xo3PUMn3FLyOApKahF9gYbvt9mR02lMPXVtU55CXo9549WYWFqLoY9Eo6hD5moWFNDjJ1lQc/RbOCLVGFJcXTCBD1AEMMi9ZWLp6qwf50NZw5UwCtwnxQxvg9a4ny1Li92flSCozvLMW2+FW070Zk0xwa+SBfmcqcTJugBghid0bjgdnlx4huHz2Vn/iJKYxnKDp2ifBfefyofPUfqMS7dgjAjfXEZNvBFmrCkODphgh4giCFgTeEodePQFjsObLTBUUq+EYoYZWu0ugV/2FmOMwcqMD49Aj1H66GgcJn1A196JeuRtZANfKEdVrZGJ0zQAwRaYuj5PzuRva4Mx752iOo1ID3eEaA7cafK4UHWokLk7LAjLcMKazydi23XJQRzVsXhm5Vl2PN5KXUXVUYdUhtPLBeYoAcIYsbQvR7gP4crsH+tDRdO8FN25i9iXCakcOhcOlONxQ/lYcg0E4Y/Gg5NEH1rVmkUGPFYOHo8oMeqdwpx8RQd7xTj/yDfy53s50kV9jUFCGIIWE2lB0e+LBek7IwP3LVeom5wqcxs9ri92PNFKY7vKUfaHCvad6dzSlr9wJcTexzYtLQIjjJ6e9jLDZblTidM0AMEki6w4gIXstfbkLO9XLCyMz5ggt40JQW1yJx9FV0H6/DgcxEwWOhLmgPqBr507B2K7cuLcXiLHV7mhRcd8sNZpLW3xIIJeoBAou762mUndvyzBD8elEb7zlonoCVYsSVVK+LkXgd+OlKJsbMs6DPOIPZyGiRYp0TKS5HoNcaArEVs4IvYEE+Kk+jeIg2dzZ8ZPuMhcGM+/V2FZMQcYLWyvlBd4cG6d2/gvcevIJ9isYzrUDfwZWAqnZPm5ALpvSU175dYMEEPEEhkuau10tpUxGtl6Uwc94m88zX46yN52LKsGK4aen3b49MtePiNKLGXIVvIX5aJfpxkYYIeIJCIoUvtlszcgi3nuzVleGdyLtXT0boN02H660zUxYD03mKNZbjBBD1AILHBpOZSJl0rK7ULT3PYimrxScY1LH+hALYi+qoYAKD7cB0SR9M5YS6QId33Qmpnj1gwQQ8QSLiXVRJLoWTdrPjh3JFKLJiSi31ZdE5HS37GgqBQdpSRRJTWysxKbxa2CwIEEhtMahuKdPMLqX0/vuCs9mLrh8X4y/Q8/Hq2Wuzl3ILOpMKoGWaxlyErRGncFMD7iy+YoAcILCnu9zCXO/8U/OLE0pn5WP/XG1RNR+s1Vg+NxN5PKcNaK9MJE/QAgUSDF5VKWgcm8cQdGQg6AHi9wKEtdixIzcWx3XRMRwsKUaJDr1CxlyEbWGtlOmGCzuCM1FxerLRGWBylbqx8qxCZ6VdRfFX86Wi0zn0PRNg0Qzphgh5AeNzCCpjkXO4sKY4IF05UYdHUPOz+tFTUCXtRCVrRPltusKQ4OmGCTjmhBu4/Ua3At2aW5d40cq6VrXV5sfOjEiyenoefT4ozHY3WXvSBiBiCzmLozcMEnVI69AzFE4uj8eS7rTj/G6Hbv/oSI467K0jAlXCD1cqS50aeCx/+6SpWv1OIChvZ6WhS8yBJGTHGNbP91TwSs7kCG41WgR6j9EhKMSK6TZ37MO98Ded/L3TmqS8batayurGX2/5RjOoKcbKhifeblrGFfjs/7CzHmQMVGJ8egZ6j9VAQ+GrkkpRIA6xsjU6YoFOAMUKNpMlG9B5rQKj+VqeJLyIh9CbzaS21XvQZb0DnAWHY+mExju4inw1NvrEM0Y+jniqHB1mLCpGzw460DCus8cJ+QUp2mhHDRWC64+2wC1vzsC0gInfcF4wBk03olBQGZSPBD6UPIiq0Rar0IURZvxZduArT5lvRK1mPrIU3UJRPLj2WdK0scwk2zKUz1ViYlovXNyUgPEq4I4d5SMji8aDRc0sImIXePEzQCaPSKNB9qA5Jk41o/Yfm48y+JIJ4BA5ZqoN88Rbc+n+36xKCOavi8O2qMnz9WSkRdzhLiqMLoXslsAsVWdwuL5Q+nAn+wiz05mGCTghduAr9JxrRd7wBunDupq4vt1KhRdJXl/vtqDQKDH80HPeP0CNrUSEuHBc2G5p04g4TlKah6f1k+I/b5YWGoKCzkFbzMEEXmNj2QRiUZkTXwboWHfi+3EqFtkh9WX9Th7e5lRqzPojByb0ObF5aBHuxMK6FWsJxPmZBNI3QFyx2oSIL8T4P7MLWLEzQBUCpUuC+gWFISjH63b3KJxEVumyN5wS9roN1uDsxFF+tKMGBTTZ4efbICl2XfztMUJpG6O5i7PsnCxN0+mCCziMhOiX6PmhEvwkGmKz8fLW+vMRUWegcLxfBYUpMeD4CvZINWL2wEFd8KNNrDtIud2ahN43gSZusqwZR2P6iDyboPGCN12DwVBO6D9fzHlPyJSlO6EYqvgi6r5eLmDu1ePGj1ji02YYd/1PCS+068bI1tpuahIQAqDUKUbqYyRHiHjBmoTcLO4JaiEIB3NM3DAMmG9G+e4hgn6P0YcKZ0AemLxZQS9yrCiXQb6IRnQfqsOWDIpz4xuH7Q26CjU+lCxJCq2KCTgzW54E+mKD7SFCoEr2S9UiaZIQlhswbptIoOG0eEgcZVwvIHzE1WFR4+M0o9B5rQNaiQpQUtMz1QP7AYYLeFCR+D7VGAf6CNoymYC53+mCCzhFLjAYDU43oOUqPoBCywTq1mpugkzgwuVpAfKylffcQZGTFY8/npfhmZZnPzyTe+pUdOE1CxEJnJxoxWFIcfbDXvxk69AxF0mQj7u4VSqQfdUOoNAA4lGyTGEbC1QLiy92t1igwcoYZPUbWdZq7eIp77Trp4SxAXYhE6DG2UoXEDG126JOD9XmgDyboDaAJUqDnyLohKVFtxJ+xzNXyI7HBuFpAfHsLImI1SM+MwfGvHdj8fhEcZc3XrpOuQwfqkhidZIeMSQYSOQ3s0CcH84DRBxP0mzBZ1UhKMaJX8u+HpIgJV6uDVAydC0JZx92H6+AodWPzB0Uc1iDWRChmoTcEkRg6s9CJQb6KhP22zcEEHdyGpIgJV6uDiIXOdS0Cbnau2a5iZDszC7FxSGW5M8hAumzNlxJeuSJbQVdpFOg+TIekFG5DUsSEq9VBJCmOq7dAwMsFZy+BCILO3IKNQ+bCKfhHMP4LqyKhD1kKerdhOiQ/bRF0lCOfcI1bk7gx0yCmNFwqGoMJeuMwl3tgQXw8sQ89OeSKNBSNR2b+rRU69g4Vexk+wXUmOpmkOPHj+VzXQCKr+naYFdE4JC6cLM5KDmah0weFEWPhePDZCMmJOQCotRQJOkeXppAlY5y/DzFc7rK7InOHphwPhv+Q3l/M+9U8shH0u3uFYsBko9jLaBFcXU2kOnFxQciSMc4hCDGy3Nmh0yg05Xgw/Ie4y51dlptFNl/RqJlmsZfgM85qL47tLse1S05O/z2ROl+OB2alXbhibK797cWw0JmgNw6J95NlQpODdEiL7a3mkYWgx96pRdxddGey30xxgQvZ62zI2VGOmkruU8dIbDCuFvrhrXZUlXsw4fkI6M0qftfA0eUuRtkaS8pqHFKtiRlkYI1l6EMWgm5uRf+13esFzh2pRPZ6G84dqYS3BXuFthjlyb0OnP2+EqNmmtF/kpG3Gn8aMu0bgwlK4xBpfMQuVMRgvdzpQxaCboyk98+sqfLg2C4H9q0pQ9EV/0xsMjFK3/77mioPNr9fhB++tCN1jhVxHfz3lHDPtPf7o3yGHTqNQ6K3PteKEIb/sKQ4+qBX6XiExu5v1y87cWCjHT98VQ5nNXe3elPQFEO/nfyfnVgy4wr6PmjEmD+aEaxr+Y9CU2/722Ex3MahKWmT4T/kh7MQ/ThJIgtBFyPbuSG8HuA/hyuQvcGG/z3KfWoYV2g/ML1e4OAmG07tdWDCcxHoNkzXoufQ1Ar3drjG9+UImdavgn8E478wlzt9yELQxYil3kxluQc52+04uNGGkmvC+R2l0rjDUebGF29cx6EtdqRlRCIi1rdT2Bcr2O3yEo1rs0OncUhcsFgMnRyks9yZ96V5ZCHoYmQ7A0DBRSeyN9hwbFc5XARGeZKYw82nOF48VYVF0/IwbLoJQx8O57xhfRHN2lqygs4OncZhw1kCC+Iud3ZZaxZZCDqJZJx6PB7gTHYFDmyw4eeT/LvVm4LM+FR+n+d2ebHrk1Ic2+1AWkYk2nUJafbf+LKx3S4AzT+SN9ih0zgkLDr2/ZODudzpQx6CTuDFq7C58f02Ow5ssMNWRPAGcRNS7sRVlO/CsllX0W2YDuPTI2CwNF677osVRvzQYRZioxCx0NmhTwyWFEcfshB0IQ+SK+drkL3BhhN7HKK59ush04lL2APzxB4Hzh6uxJinzOg73ghFA8nwvngJyDe/IPpxkoJM0qbgH8H4L6yxDH0wQW8h1Q4P/uflAlw6Xc37s1sKEZcmgU1VXeHBhveK8MPOcqS9akWrdtpb/ndtMPeSN9IJkfF3BxP9PClBpKySHfrEYC53+qCwQpt/hHANOWu8VIk5QNf4VD7IPVuDdx/Nw+b3i3xqgXszpN2CnQeE4bUNCZxyAeSGlENCjN/DernThzwEXYAXj8bJP0TKgghvKq8H2L/OhgWpufj3Psdv/3+um1uMMIi5lRrpmTF4+I0o6Ez89rGXMoH4fsoZ0t4vDevx0CzyEHQBDhIaDw4ywy8E/4gGsRe78em868icfRVlhbWc643FaC5TT7dhOsxbG4++DxqgoO91IQ5LigssxGjYRWPXT5qQxdcjxGxuriM8SSKHA/PC8SosmJKLmipuLnjSbsHbCdYpkfJSJF78uDVi7tQ2/w8CGDJla8J/BqMONvyIPmQh6G4BGq5oguh7sUjU29PgmfClSU+Vg58++f7S+q4gvPRpHMbPtkAbLP53KAYsKS6wECOcxX7fppGHoAv04tFmpQdaUhwf2IvF6QnQEEolMHCKCXPXxKNTUpjYyyEO7bMGGL4hioVO2ZlLG7IQdKFukrTVvLID8/dc/dkp9hJ+hzFSjScWReOpJa1gssrLRyz0pVNqF04pQ7IDZz1SO39IIwtBF+rFo+3wINEvXikx/blwnGz7XV/okBiKNzYnYOj0cLGXQgyhBZ0d+OQQx+VO/CMlhSwEXagXj8Z4jkfgkLHUDsxrl5349Sxd/QJuZ8xTZmRkxSO+Y5DYSxEcoScCSu3CKWVEEXTKjCjakIWgC+WKplHcmEvz9+zLsom9hGaxxmvw/IrWSJ0TiRBd4G5LocNCbHwqOcSIodN45tJE4J4cNyGYhU7h4SH4gSnBDXVqrwPXLtMXS78dhQLoNcaAeevi0eMBvdjLEQTBL5wSfD+lCstypw9ZCDogzKxw2pLiAGahN8aqtwrhpaOCrVnCjCpMm2/Fs8tjYY2n8CXzA6FFQIoXTikjxLnaFMwD0zSyEXQhYnc03haFPjBp/Ju5kHe+BhuW3BB7GT7RtlMwMrLikfy0Reyl8IbQHiSpXjilColE3JthORJNIxtBF8JypfHwELobF41eCa4c2mzHpqVFYi/DZ4Y8ZMJrGxPQITFU7KX4Ta3ApU4sC5ospEvXmAemaeQj6AJYBjS+XMzl3jTZ6234fP51uGrEnV3vK+ZoNZ5a0gqPvRMFg0W6A1+YhR5YCNFWuynY79s0shF0IVzRNL5crM63eU7udWBBai7OHKgQeyk+c98gHTKy4tF/olHspbQIwWPoFO7JQIZ4DD0Azh8hkY2gy2XiGouhc6OssBYfv3oNy18oQFkhPe1huRAcpsTEFyLw58/jJDfwRXALPUDeT6lAepoh+32bRjaCLkxSHP/P9BfmcveNc0cqsWBKLr5dWSbqqNWWEHOnFi9/GocJz0cgKEQaW5ldOAML8i53oh8nOaRxCvCAEJYBjeLGkuJ8x+X0Yvs/i/HuI1dw6TTdXeVuR6EEkiYZMXdtPLoN04m9nGYR+tLE5mWTIThMicFTTTBFkVVYGs9cmpDNfUcuLnfBD8wAnnZ0/bITHzyTj8QxBox9xoJQg3TUwWBR4eE3otA72YCsRYUoKaAzjEBqgJAYTU/kQGScBgOnmNBjpA7aYPL7Q60N3POHD2Qj6IIkxVEo6CQOskA+ML1eIGe7HWeyKzA+3YIeI6XVsa199xDMWRWPrz8vxbcry4gnLTWH0L3cgbp9GajvpxgoFMDdvUORlGLEXT1CoRDx2GNJj00jG0GXTR06iZnoMjgwK2xurHqnEIe32jFtvhURsdKJNWiCFBg904weD+iRtbAQl87QE0Yg8X6qNQrUCP4pgY82WIleyXr0n2hEZBwd7z+NRhRNyEbQhRAgKl3uBIRWTokpl85UY9G0PAx9yIShD4dDIyGXnzVeg2eXx+KHneXYuqwYFTa32EsichGU0/spBJYYDQZMNqLnKD2Cw+gKO9FoRNGEbF59IZLFaMxyJ+HSpPEiIyRulxe7Py3F0V3lSJtjRfvuIWIvySd6jtTj3r5h2JZZjCNf2uEV0blCykJn+M5dPUIwYLIJd/cW163eFIGYlMsnshH0Wif/kzlUFCaIuQnETKV2Sx72SDj+vc+Bwlz/bjslBbXInH0V3YbpMD49QlId20INSqTOiUSfcQasfPu6399FSyHiQWKCzhlNkAI9R+qRlGJEVBv6exqw37Zp6PKnCIhbAG8jjRmX7MD8PXqzCi9/HocRj4XzsvYTexxYmJaLQ5vtkpngVk98xyC88q84JD9jESV8QCQpjsKLNm2YrGqMnWXBW9vaIOXlSEmIOSA9Y4I0srHQ5VOHTsClSeHf3RRulxcarQIjZ5jRY6QeWQtv4OKpKr+eWV3hwfq/3cD32+146DUroiVyIAJ17+2QaSZ0H6bDmsU3cO5IJbHPJpW0yWiYO7uGICnFiHv7h0myZp+FU5pGPoIukzr0WnZg/o6bf/uIWA3SM2NwdFc5tnzgf6LYlfM1eHd6HpImmzByRrhkOrYBdVbaU0ta4fT+CmxcUgRbkfC160SS4lic9RbUGgXuH1HnVpdaq+DbodGIognZCLowdei8P9JvhO4UB9D5dzdFQ27eHg/ocU/fMGz/RzFytvuXKObxAN+tKcPJbxyY8HwE7hsY1vKHiUDnAWG4u1codn5Ugr2rywT9LOZBIofBokL/SUb0fdCIUL10LppNoZRO2oooyEbQhRA6Gg8OIlnEFP7dTdGYiITqlZjySiR6JxuwekEhrl12+vU5tqJafDr3GjokhiItIxLGCOlsL02QAmNnWXD/CD1WLyzElfPCVHIzl7vwtO0UjKTJRtw3ICzgOjs6qwO7/4W/BMa1jQNCuKJpPDhcBIYl9JtgpK4+tSmaE5H4jkH48xetMXaWBdpg/3/T3wa+rBLW2hWCmDu1eOmT1kh5OVKQ35jE+ynXpLjEMXq89ElrPLs8Fl0H6wJOzAHAdoPOlsa0IJ1T2U8ESYqjUNBJtPrsNkyHeWvj0X04/cNAAG7hFqVKgcFTTZi7Nh4dEkP9/kxntRfb/1GMv0zPw69n6enUxpW+4w2Yu4b/gS8eAucxjftSKPRmFUbOMOPt7W2QNseK1ncFib0kQaGp6yGNyEfQhUiKo9D1TCKGDgC6cBWmvx6F9MwYmFvR7Vr25TJnjKhLFHtiUTQvLvOCX5xYOjMf6/56A1UOadW46c11A1/4/I2Pf12OvauF7TEvh+Yjse2D8NBrVryxKQEjHguH3hz4wWV7sRuXf2SC3hSyEXTZDGchPNO7XZcQzFkdz1uNtxC05DvplBSGjDVxGJhq8ru8x+sFDm+xY0FqLo7tLvfvYSLQrksIXtuQgAceD/f7WS6nF9syi/Huw1eQe1aYOD2t7yEfdB+uw7PLY/HyZ61x/wh9QP+tt7N/bZmoXQ6lgGwEXZCkOAotAVcNeSuwvsY7Y3Uc7uxKX1vUlv72QSFKjE+34M//iuPFlekodWPlW4XITL+KG3nidGrzhweeMGPumni07+b/b3ztshNLnryCDUuKUFPJ7zsbaKVNYUYVhj8ajje3JmD661Fo2ylY7CURx1ZUi+z1NrGXQT2yEXRBkuIoPDgcpeK5dS0xGvzpwxhMnWtFmJEeF6C/+RPRbbR48WP+EsUunKjC4ul52PVJqeSm1kXGaTBrWQymvx4Fncn/3/jgRhveTsnFiW8cPKyuDhr7Q7SE6DZapGVY8caWBIx60iypqgk+cdd68fGca0QSKqWObARdLklx1/0sveKDnqP0yMiKQ+JoOmaJ83GZUyj+L1GMj2RAt8uLXR+XYPG0PL+71olB9+E6zF0bjz7jDX4P8nCUufHF69eROfsqSgr8z5qj8aLNFYWyri9AemYMXl1Vt4ekNOGPb7we4LP51wULzwQashF0QWLoFB4cRfku2IvFH5MZZlQhLcOK9MwYWOPFjU3U8niz15vrkgGfWBTNy/OK8l1YNusq/vXmdVTapZU0F6JTYvLLkXh2eSwvrW8vHK/CW5N+xTf/8q/cT2qNj4C673LodBNe25CAxxdGo10X+kJXpKmu8OCTuddwJrtC7KVIBtkIulxavwKgKvGqXZcQvPJFHEY9aRbt+xJiAl3bzvzGMY9/7cA7k3/F4a12Xp9Lgjb3BuPVVXEYn85PHf+O5cVYmJbbYquMxuqTxrDGazD55Ugs2t0WY56yIDxKnm712zmyoxyLH8pjYu4jsnl75OJyB+rakPabYOTlcOUDlUaB4Y+G4/4Reqx6p5C4i1kqXQIryz1Y9+4N5OywY+pcaQ18AYCBqSZ0GazDxr8X+X0QF+a68PeZV5A42oCxsywINXC3PWjdl/UoFEDHPmEYkGLEH3owS7yeKocHOdvt2L/OhrJC1kCmJchG0IUY26im9NuzF7vx5YpiPDg7Quyl3IK5lRrpmTE4/rUDm98vgqOMTGhAape53LN1A18GpprwwBNmai5mXDBZ1XhiUTTOHalE1sIbfg188XqBnB12nDlQgbHPWJA4hltOBo2hMAAIClWiV7Ie/ScaERErwbiAQFy/7ET2Bht++KocrhqW+OYPlEoS/wjhcqfZEti/1oa7eoSiY2//u57xTffhOtzbLxTbl5fg4EbhS1Gk2PbX4wH2ri7DiW8cSH01kpfudSTpkBiKuWvjsOvjUny3pgweP9IDKmxuZC0qxLHd5UidEwlLTNNiSJugW2I0GJhqRM9ReklN4xMSrxf46ftK7F9XhvNHpZcUSiuyebuEsNJojaHX89m868j/Wfys94YIClVi0gsReP7/xSK6rbCuZSF+e1KzpMsKa7H8hQJ8knFNcm5IbbASY2fV1fHHd/S/jv/CiSq8nZKLXZ+UNvnfqSgxUzokhuKP77XCvHXx6D/RyMQcdYlu2etteGdyLla8XMDEnGcoefWFRy516DfjrPYgMz0fzy5vjagEOl18CR2D8efPW2PfGht2fVQiSK2pULXeGq2CWG3s6f0VOHekEqNnWtA/xUjsQsEH0W20eH5Fa+Rst2NbZrHfLXB3fVyCY7vKMW2+tcEmK2oRy7w0QQokjjYgKcUoenUHTdzIc+HABhtydpTDWS2tag4pIRtBl1oclS8q7R689/gVDEw1Ysg0E4JC6VMCpUqBIdNM6DZUh3Xv3sBPOZW8Pl+okZ0qDTlBB+oGvmz+oAhHvrJjaoa0BnEoFEDvsQZ0SgrD1mXFOLrLv0qMonwX3n8qHz0e0GP8bMstjYzEmDJmjlYjKcWIXmMMCNbRt8fEwOsFzv9Qiez1NvyUU8nathKACbof0Nj6tSGc1R58/VkpcrbbMenFSHQeECb2khokPEqNP77XCv/e58DGvxfxVk8v1MAasTw0V3924r0nrqDvBCPGzDRLSkB0JhWmzbeiz3gDVr1diKJ8/36co7vK8ePBCoxPj0DP0XooFCDaiKV99xAkpRhxb98wKKTzMwiKs9qDH74qx/51Nkm2OJYy9PTnvI1ecbNDALzC1/NCDSr0n2jk63G/8fVnTcfzaKKmyouT3zqQ+1MN7rgvBCGUCkF0Wy16jzXAWeXFrzx0iKqp9ODGFRfu6BzCaxwze52N9z7kvpD7Uw1ydpQjPFqNVndIq8QtPEqNvuMNUGsUuHSm2q+kuVqnFz8erMCF41VQqRU4vNUuaL6BRlvnVp82z4rBU02IStD63S0vECgucOHrz8rwrzcLcXp/heQaJfnAX47kfUDl2DdqX8Nn+/wcDqCEr+dFxGowb108X4/7jef6XuT9mSTQaBUY+aQZA6cYRXFRcuXK+RqsXliIqzwk9wWHKZH8jAV9xhp4sabemvQrL61K+aB99xCkzbFSP8q2IUoKapG1qBAXjtOdIGWMqHOr9x5r8KkuPtC5cLwK2ett+PFghVzc6ub3D99JpSVH7UnOt6CbrGq8sTmBr8f9xosDfxHEnU+K6DZaTJ1r5SULWSg8HuDAehu+XFEMZ7X/33Xru4IwNcOKmDv9s2oXpOZS5VJUaxQY8Vg4Bk81SSK/43ZOflvXn4CG1sU3c0fnYAyYbESnATpJJSMKiavGi2O7y7EvqwyFufTsAUIwQfcVvgVdb1bh7e1t+Hrcb7wy9BJqqqTtWlIogN7jDEh+2kKtGx6oK+HiowsZUDcEIynFiFEzzC1OFPzL9DwU/EJfWaA1XoO0jIYzwGmn2uHBjhUlOLTJJqq1p9Io0H2oDkmTjWj9B3ovu6QpvV6LgxttOLzV7ne1goRhgu4rfAt6qF6Jhbva8vW438gYeSlgYkU6kwoTnotAt2H+TxMTEj66kNVjsKgw8YVI3DfQ90TBvz1+BVfO0zsFqucoPcb9yULVKFuu8Blq8QVdeF2uTd/xBujCpfe9CcXFU3Vu9TPZFX7lOwQITNB9hW9B1wYr8e63/Av6a2MvU+ci9Jd2XUIwbR7d8VhntQc7PyrF/rX+dSGrp0NiKFJfjYTJyv1vXjozH5f/Q2VuzG+E6JS3ZIBLCY8HOLDBhq9WlAjuBUvoGIykFCO6DA6jvr8EKVxOL07sceC7tWUouEifJ0pEmKD7Ct+CrlIr8N7+O/h63G+8OeFXlF6nIzGKT9T/HagyZBrd8dhrl51Y+VYhL5ayRqvAiMfDMSjNxOlQXzbrqmRmmbftFIy0DKskm53YbtRi0/vF+Pc+B6/PVakV6DI4DEkpRiR0lF54QihsN2pxcLMdhzbbAsb7yDNM0H2Fb0EHgKWH2vH5OADAO1NyUXQlcJNCImI1jXbkogWvBzi0xYbt/+DHkuMag/7nc1cl1bpSqVJg8FQTRjwWDk0QtVu/US4cr8Kqdwr9LkkLM6rQb4IBfR80wmBhbvV6Lv9Yjez1NpzaVwGPACOHAwgm6L4ihKC/990dvFubi6fl4drlwHdHSSEeay92Y/PSIpzcy48l13OkHuPSG/+bV7xcgLOH+e1qRwKTVY1p86xo3116oztdNV7s/rQUe1eX+Sw6rdppMSitriMh7XMYSOF2eXFyrwP7smzIv0BvPghlUCvo1J7OfDeWAYAh00y8b+SCS07knQv8jZB/wYnvt9qhN6upzfoNClWiy2Ad2nUJwYXjVaiu8M9az/+57m8ONagQ1+H3f/OpfRUo/FV63pnqCg+O7izHtcsutO0cjGAK2wE3hkqtwB/uD0HXITpc+d+aZq11pRLoPFCHKa9EIvkpC2LbB1Hdd4EU9mI39mWV4Ys3CnFstwPlJYGVByQwrLGMrwhhoS/c2VaQhhB8Zl1LASnEY+ssuRLsXW3jxX0Y3zEIU+daEd3m/2rXP3/tOk5+y29clzRBIUqMfsqM/hOMkmtd6vUCP3xVjm2Zxaiw3SpIITol+ow3oP9Eo0+JjoFO3rka7F9nw8lvHYLNOJAB1FroshL0t7a1ESxm5qz28DL7WSooVQoMnW7CsEfCifbO9pXCXBdWvn0duTy0kFUqgYGpJjzwRDi0wUqservQ7yEjtBBzpxYPzY/yu9mOGFTY3NiWWYwjX5bDGq/BoDQT7h+hl2SegBB43F6c2leB7PU2XP6RSsNSajBB9xUhBP31TQkIjxL2tn7tshOrFxTyIiBSwNyqLh7brgu98VivFziyw46tH/o/uhOoawGa8nIEfjxYiZztdh5WSA9Jk4wY87QZ2mCJmeuoayFLc6klaSrLPTi02YaDG+2y8R4Sggm6rwgh6M+tiEWbe8hka3+/jZ/Zz1Kh2zAdHpwdAb2Z2rQMOErd2LKsGMd282NVB4UoJd8lsCEMFhUmPh+B+wbR3WCI0TD5F2qQvd6G4187UCvhttQUwwTdV4QQ9LQ5ViSO0fP5yCbhW0Bo57fhJ+MMVDcxuXiqClkLb/g9ujPQaUmzHYY4eDzAmewK7F9Xhl/+zdzqAkOtoFNrTgmR5W6MUOGevuRmgWtDlOg8IAztuobg0ulqVJYHnjV3M7UuL84ersS5nCq0uTcYekpbZ5qjNUhKMcLrBS6eCrzDT29WwVnlv2VWlO/Coc12KFUKJNwTBKWS4luaTKm0e5C9wYYvXruOnB32gGxyRSEsy91XhLDQg0KVeGtrQouHcfiD2+XFNyvLsOfzUlm4wW5PIKOVonwXVr1diEtnqNyfPtGqnRaD00zoOlQHe5Gb15Gk1ngNHpofRfVUPjlR8IsT2ettOLarHC5n4J8nlEGthS4rQQeA8bMtGDjFxPdjOSOV2c98YbKqkfpqJDokhoq9lCb5YWc5ti77ffkT7ShVCtw3IAxJk40NdrY7tdeBTUv5GUmqUACJow0YO8vC5oGLgNcD/HioLltdLucHpTBB9xWhBD1Ep8SrK+NgjBQ3LnjiGwc2/b0IjjJpCUhL6TwgDBOfjxD9e2+KCpsb2/5RjCM76M95CDUo0Xe8Ef0mGJr9TmsqPfhyRQkObLTBy0PUJ8yowrh0C3qOJJePImeqHR7k7LAje70NJdeYS50CmKD7ilCCDgDxdwfh2eWxok9VqnZ4sON/SnBos7izn0kRFKLEqJlm9J9khJJiA+/SmWpkLSxEYS59SXPRbbQYNNWEbsN0Ptf/X/3ZidUL+RlkA9Q1GJo234qIWHobDEmZ67+6cGCDDUe+tMNVI4MDQjowQfcVIQUdAO7pG4qpc61U9CbP/akGaxaTn/0sFlJoYuJ2ebF3dRl2fyp+zoNSCXRKqpsK5m+9v9cDHNpsw/Z/8jPIRqVRYMg0+hsMSQWvF/gppxLZ6204d0R6cwJkAhN0XxFa0IE6t+WkFyPRbSgd9bYHN9qwfXkJaioDOxseABRKoP8EI0b/0SxKkiJXxMx5CNEp0WecAf0mGnlviGQvdmPz+0W8ta41t1IjbY40B77QQE2lB0e+Ksf+tTYUX6XPM8S4BWoF/f8DAAD//+3deZQV5Z3G8W83W0MDDXRDgrtSPXI0itGJxELFLeOO+4I6WR0T45iKuyLqTFzQ6GjKZKImGWfMqIhEMQbjRIMsSjloQFtlgkOJKES02fr2Ag29zR9FZxAF+nbfe39VdZ/POf0n8NzTnH663np/71vUhd5p1EH9uXDyiFicMpVZ3crTP1lDzZwm6ygFMbiyF2ddOZwxRxVunLA7Fr0YbS4rxJ6HQh5funThRqZOqWXdqty8mz34uIGc/oMqXUvaRWtWtjDvNxkWPNdQFL/Ip4QKPVuFLHSA3n1K+No3hnLcRUNyfsVqdyxZsIEn7lzd47ufkyIJh5hsbGxn5gNrCX5bn/M9DyWl8KVx0W716oML+5TbsrmDP/56PX98tI62HLxeKCsv5dRLtxwwFN/FFzMdHfDu69Gy+p9f3VAU+2dSRoWerUIXeqeqXftw4U0jPncEqNByfWNY3PXpW8IJFw/j6PMrYn3F5Yf/s4nHb6/l4+U93/NQVl7KYRMGc/hZg6kcabu5bM1fWph6x2reezM3rxd227cfF0waEeu9EoW0ubmd159vZM60Olav0LJ6gqnQs2VV6J0OPXEQp11eGYtNc7UftjD1jnQcftIVX9yrLxfcOCLWh5i0t3UwZ1qG53+5rlsHewzfvQ9HnTeEr5w4MHYH7/zpDw3M8HMzk19SCuPPHcKJFw+lX/94fc5CWbuqhVeequfVZ+tpbtKyegqo0LNlXegQbUo67fJKxp5sfzZ5Rwe89lwDz/x0TVFc+FJSAodNGMwpl1YyYFB8i6CutpUn7lzdpR3JJSWwnzuAI88Zwr5fiffmsQ0N0euFV5/NzeuFiqrenH1VFQccGe+9Erm0dNFG5k3P8M4rTTmZ/5fYUKFnKw6F3mnvA8qYOGkEI/awn7fd+u7nYjBwSC/O8Ko45O/iMYmwPTVzmnjq3tWfeyJbvwGlfPWUQRxxdkXiZrZz+XoBor0SEycNp6IqvnsleqJlUwcLX2jgpcfrYnmOgeSECj1bcSp0iI7YPOaCIRz/raF533ncFXE+/CQf4jSJsD3bnshWuUsfjjq/gkNPGpTo5eb2tg7mPpnh+V+tY3Nzzx/X+5aVcMJ3hnHUefHeK5GNutpWXn4qQ/BMfVGsoBU5FXq24lbonYaM6M2Fk+Mxb9vW2sHsqXX84eH1RXNBwwnfGcYJ3x5qHWOHVizZRMP6NvY7LN7n12errraVGfevpWZ2bmbXk7BXYmeWvdXM3CczvD23kXb1eLFQoWcrroXe6aBjBnLmD+Mxb1tX28pjtxXPhS9xmkQoRrkcqSwpgcNOG8wp34v3XomttbZ0sOjFRmY/Uceq94rjdEf5lNgWun0bbUc+7kPPpY/f30zwTD1l5aXsMbrMdNNcWXkph544iJH79GVZTTObcnAXdpxtaGhnwcwG1q1qZdRB/WPxCqSY9BtQSnNTO8vfyc3UxYolm1gws4GK4b3ZZVR8R9wya1p56bE6fn1LLYtebKRxfXFcrCSfofvQsxX3J/St7T46mrcdGYMfRpubo/e4c6dlrKNs16EnDeJ/Xt2Qkx+I/QeWcvrlVRx68iDzSYS0W/5OtLxcM6cpb+cijDqoPxMnDY/V5sHli5uZNz3Dmy/l73NLosT2CT22PwKTVOgQzdseeXYFJ/1DPM4mz/XNWj1VUdWbI86u4LAJgyiv6MXGxnZ+98BaXs3RqWtxmkRIk7aWDt54qZHZUzP8ZWlh/i/16lPC174+lOP+fgi9jU5tbGvp4M3ZTbz0eF3BPrckhgo9W0kr9E6DK3tx9lXDOXC8/bxtrm/W6o59DizjyHMqOHB8+efuaF6+uJmpd6zmkxyMRZX2im7++rtvxmMSIcka1rUx/5l6Xnk6Y7a0XLVrHyZOGt7jG+ayEYfPLbGnQs9WUgu9U5zOJs/1zVo706tPCYccN5Ajz6lgt313voO5rXXLVaUP5+aqUt381X0rlmxi3vQMi2Y15uRc91z42+MHcfrllQwcmr8tPyve3cS8J+P1uSW2VOjZSnqhQ/zOJs/1zVrbGji0F0ecVcG40wd364fv2o9aeGLKapYuys1ufd381TXtbR3UzG1i3pOZ2B4vXFZeyoTLKjlsQu5ObWxv66BmThPzpsf3c0ssqdCzlYZC7xSneduWzR28+Mh6Zj2Wm5u1APbcr4zx51Yw5uhyevXu+X+p1/+rgWfuz81Z4rr5a/uaMm28+mw986ZnPveEuzja60tlnOFVsud+3R9Z3NDQzvwZGV7+TXI+t8SKCj1baSp0iN/Z5D29WatX7xIOOqac8ecMycsvKrk+4na3fftx0c0j+OJe9pMI1j4KNzNveoY//aEhJ684LFQf3B/3jMF8+ZiuHwn8yfLNzJmW4dVn6/OYTIqACj1baSv0TuUVvTjDq+Rvjx9kHQXI/mm4vKIXh585mHFnVBRkKXtZTTNTp9Tm5LrJ0lIYf15081fcbjjLt/Z2eOflaHk5fCM9BxD161/Kvof2Z58Dy9h9dD+GjezD0C/8/76Vj8LNhG9u5M1ZjSx7S8vqkhMq9GyltdA7xWnedkNDO7/7+Vr++3fbHyEbOaovx0wcwsHHDaRXgUeJWlui1wR/fDQ3rwkqqnozcdJwRo9N19Gsn2djY/tfl9VzcbKbiKjQs5b2Qod4zNtubdubtUp7lTBmfDlHnlPB3gfaH7O6ekULU6fUsqwmN09aBxxZzllXVMViEiHXPlkeLau/9nwDLZuSuawuElMq9Gx5blgB1FnnKIThu/fh3GuGx2bMatZjdTQ3tXP4GYOpGB6/svvvmfU8+7O1bGjo+Wx937ISTr6kkiPOqaA04avwHR3w51c3MG96hiWv7fx+dhHplgo/cGK5ESPOhV4OFGZwOiYKMW+bFo3r25hx/xoWvpCb/yK7OH25YNKILs3Nx82mDe0seK6BuU9mWPtRcVynK2Ko3A+cWP7GHOdC7wsU3ZmL/QdG87ZfPTV387ZptnTRRp6YsjonRVZSAoefWcHJ3x1GWXn8H9fXrGxh3m8yLHiugU0bdHenSIH09QMnlr85x7YyPDcsBYp2SHSP/fpxwY0as+qKlk0d/OHf1zF7aoa21p6/Lx5c2Yszf1jFQVmMRBXSu69vZO6Tdfz51Q05OQdfRLrOD5zY9mZsgwF4blgPxGO+y0BpKRw9cQjHf3sYfcti/a0yFb6xkXnTM7zzchPtOXxQrT6kPxdOHhGLTXObm9t5/b8amfNEXU5G+ESkW9b5gVNpHWJ7Yt0Snhu+DBxuncPakBG9Of/64hiz6qqWzR0sfKGBOVMzf92Vnw99+pZw/LeHcfTEipycgpetdataeeXpDMFv62lu0rK6iLGX/MA51jrE9tg/euzYQlTo1NW28uCVqzhwfDRmFced54VSV/v/BbehPv8F17K5g5kPruW139dz0U1fKNjxvZ2rDm+/3ESHelwkLv5kHWBH4t4Mi6wDxMlbc5t497WNnHTJMI44O/ljVtlYVtPM3OkZ3p7bmNNl9a6q/bCF+y5ZyVdPHcyp38/P8b0tmztY9EIjs6fW5XXVQUS6baF1gB2J+5L7/sA71jniKMljVl3VsrmDRS82MmdaHavei0/B5fr43szqVl55up75z2QKsuogIt02yg+cZdYhtifWhQ7gueEq4IvWOeIoaWNWXVVX28r8GfEvOOfL/Tn32uGM2KN7x/e+/3Yzc6ZlqJldVMctiCTVCj9w9rAOsSNxX3IHmAZ41iHiqKMDXn4qQ82cxliPWXXV+281M296hpq5TbS3xX8eK3xjI3dM/BD39MEc/82hXd7bsPCFRmY/UcfKd4vumAWRJPtP6wA7k4Qn9MOAwDpHEsRpzKqrWls6WPTH6L1xnJbVu+OAI8qpPqQ/lbv0pt+AT6+YrHx3E/+7cCMr392kO7hFkmmMHzhvWYfYkdgXOmjZPRvRmNVQjp44xGTMqqsya7Ysq8+o7/LVrSIiRkI/cKqtQ+xMUh7lfgHcbB0iCaIxq3W89vuGgo5ZddXyd6Jl9TdnJ2NZXUQEeMg6QFfE9xFuK54bDgFWAMl+SVxgJSUw9uTBTLiskgGD7TbNtW1ZVp8zLcNfluq9sYgkyhpgDz9wNloH2ZlEFDqA54Z3ADdY50ii8openHZ5JYeeWNhTdOvXtjF/RoZXntayuogk1vV+4NxlHaIrklToVcCHQDwuDU+gvQ8o48KbRlC1a/fGrLpq+eItu9VnN+XkshQRESN1wO5+4CRitjQxhQ7gueHNwD9b50iyXn1KOO6iIRz39aH06Zu7b39bSwdvvNTI7KlaVheR1PiBHzg/tQ7RVYkqdADPDRcD+1nnSLphI3tz4eQRjDqoZwse9WvbCJ7J8MqMehrXa1ldRFLjdT9wDrUOkY2k7HLf2oXAG9Yhkm7dqlZ+etlHHPy1gZx2WWXWF758+OdNzH2yjoUvJGIlSkQkG83AROsQ2UrcEzpog1w+jDt9MMdcNITKkTt+v/768w3Mn1HP8sXNBUomIlJwV/qBc591iGwlstABPDcMgMOsc6RN9cH92bW6H1W79qZy1z40rGvjkw828/H7m/ko3Mz6T1qtI4qI5NNMP3BOtQ7RHUlccu90MtH1qnsZ50iVpYs2snRR7MctRUTy4S3gXOsQ3ZXYJ3QAzw2riS6cH2ydRUREEu1j4Mt+4HxsHaS7En3nph84S4EJgB4pRUSku9YDJyS5zCHhT+idPDc8CHgBGG6dRUREEuUD4Fg/cN6zDtJTiX5C7+QHzpvAV4DEf0NERKRg/gR8JQ1lDikpdAA/cD4ADgVetM4iIiKx9xhwhB84q62D5Eoqlty35bnhN4B7gWHWWUREJFZWAxf7gfOsdZBcS80T+tb8wHkE2BeYbp1FRERi4zFgdBrLHFL6hL41zw2PBR4Aqq2ziIiIiSXAP/qBM8s6SD6lvtA7eW74Q+AWYIh1FhERKYg64J/8wPGtgxRC0RQ6/PVO9duBS6yziIhIXv0CuMEPnHXWQQqlqAq9k+eGY4CHgLHWWUREJKfmA9/1A2exdZBCK8pC7+S54fnAj4HdrbOIiEiPrACu8QNnmnUQK0Vd6ACeGw4ArgeuAcqM44iISHY2AncDU/zAKep7nYu+0Dt5brgb8BPgLOssIiLSJb8BrvADZ6V1kDhQoW/Dc8NxRO/X97fOIiIin2sx0Xvy+dZB4kSFvh2eG34fuBWdNiciEhdrgZv9wPm5dZA4UqHvgOeGFURjbpdZZxERKXI/Ayb7gZOxDhJXKvQu8NxwNPAgMN46i4hIkZkLfM8PnCXWQeJOhZ4Fzw3PAu4B9jKOIiKSdu8DV/uB87R1kKRQoXeD54Y3EY26DbDOIiKSMk3AnX7g3GYdJGlU6N3kueFI4F+AidZZRERS4nGip/JV1kGSSIXeQ54bjiUacxtjnUVEJKFqiMbQFlgHSTIVeo54bvgPRDvih1tnERFJiFrgRj9wfmUdJA1KrQOkhR84vwRGEZ02JyIiO3Yf4KjMc0dP6HnguWE18ABwrHUWEZGYmQVc6gfOUusgaaNCzyPPDU8F7gUc6ywiIsZConPXZ1oHSSsVegF4bngdMBkYaJ1FRKTAGoDb/MD5sXWQtFOhF4jnhiOIrvj7unUWEZECeQS41g+cWusgxUCFXmCeGx5CNOZ2iHUWEZE8WUg0hrbQOkgxUaEb8dzwm8AU4IvGUUREcmUVcIMfOI9YBylGGlsz4gfOfxBtltN7JRFJg7uAapW5HT2hx4DnhvsAPnCKdRYRkSz9DvihHzjLrIMUOxV6jHhueCzR/Hq1dRYRkZ1YSjRPPss6iERU6DHkueGVwM1AhXUWEZFtZIB/9gPnPusg8mkq9Jjy3LAKuBP4jnUWEZEtfglM8gNnjXUQ+SwVesx5bjiGaMxtrHUWESlaC4jG0Gqsg8j2qdATwnPDC4h2xO9qnUVEisZKooNhploHkZ1ToSeI54YDgEnAVUCZcRwRSa9m4B5gih84G6zDSNeo0BPIc8M9ia4ePMM6i4ikzlPAVX7gfGAdRLKjQk8wzw3HAw8Co62ziEjiLQG+5wfOXOsg0j0q9BTw3PAfgR8BQ62ziEjirANu9gPnX62DSM+o0FPCc8NhwG3ApdZZRCQxfg7c5AfOOusg0nMq9JTx3HB/ojG3cdZZRCS25hONoS22DiK5o0JPKc8NzyG6f31P6ywiEhsfEG14e8o6iOSeCj3FPDcsA67b8tXfOI6I2NlAdPLk3X7gNFuHkfxQoRcBzw13I5opPc86i4gU3BPAlX7grLIOIvmlQi8inhuOI3q/vr91FhHJuxqi9+QLrINIYajQi5Dnht8l2hFfZZ1FRHJuNTDZD5xfWAeRwiq1DiCF5wfOQ4AD3G+dRURy6ifAKJV5cdITepHz3HA00Wlz462ziEi3zQIu9QNnqXUQsaNCFwA8Nzwd+BdgH+ssItJl7xFteHvWOojYU6HLp3hueANwI1BunUVEtqsRuN0PnDutg0h8qNDlMzw3HEl09/pF1llE5DN+DVzjB06tdRCJFxW6bJfnhmOJxtzGWGcRERYSjaEttA4i8aRCl53y3PDbwB3AF6yziBShj4Eb/MD5D+sgEm8aW5Od8gPnYaCaaNOciBTO3YCjMpeu0BO6ZMVzw2rgAeBY6ywiKfYc8AM/cJZZB5HkUKFLt3hueBJwH/A31llEUmQp0Tz5LOsgkjwqdOkRzw2vBm4CBltnEUmwDPAjP3DutQ4iyaVClx7z3HAE0dWM37LOIpJA/wZc7wfOGusgkmwqdMkZzw3HEI25jbXOIpIAC4jG0Gqsg0g6qNAl5zw3vAi4C9jFOotIDP0FuM4PnMesg0i6aGxNcs4PnEeJxtymWGcRiZnbgb9RmUs+6Ald8spzwz0BHzjNOouIoRnAFX7gfGAdRNJLhS4F4bnheKJrWkdbZxEpoCXA9/zAmWsdRNJPhS4F5bmhB/wTMMQ4ikg+rQdu8QPnp9ZBpHio0KXgPDccRnQ2/Hets4jkwQPAZD9w1lkHkeKiQhcznhvuTzTmNs46i0gOzCcaQ1tsHUSKkwpdzHlueB7RJRS7W2cR6YYPgav9wJluHUSKmwpdYsFzwzLgBuAaoL9xHJGu2Eh03sJdfuA0W4cRUaFLrHhuuBvRpS9nW2cR2YEngav8wFlpHUSkkwpdYslzw3FE79f3t84ispXFRO/J51sHEdmWCl1izXPDS4FbgUrrLFLU1hDtXH/IOojI9ujoV4k1P3AeAEYBP7POIkXrfsBRmUvc6QldEsNzw9FEp82Nt84iRWEu0SlvS6yDiHSFCl0Sx3PDM4F7gL2ts0gqLSPa8PaMdRCRbKjQJbE8N7yRaNSt3DqLpEITcLsfOLolUBJJhS6J5rnhSKKn9Quss0iiPQpc6wfOKusgIt2lQpdU8NxwLNGY2xjrLJIoNURjaAusg4j0lApdUsVzw4uB24ER1lkk1j4BJvmB87B1EJFc0diapIofOL8CHKLT5kQ+zz1Atcpc0kZP6JJanhtWE11leax1FomFWcClfuAstQ4ikg8qdEk9zw1PIXpid6yziIn/Ba7wA+f31kFE8kmFLkXDc8NrgcnAIOssUhD1wK1+4NxjHUSkEFToUlQ8NxwB/Bj4hnUWyat/JxpDW2MdRKRQVOhSlDw3PIRozO0Q6yySUwuIxtBqrIOIFJoKXYqa54bfAKYAI62zSI98BFznB86j1kFErGhsTYqaHziPANXAXdZZpNumEI2hqcylqOkJXWQLzw33AX4CnGqdRbrkt4DnB84H1kFE4kCFLrINzw2PJZpfr7bOIp9rCdG1pnOtg4jEiQpdZDs8N7wCuAWosM4iANQBt/iBc791EJE4UqGL7IDnhlVE72gvts5S5B4iOnt9nXUQkbhSoYt0geeGY4hKZax1liIzn2gMbbF1EJG4U6GLZMFzw4lEB9PsZp0l5VYA1/iBM806iEhSqNBFsuS54QDgBuBqoMw4TtpsJPqF6U4/cJqtw4gkiQpdpJs8N9wTuBc40zpLSkwHrvQDZ6V1EJEkUqGL9JDnhuOBB4HR1lkSajHRe/L51kFEkkyFLpIjnhteBvwIGGadJSHWAjf5gfOAdRCRNFChi+SQ54bDgFuB71tnibmfAZP9wMlYBxFJCxW6SB54brg/0ZjbOOssMTOX6JS3JdZBRNJGhS6SR54bng3cA+xpncXY+8BVfuDMsA4iklYqdJE889ywDLgWuA4YYByn0JqAKX7g3G4dRCTtVOgiBeK54W7A3cD51lkK5HHgaj9wVlkHESkGKnSRAvPccBzR+/X9rbPkSQ3RGNoC6yAixUSFLmLEc8NLgNuBKussOVJLdIHKv1kHESlGpdYBRIqVHzi/ABzAt86SA/cCjspcxI6e0EViwHPDauAB4FjrLFmaBVzqB85S6yAixU6FLhIjnhtOIHraHWWdZSeWEp27PtM6iIhEVOgiMeS54fXAjcBA6yzbaABu9QPnbusgIvJpKnSRmPLccCRwF/D31lm2+E+iO8o/sQ4iIp+lQheJOc8N9wZuAr5lFOFh4DY/cN43+vdFpAtU6CIJseX+9RuBC4DyPP9zTUQHw9zmB86Hef63RCQHVOgiCbPlKNkJRMV+Wo7/+hlERT7TD5zmHP/dIpJHKnSRBPPcsAI4CjgQ+NKWr/26+Mff2errbWC2HzgNeYgpIgWgQhdJIc8Ndwd2BfYAdgc6gBVbvlb6gbPSMJ6I5IEKXUREJAVU6CIiIimgQhcREUkBFbqIiEgKqNBFRERSQIUuIiKSAip0ERGRFFChi4iIpIAKXUREJAX+D8d6Bglznm2zAAAAAElFTkSuQmCC;" parent="VywKI6yZoKJIBIxdd0Ie-1" vertex="1">
          <mxGeometry x="400" y="270" width="36" height="36" as="geometry" />
        </mxCell>
      </root>
    </mxGraphModel>
  </diagram>
</mxfile>
